<svg xmlns="http://www.w3.org/2000/svg" width="320" height="320" viewBox="0 0 320 320" fill="none">
  <rect width="320" height="320" fill="#1B1B1B"/>
  <path transform="translate(20.646 37.505) scale(0.90373)" fill="#E4E4E4" d="M174.54 91.1362C174.54 95.3011 179.04 97.9123 182.656 95.8461L261.678 50.6954C266.312 48.0478 271.582 52.9805 269.247 57.7793L247.593 102.269C246.333 104.858 247.314 107.979 249.828 109.381L293.046 133.481C297.707 136.08 296.207 143.141 290.892 143.621L217.377 150.257C212.777 150.672 210.767 156.28 214.057 159.523L273.658 218.267C275.803 220.381 275.816 223.837 273.686 225.966L245.085 254.567C242.978 256.674 239.566 256.688 237.443 254.597L183.77 201.755C180.341 198.379 174.54 200.808 174.54 205.621L174.54 265.655C174.54 268.651 172.112 271.079 169.116 271.079H139.281C136.285 271.079 133.856 268.651 133.856 265.655L133.856 179.936C133.856 175.771 129.357 173.16 125.741 175.226L46.7187 220.383C42.0849 223.031 36.8143 218.098 39.1498 213.299L60.8042 168.805C62.0638 166.217 61.0825 163.095 58.5684 161.693L15.3511 137.596C10.6897 134.996 12.1896 127.935 17.5051 127.455L91.0192 120.818C95.6192 120.402 97.6288 114.795 94.3397 111.552L33.5253 51.5979C31.3811 49.484 31.3688 46.0283 33.4979 43.8993L62.5866 14.8105C64.705 12.6921 68.1396 12.6921 70.258 14.8105L124.596 69.1487C128.014 72.566 133.856 70.1458 133.856 65.313V5.4245C133.856 2.42863 136.285 0 139.281 0L169.116 0C172.112 0 174.54 2.42863 174.54 5.4245V91.1362Z"/>
</svg>
