<svg preserveAspectRatio="none" width="100%" height="100%" overflow="visible" style="display: block;" viewBox="0 0 750 549.832" fill="none" xmlns="http://www.w3.org/2000/svg">
<path id="Union" d="M606.647 0.768436C610.585 1.47783 613.678 4.54083 614.426 8.47153L619.654 35.9378C620.479 40.2704 623.927 43.6239 628.281 44.3279L661.604 49.7165C671.087 51.25 673.687 63.6693 665.614 68.8776L635.144 88.5373C631.665 90.7816 629.833 94.8626 630.467 98.9534L641.747 171.748C642.14 174.283 641.59 176.875 640.2 179.031L635.929 185.663C634.447 187.963 633.923 190.752 634.469 193.433L652.667 282.805C652.864 283.775 653.198 284.712 653.659 285.589L691.398 357.425C692.05 358.667 692.945 359.765 694.03 360.655L732.583 392.282C733.322 392.888 734.195 393.309 735.129 393.509C741.865 394.955 741.249 404.76 734.385 405.352L733.388 405.438C732.528 405.512 731.668 405.292 730.948 404.814C727.064 402.232 722.827 407.545 726.21 410.757L731.232 415.526C731.54 415.818 731.888 416.065 732.266 416.257L742.468 421.461C745.503 423.01 747.485 426.057 747.67 429.46L749.994 472.316C750.197 476.053 744.962 477.115 743.693 473.595C743.507 473.08 743.195 472.621 742.784 472.259L674.683 412.241C671.696 409.609 667.124 409.967 664.582 413.032C662.479 415.569 662.412 419.223 664.419 421.836L669.458 428.395C671.253 430.731 671.982 433.715 671.467 436.616L662.51 487.061C661.424 493.173 653.807 495.396 649.604 490.827L647.236 488.253C645.472 486.335 645.767 483.309 647.868 481.769C649.723 480.409 650.207 477.845 648.975 475.903L624.068 436.618C619.849 429.963 610.071 430.166 606.132 436.99L578.167 485.437C577.268 486.993 577.237 488.903 578.084 490.487C579.508 493.151 578.37 496.463 575.61 497.689L565.188 502.319C560.607 504.354 555.229 502.587 552.749 498.232C551.051 495.251 551.043 491.599 552.727 488.611L603.959 397.726C605.292 395.362 605.527 392.535 604.605 389.983C602.249 383.466 593.856 381.71 589.085 386.735L579.253 397.091C577.662 398.767 575.562 399.87 573.279 400.229L527.109 407.492C524.076 407.969 521.747 410.432 521.44 413.486L517.778 413.502C513.295 413.521 510.074 417.824 511.321 422.131L511.49 422.715C512.858 427.442 508.602 431.88 503.822 430.712L500.591 429.923C499.924 429.76 499.43 429.198 499.353 428.515C499.141 426.634 496.437 426.553 496.112 428.418L495.741 430.551C495.524 431.798 494.194 432.51 493.035 431.999L470.994 422.265C469.894 421.779 468.718 421.486 467.519 421.399L438.983 419.325C430.725 418.724 425.062 427.484 428.999 434.768L434.008 444.034C435.388 446.587 435.648 449.598 434.726 452.35L425.874 478.776C424.969 481.477 425.202 484.431 426.52 486.957L451.576 534.974C454.575 540.721 451.493 547.77 445.237 549.471C442.024 550.344 438.588 549.587 436.039 547.445L406.366 522.506C401.287 518.238 393.722 523.003 395.379 529.427C396.103 532.234 394.973 535.192 392.562 536.8L378.538 546.157C378.057 546.478 377.829 547.065 377.967 547.626C378.266 548.841 376.914 549.79 375.873 549.095L375.787 549.038C375.313 548.721 374.694 548.721 374.22 549.038L374.133 549.095C373.09 549.792 371.735 548.842 372.035 547.624C372.173 547.062 371.944 546.473 371.463 546.152L357.435 536.793C355.025 535.185 353.895 532.229 354.619 529.424C356.275 523.004 348.715 518.242 343.639 522.508L313.961 547.451C311.412 549.593 307.976 550.35 304.763 549.476C298.507 547.775 295.425 540.727 298.425 534.979L323.48 486.963C324.798 484.437 325.031 481.483 324.126 478.782L315.274 452.356C314.352 449.604 314.612 446.593 315.992 444.039L321.001 434.775C324.938 427.49 319.275 418.73 311.016 419.331L282.481 421.406C281.282 421.493 280.106 421.786 279.006 422.272L256.964 432.005C255.806 432.516 254.476 431.804 254.259 430.557L253.887 428.423C253.563 426.559 250.859 426.64 250.647 428.521C250.57 429.203 250.076 429.765 249.409 429.928L246.178 430.718C241.398 431.886 237.142 427.448 238.51 422.721L238.679 422.137C239.925 417.83 236.705 413.527 232.221 413.508L228.559 413.492C228.252 410.438 225.923 407.976 222.891 407.499L176.721 400.235C174.438 399.876 172.338 398.773 170.747 397.097L160.916 386.741C156.144 381.716 147.752 383.472 145.395 389.989C144.473 392.541 144.708 395.368 146.041 397.732L197.272 488.618C198.956 491.605 198.948 495.257 197.251 498.237C194.771 502.593 189.393 504.36 184.812 502.325L174.39 497.695C171.629 496.469 170.492 493.157 171.916 490.493C172.763 488.909 172.732 486.999 171.833 485.443L143.868 436.996C139.929 430.172 130.151 429.969 125.932 436.624L101.025 475.909C99.7936 477.851 100.278 480.415 102.132 481.774C104.233 483.315 104.529 486.341 102.764 488.258L100.396 490.833C96.193 495.402 88.5758 493.179 87.4904 487.067L78.5328 436.622C78.0176 433.721 78.7468 430.737 80.5417 428.401L85.5805 421.842C87.5879 419.229 87.5202 415.575 85.4174 413.038C82.8765 409.973 78.3044 409.615 75.3173 412.247L7.21583 472.265C6.80551 472.627 6.49309 473.086 6.30753 473.6C5.03781 477.121 -0.196896 476.059 0.00572532 472.322L2.32943 429.467C2.51394 426.064 4.49577 423.017 7.53137 421.468L17.7343 416.263C18.1123 416.07 18.4605 415.824 18.7682 415.532L23.7903 410.763C27.1727 407.551 22.9361 402.238 19.0517 404.82C18.3325 405.298 17.4725 405.518 16.6121 405.444L15.615 405.358C8.75072 404.766 8.13475 394.961 14.871 393.515C15.8052 393.314 16.6779 392.894 17.4166 392.288L55.9703 360.661C57.055 359.771 57.95 358.672 58.6024 357.43L96.3414 285.595C96.8019 284.718 97.136 283.781 97.3335 282.81L115.531 193.439C116.077 190.757 115.553 187.969 114.071 185.669L109.8 179.037C108.41 176.88 107.86 174.289 108.253 171.754L119.533 98.9593C120.167 94.8684 118.335 90.7875 114.856 88.5432L84.3857 68.8835C76.3131 63.6751 78.9127 51.2559 88.3964 49.7223L121.719 44.3338C126.073 43.6297 129.521 40.2762 130.346 35.9434L135.573 8.47849C136.321 4.54721 139.415 1.48381 143.353 0.77463L147.219 0.0785789C149.231 -0.283765 151.237 0.747206 152.113 2.59454L163.871 27.378C164.608 28.9312 166.956 28.1245 166.582 26.4464C166.433 25.7755 166.778 25.0925 167.406 24.8141L170.581 23.4075C174.087 21.8546 178.093 24.148 178.528 27.9572L180.777 47.6342C180.92 48.8808 181.285 50.0918 181.855 51.2095L197.584 82.0307C198.568 83.9588 200.125 85.5352 202.04 86.5433L221.272 96.6645C225.676 98.9821 231.102 97.8849 234.26 94.0384L250.233 74.5792C252.76 71.5002 253.325 67.2549 251.689 63.6225L239.404 36.3317C236.584 30.0684 240.448 22.8307 247.221 21.6885L260.281 19.486C262.634 19.0892 265.052 19.5069 267.136 20.6701L369.884 78.033C373.06 79.8065 376.929 79.8065 380.106 78.033L482.864 20.6642C484.947 19.501 487.365 19.0832 489.718 19.48L502.778 21.6821C509.552 22.8241 513.416 30.0618 510.596 36.3253L498.311 63.6167C496.675 67.2491 497.24 71.4943 499.767 74.5733L515.74 94.0318C518.897 97.8782 524.323 98.9755 528.727 96.6581L547.959 86.5375C549.875 85.5293 551.432 83.9529 552.416 82.0245L568.144 51.2034C568.714 50.0859 569.079 48.8751 569.222 47.6286L571.472 27.9509C571.907 24.1415 575.913 21.8482 579.419 23.4014L582.594 24.8083C583.222 25.0866 583.567 25.7696 583.418 26.4404C583.044 28.1185 585.392 28.9252 586.129 27.3719L597.887 2.58792C598.763 0.740495 600.769 -0.290465 602.781 0.072059L606.647 0.768436ZM373.678 529.961C373.672 530.087 373.685 530.214 373.715 530.337C374.045 531.679 375.955 531.684 376.285 530.342C376.315 530.219 376.328 530.093 376.322 529.967L375 500.535L373.678 529.961ZM228.559 413.492L228.679 414.68C228.778 415.671 227.79 416.413 226.866 416.042C225.51 415.497 225.904 413.481 227.366 413.487L228.559 413.492ZM523.133 416.036C522.209 416.407 521.221 415.664 521.321 414.674L521.44 413.486L522.634 413.481C524.094 413.475 524.489 415.491 523.133 416.036ZM258.7 315.947C259.139 317.359 259.04 318.884 258.423 320.228L255.965 325.582C253.627 330.676 256.91 336.574 262.471 337.27C266.685 337.798 269.82 341.424 269.732 345.67L269.075 377.406C268.988 381.627 265.887 385.178 261.716 385.832C255.01 386.884 252.03 394.862 256.406 400.052L258.368 402.38C261.829 406.486 267.843 407.292 272.262 404.242L308.378 379.318C313.326 375.903 314.395 369.035 310.719 364.277L269.171 310.501C265.085 305.213 256.716 309.565 258.7 315.947ZM439.28 364.271C435.604 369.029 436.674 375.897 441.622 379.312L477.738 404.235C482.158 407.285 488.171 406.48 491.632 402.374L493.594 400.046C497.969 394.856 494.99 386.878 488.284 385.826C484.113 385.172 481.012 381.621 480.925 377.4L480.268 345.665C480.181 341.418 483.315 337.792 487.529 337.264C493.09 336.568 496.373 330.67 494.035 325.576L491.577 320.221C490.96 318.877 490.861 317.352 491.3 315.94C493.283 309.558 484.915 305.206 480.828 310.495L439.28 364.271ZM370.087 380.474C369.883 381.861 370.276 383.27 371.169 384.352C373.154 386.759 376.845 386.756 378.83 384.349C379.723 383.266 380.117 381.855 379.913 380.467C379.083 374.808 370.917 374.814 370.087 380.474ZM363.466 293.256C361.405 296.936 361.751 301.494 364.343 304.821L366.726 307.88C370.924 313.269 379.071 313.269 383.269 307.88L385.656 304.816C388.249 301.488 388.595 296.93 386.534 293.249L384.15 288.992C380.146 281.841 369.855 281.842 365.852 288.992L363.466 293.256ZM269.301 270.292C265.668 271.829 265.475 276.906 268.981 278.715L287.021 288.02C295.229 292.254 304.505 284.576 301.88 275.721L301.323 273.843L310.24 275.012L301.617 273.512C301.427 273.479 301.268 273.657 301.323 273.843L271.719 269.964C270.898 269.856 270.063 269.97 269.301 270.292ZM448.676 273.837C448.732 273.651 448.573 273.472 448.382 273.506L439.76 275.006L448.676 273.837L448.119 275.716C445.494 284.571 454.77 292.248 462.978 288.015L481.019 278.709C484.526 276.901 484.332 271.823 480.699 270.286C479.937 269.964 479.102 269.85 478.281 269.958L448.676 273.837ZM366.48 130.59C365.82 132.751 366.006 135.082 367 137.111L369.08 141.358C371.219 145.724 368.068 150.84 363.207 150.967C361.738 151.006 360.314 151.542 359.189 152.489C355.53 155.567 356.345 161.412 360.707 163.371L363.835 164.775C368.393 166.823 370.27 172.297 367.926 176.71L352.996 204.827C352.396 205.957 352.008 207.187 351.851 208.456L347.815 241.06C347.129 246.603 350.908 251.711 356.41 252.676L373.172 255.615C374.37 255.825 375.596 255.825 376.794 255.615L393.59 252.67C399.092 251.705 402.871 246.597 402.185 241.054L398.149 208.45C397.992 207.18 397.604 205.95 397.004 204.82L382.072 176.7C379.73 172.289 381.605 166.817 386.161 164.771L389.292 163.364C393.65 161.407 394.464 155.568 390.808 152.493C389.685 151.548 388.261 151.012 386.794 150.973C381.933 150.846 378.78 145.73 380.919 141.364L383 137.118C383.994 135.088 384.18 132.756 383.519 130.594C380.951 122.187 369.048 122.183 366.48 130.59ZM133.881 243.325C133.098 249.496 137.829 254.987 144.048 255.127L152.236 255.31C158.139 255.442 162.987 250.676 162.956 244.772L162.843 223.544C162.831 221.211 162.04 218.949 160.598 217.115L155.941 211.198C150.188 203.887 138.47 207.134 137.3 216.364L133.881 243.325ZM589.402 217.109C587.96 218.943 587.17 221.205 587.157 223.538L587.044 244.766C587.013 250.67 591.861 255.436 597.764 255.304L605.953 255.12C612.171 254.981 616.902 249.489 616.119 243.319L612.7 216.358C611.53 207.128 599.812 203.881 594.059 211.193L589.402 217.109ZM305.543 231.274C301.796 237.806 305.952 246.041 313.432 246.906L325.071 248.253C331.255 248.969 336.698 244.17 336.761 237.945L337.071 207.681C337.089 205.915 337.553 204.182 338.42 202.643L353.896 175.166C355.951 171.518 354.372 166.894 350.516 165.264C347.249 163.883 343.466 165.158 341.701 168.234L305.543 231.274ZM399.483 165.258C395.627 166.888 394.049 171.512 396.103 175.16L411.58 202.637C412.447 204.176 412.911 205.909 412.929 207.676L413.239 237.938C413.303 244.163 418.745 248.962 424.929 248.247L436.567 246.9C444.048 246.034 448.204 237.799 444.457 231.267L408.298 168.228C406.534 165.151 402.75 163.876 399.483 165.258ZM261.006 220.196C260.338 220.995 260.069 222.054 260.275 223.075C261.062 226.967 266.73 226.631 267.052 222.674C267.322 219.342 263.151 217.632 261.006 220.196ZM482.948 222.667C483.27 226.624 488.938 226.96 489.724 223.068C489.93 222.047 489.661 220.988 488.993 220.189C486.848 217.626 482.677 219.335 482.948 222.667ZM339.504 144.157C336.924 148.081 338.468 153.382 342.751 155.305C347.103 157.26 352.161 154.785 353.287 150.149C355.308 141.834 344.206 137.008 339.504 144.157ZM396.71 150.142C397.836 154.779 402.895 157.254 407.247 155.3C411.532 153.375 413.076 148.073 410.495 144.149C405.792 136.998 394.688 141.825 396.71 150.142ZM257.723 105.734C253.201 107.654 252.669 113.85 256.797 116.513L258.851 117.838C261.156 119.325 262.452 121.962 262.221 124.694L260.924 140.059C260.465 145.499 265.271 149.904 270.65 148.974C275.846 148.075 278.912 142.637 276.992 137.726L265.817 109.14C264.561 105.927 260.899 104.386 257.723 105.734ZM473.008 137.72C471.088 142.632 474.154 148.069 479.35 148.968C484.729 149.898 489.535 145.493 489.076 140.053L487.779 124.687C487.548 121.955 488.844 119.318 491.149 117.831L493.203 116.506C497.331 113.843 496.798 107.647 492.277 105.728C489.101 104.379 485.439 105.92 484.183 109.133L473.008 137.72ZM98.1638 52.9249C93.3907 53.2396 91.172 58.9971 94.4997 62.4333C96.9161 64.9285 100.996 64.6531 103.055 61.8558C105.885 58.0102 102.929 52.6109 98.1638 52.9249ZM646.945 61.85C649.004 64.6473 653.084 64.9227 655.5 62.4275C658.828 58.9912 656.609 53.2337 651.836 52.9191C647.072 52.605 644.115 58.0044 646.945 61.85Z" fill="var(--fill-0, #1A1A1A)"/>
</svg>
