<svg preserveAspectRatio="none" width="100%" height="100%" overflow="visible" style="display: block;" viewBox="0 0 156 104.302" fill="none" xmlns="http://www.w3.org/2000/svg">
<path id="Union" fill-rule="evenodd" clip-rule="evenodd" d="M107.693 3.17701C107.553 3.35127 107.552 3.5993 107.691 3.77449L110.498 7.31467C110.649 7.50423 110.613 7.78043 110.42 7.92589C110.098 8.16782 110.255 8.67934 110.657 8.6995L112.084 8.77108C112.319 8.78288 112.55 8.70673 112.732 8.55746L122.673 0.409239C123.191 -0.0153596 123.936 -0.0175925 124.457 0.403895L125.975 1.63365C126.351 1.93819 126.185 2.5446 125.706 2.61478C125.377 2.66302 125.164 2.98774 125.251 3.30887L126.063 6.32306C126.105 6.47881 126.021 6.64066 125.869 6.69466C125.526 6.81628 125.638 7.32629 126 7.29356L131.811 6.76794C131.923 6.75779 132.029 6.71156 132.113 6.63618L132.891 5.93533C133.279 5.58678 133.834 6.10282 133.515 6.51485C133.357 6.71956 133.415 7.01705 133.639 7.14666L138.654 10.047C138.921 10.2014 138.899 10.594 138.616 10.7165C138.204 10.8947 138.395 11.5143 138.836 11.4297L139.709 11.2621C140.188 11.1701 140.476 11.7761 140.102 12.0895L138.927 13.0729C138.748 13.2232 138.515 13.2949 138.282 13.2718L135.228 12.9681L137.913 13.6216C138.369 13.7325 138.734 14.0723 138.878 14.5189L139.329 15.915C139.605 16.7709 138.602 17.4642 137.899 16.9035L136.494 15.7838C136.149 15.5086 135.663 15.8692 135.826 16.2794C135.991 16.6957 135.49 17.0563 135.148 16.7673L132.96 14.9193C132.617 14.6295 132.136 14.5663 131.73 14.7575L131.685 14.7784C130.943 15.1276 130.747 16.0934 131.294 16.7045L138.089 24.2907C138.51 24.7607 139.128 25.0044 139.756 24.9484L146.879 24.313C147.406 24.266 147.893 24.0119 148.233 23.6065L149.935 21.579C150.549 20.8472 150.559 19.7833 149.96 19.0392L147.493 15.9737C147.268 15.6944 146.875 15.6173 146.561 15.7909C145.861 16.1784 145.131 15.3294 145.62 14.6954L146.516 13.533C146.904 13.0291 147.65 12.988 148.091 13.4461L154.172 19.757C154.874 20.486 154.921 21.6248 154.281 22.4091L149.567 28.1866C149.18 28.661 148.597 28.932 147.985 28.922L121.947 28.4961C120.118 28.4662 119.212 30.7026 120.545 31.954L122.328 33.628C122.978 34.2383 123.954 34.3446 124.72 33.8887L128.262 31.7811C129.023 31.3279 129.992 31.43 130.643 32.0318L134.036 35.1719C134.658 35.7474 134.85 36.6525 134.515 37.4309L133.607 39.5402C133.405 40.0083 133.033 40.3817 132.565 40.5843L130.749 41.3711C130.163 41.6252 130.057 42.412 130.556 42.8118L130.62 42.8627C130.91 43.0953 131.326 43.0814 131.6 42.83C132.084 42.3866 132.863 42.7294 132.863 43.3852V43.5623C132.863 43.9392 132.61 44.2689 132.246 44.3657L131.755 44.496C130.407 44.8545 130.246 46.7036 131.512 47.29L136.475 49.5886C137.575 50.0981 138.872 49.5192 139.228 48.36L141.66 40.425C141.821 39.9007 142.19 39.4654 142.681 39.221L146.181 37.4779C147.049 37.0453 148.103 37.2987 148.68 38.079L150.822 40.9748C151.074 41.3151 151.211 41.7264 151.214 42.1496L151.252 47.4316C151.255 47.9478 151.591 48.403 152.083 48.5593C152.707 48.7575 153.374 48.4153 153.577 47.793C153.945 46.6678 155.55 46.7066 155.862 47.8483L155.954 48.1864C156.116 48.7781 155.841 49.4022 155.296 49.6827L153.349 50.6833C152.87 50.9297 152.311 50.9723 151.8 50.8012L150.292 50.2965C149.506 50.0335 148.963 49.3127 148.928 48.4845L148.719 43.5539C148.684 42.7094 147.773 42.1962 147.032 42.6026C146.768 42.7473 146.572 42.9905 146.487 43.2791L143.705 52.6936C143.549 53.221 143.183 53.661 142.693 53.91L137.017 56.7927C136.427 57.0924 135.726 57.0807 135.146 56.7614L133.371 55.7835C132.987 55.5721 132.543 55.4947 132.111 55.5633C130.335 55.8451 129.832 58.1624 131.332 59.1545L143.965 67.512C144.269 67.7133 144.512 67.994 144.669 68.3237L154.069 88.1651C154.519 89.1138 154.159 90.2484 153.244 90.7638L132.248 102.597C132.006 102.734 131.738 102.818 131.461 102.845L116.707 104.292C116.298 104.332 115.887 104.246 115.53 104.044L110.137 101.007C109.707 100.765 109.382 100.373 109.224 99.9061L107.973 96.212C107.699 95.4034 106.942 94.8579 106.088 94.8538L93.9651 94.7948C93.5063 94.7926 93.0623 94.6327 92.7074 94.342L83.2349 86.5821C82.8993 86.3072 82.6622 85.9307 82.5594 85.5092L79.8183 74.2796C79.7291 73.914 79.7448 73.5307 79.8636 73.1736L80.4711 71.3488C80.7341 70.5587 80.48 69.6882 79.8332 69.1637L79.2598 68.6987C78.5255 68.1032 77.4746 68.1032 76.7404 68.6987L76.167 69.1637C75.5201 69.6882 75.266 70.5587 75.5291 71.3488L76.1365 73.1736C76.2554 73.5307 76.2711 73.914 76.1819 74.2796L73.4408 85.5092C73.3379 85.9307 73.1008 86.3072 72.7653 86.5821L63.2928 94.342C62.9379 94.6327 62.4939 94.7926 62.0351 94.7948L49.9121 94.8538C49.0585 94.8579 48.3016 95.4034 48.0276 96.212L46.776 99.9061C46.6178 100.373 46.2928 100.765 45.8633 101.007L40.4703 104.044C40.1128 104.246 39.7019 104.332 39.2936 104.292L24.5388 102.845C24.2621 102.818 23.9942 102.734 23.752 102.597L2.75612 90.7638C1.84165 90.2484 1.48125 89.1138 1.9307 88.1652L11.3316 68.3237C11.4878 67.994 11.7312 67.7133 12.0355 67.512L24.6682 59.1545C26.1678 58.1624 25.6653 55.8451 23.8895 55.5633C23.4567 55.4947 23.0134 55.5721 22.6296 55.7835L20.8538 56.7614C20.2739 57.0807 19.5736 57.0924 18.9834 56.7927L13.3074 53.91C12.817 53.661 12.4508 53.221 12.295 52.6936L9.51313 43.2791C9.42784 42.9905 9.23185 42.7473 8.96793 42.6026C8.22676 42.1962 7.31658 42.7094 7.28082 43.5539L7.072 48.4845C7.03693 49.3127 6.49454 50.0335 5.7084 50.2965L4.19987 50.8012C3.68871 50.9723 3.13017 50.9297 2.6508 50.6833L0.704555 49.6827C0.15902 49.4022 -0.115648 48.7781 0.046052 48.1864L0.138438 47.8483C0.45045 46.7066 2.05565 46.6678 2.42301 47.793C2.62621 48.4153 3.29331 48.7575 3.91728 48.5593C4.40927 48.403 4.74478 47.9478 4.74849 47.4316L4.78643 42.1496C4.78946 41.7264 4.92667 41.3151 5.17831 40.9748L7.31977 38.079C7.89681 37.2987 8.95076 37.0453 9.81947 37.4779L13.3192 39.221C13.81 39.4654 14.179 39.9007 14.3397 40.425L16.7724 48.36C17.1278 49.5192 18.4247 50.0981 19.525 49.5886L24.4883 47.29C25.7546 46.7036 25.5934 44.8545 24.2448 44.496L23.7546 44.3657C23.3904 44.2689 23.1368 43.9392 23.1368 43.5623V43.3852C23.1368 42.7294 23.9165 42.3866 24.3998 42.83C24.6738 43.0814 25.0903 43.0953 25.3804 42.8627L25.444 42.8118C25.9428 42.412 25.8373 41.6252 25.2507 41.3711L23.4351 40.5843C22.9675 40.3817 22.5949 40.0083 22.3933 39.5402L21.4851 37.4309C21.1499 36.6525 21.3417 35.7474 21.9637 35.1719L25.3574 32.0318C26.0078 31.43 26.9768 31.3279 27.7384 31.7811L31.2804 33.8887C32.0466 34.3446 33.022 34.2383 33.672 33.628L35.4552 31.954C36.7882 30.7026 35.8817 28.4662 34.0536 28.4961L8.01541 28.922C7.4032 28.932 6.82013 28.661 6.43305 28.1866L1.71922 22.4091C1.0793 21.6248 1.12628 20.486 1.82863 19.757L7.90926 13.4461C8.35064 12.9881 9.09597 13.0292 9.48425 13.5331L10.3802 14.6958C10.8687 15.3297 10.1392 16.1785 9.43911 15.7909C9.1255 15.6173 8.73248 15.6944 8.5077 15.9736L6.03971 19.0392C5.44067 19.7833 5.45147 20.8472 6.06549 21.579L7.76671 23.6065C8.10691 24.0119 8.59395 24.266 9.12113 24.313L16.2437 24.9484C16.8721 25.0044 17.4902 24.7607 17.9112 24.2907L24.7061 16.7045C25.2533 16.0934 25.0573 15.1276 24.315 14.7784L24.2705 14.7575C23.8642 14.5663 23.3836 14.6295 23.0405 14.9193L20.8523 16.7672C20.5101 17.0562 20.0089 16.6955 20.1743 16.2793C20.3373 15.869 19.851 15.5084 19.5058 15.7836L18.1013 16.9032C17.398 17.4639 16.395 16.7703 16.6713 15.9143L17.1217 14.5187C17.2658 14.0722 17.6314 13.7326 18.0873 13.6216L20.7725 12.9681L17.7179 13.2718C17.4849 13.2949 17.2524 13.2232 17.073 13.0729L15.8986 12.0895C15.5244 11.7761 15.8122 11.1701 16.2916 11.2621L17.1647 11.4297C17.6052 11.5143 17.7962 10.8947 17.3846 10.7165C17.1015 10.594 17.0788 10.2014 17.3458 10.047L22.3607 7.14666C22.5848 7.01705 22.6432 6.71956 22.4847 6.51485C22.1657 6.10282 22.7214 5.58678 23.1087 5.93533L23.8876 6.63618C23.9714 6.71156 24.0773 6.75779 24.1896 6.76794L30.0004 7.29356C30.3621 7.32629 30.4739 6.81629 30.1317 6.69466C29.9797 6.64066 29.8948 6.47881 29.9368 6.32306L30.7495 3.30887C30.8361 2.98774 30.6229 2.66302 30.2938 2.61478C29.815 2.5446 29.6488 1.93819 30.0249 1.63365L31.5436 0.403895C32.0642 -0.0175923 32.8092 -0.0153605 33.3272 0.409238L43.2679 8.55746C43.45 8.70673 43.6811 8.78288 43.9163 8.77108L45.3432 8.6995C45.745 8.67934 45.9018 8.16782 45.5803 7.92589C45.387 7.78043 45.3516 7.50423 45.5019 7.31467L48.3094 3.77449C48.4484 3.5993 48.4475 3.35127 48.3074 3.17701L47.0089 1.56182C46.8058 1.30915 47.1406 0.979288 47.3902 1.18613C47.609 1.36742 47.9229 1.12976 47.8078 0.869987L47.648 0.509542C47.5118 0.202087 47.8322 -0.108646 48.1353 0.0369959L56.4395 4.02686C56.9959 4.29418 57.3977 4.80344 57.5282 5.40676L58.188 8.45737C58.2529 8.75699 58.4179 9.02558 58.6558 9.21882C59.4809 9.88878 60.7205 9.38504 60.8444 8.32951L60.9018 7.84062C60.9533 7.40127 60.8228 6.95996 60.5406 6.6193L58.9307 4.67589C58.6461 4.33237 58.7413 3.81511 59.1294 3.59529L60.0658 3.06496C60.4978 2.82031 60.9634 3.32799 60.6824 3.73725C60.5678 3.90411 60.5735 4.1257 60.6964 4.28651L61.0444 4.74178C61.5469 5.39908 62.536 5.40113 63.0412 4.74591L64.7804 2.49023C65.3598 1.73874 66.3875 1.49786 67.2405 1.9136L68.3787 2.46835C69.5277 3.02837 69.8637 4.50771 69.0693 5.50911L65.4767 10.0381C65.2224 10.3587 65.0725 10.7496 65.0474 11.158L64.9198 13.2273C64.8801 13.8718 65.154 14.4958 65.6553 14.9029L67.4588 16.3673C68.0769 16.8693 68.9738 16.8255 69.5402 16.2658L70.236 15.5781C70.42 15.3961 70.4339 15.1035 70.268 14.9049C69.8813 14.4424 70.4961 13.8193 70.9638 14.1996L77.1989 19.2697C77.6656 19.6492 78.3346 19.6492 78.8013 19.2697L85.0358 14.2C85.5033 13.8199 86.1177 14.4428 85.7312 14.905C85.5653 15.1035 85.5792 15.3961 85.7633 15.5779L86.4598 16.266C87.0262 16.8256 87.9232 16.8693 88.5413 16.3672L90.3444 14.9027C90.8454 14.4957 91.1192 13.872 91.0797 13.2277L90.9527 11.1583C90.9276 10.7497 90.7777 10.3586 90.5233 10.0379L86.9308 5.50911C86.1365 4.50771 86.4725 3.02837 87.6215 2.46835L88.7597 1.9136C89.6127 1.49786 90.6404 1.73875 91.2198 2.49024L92.959 4.74591C93.4642 5.40113 94.4533 5.39908 94.9558 4.74178L95.3038 4.28651C95.4267 4.1257 95.4324 3.90411 95.3178 3.73725C95.0368 3.32799 95.5023 2.82031 95.9343 3.06496L96.8708 3.59529C97.2589 3.81511 97.354 4.33237 97.0695 4.67589L95.4593 6.61961C95.1772 6.96008 95.0468 7.40112 95.0982 7.84023L95.1554 8.32918C95.279 9.38468 96.5186 9.88858 97.3436 9.21866C97.5814 9.02552 97.7464 8.75709 97.8112 8.45764L98.4718 5.40647C98.6024 4.80331 99.0041 4.29423 99.5604 4.02697L107.865 0.036996C108.168 -0.108646 108.488 0.202086 108.352 0.509541L108.192 0.869987C108.077 1.12976 108.391 1.36742 108.61 1.18613C108.86 0.979288 109.194 1.30915 108.991 1.56182L107.693 3.17701ZM24.5329 77.3759C24.8614 77.6677 24.9823 78.1284 24.8395 78.5439L23.5884 82.1845C23.4296 82.6466 23.1071 83.0346 22.6818 83.2752L17.3731 86.279C16.6299 86.6995 15.7017 86.6017 15.0624 86.0357L12.6205 83.8736C11.605 82.9744 10.0079 83.3255 9.46311 84.5677L9.11945 85.3513C8.7118 86.2808 9.06502 87.3683 9.94106 87.8809L28.4116 98.6875C28.6616 98.8338 28.9404 98.924 29.2287 98.9519L36.3545 99.6422C36.8279 99.688 37.3022 99.5637 37.6922 99.2914L43.7227 95.0812C44.8241 94.3122 44.8694 92.6977 43.8128 91.8682L40.0898 88.9454C39.5879 88.5514 38.8796 88.5594 38.3867 88.9646L38.2428 89.0828C37.9215 89.347 37.7827 89.7736 37.8872 90.1762C38.1887 91.3385 36.6393 92.0372 35.9678 91.0418L35.2515 89.98C34.8766 89.4243 34.9908 88.6738 35.514 88.2547L36.4226 87.527C37.1867 86.9151 37.3955 85.8401 36.9162 84.9866L35.2079 81.9451C34.9872 81.5521 34.5879 81.2923 34.1392 81.2496L33.4207 81.1812C32.8584 81.1277 32.4043 81.6329 32.5173 82.1863C32.6705 82.9369 31.8221 83.4846 31.2011 83.036L30.1527 82.2787C29.7701 82.0023 29.5604 81.5458 29.5998 81.0756L29.8193 78.4625C29.8819 77.7166 29.4457 77.0186 28.7479 76.7479L25.6501 75.5463C24.5183 75.1073 23.6254 76.5696 24.5329 77.3759ZM127.252 76.7479C126.554 77.0186 126.118 77.7166 126.181 78.4625L126.4 81.0756C126.44 81.5458 126.23 82.0023 125.848 82.2787L124.799 83.036C124.178 83.4846 123.33 82.9369 123.483 82.1863C123.596 81.6329 123.142 81.1277 122.579 81.1812L121.861 81.2496C121.412 81.2923 121.013 81.5521 120.792 81.945L119.083 84.9865C118.604 85.84 118.813 86.9152 119.577 87.5272L120.486 88.255C121.009 88.674 121.123 89.4241 120.748 89.9797L120.032 91.0413C119.361 92.0366 117.812 91.3381 118.113 90.176C118.217 89.7735 118.079 89.347 117.758 89.083L117.614 88.9646C117.121 88.5594 116.412 88.5514 115.91 88.9454L112.187 91.8682C111.131 92.6977 111.176 94.3122 112.278 95.0812L118.308 99.2914C118.698 99.5637 119.172 99.688 119.646 99.6422L126.771 98.9519C127.06 98.924 127.339 98.8338 127.589 98.6875L146.059 87.8809C146.935 87.3683 147.288 86.2808 146.881 85.3513L146.537 84.5677C145.992 83.3255 144.395 82.9744 143.38 83.8736L140.938 86.0357C140.298 86.6017 139.37 86.6995 138.627 86.279L133.318 83.2752C132.893 83.0346 132.571 82.6466 132.412 82.1845L131.161 78.5439C131.018 78.1284 131.139 77.6677 131.467 77.3759C132.375 76.5696 131.482 75.1073 130.35 75.5463L127.252 76.7479ZM48.6631 77.7823C48.0477 78.5637 46.9516 78.7743 46.0906 78.2764L43.8954 77.0071C42.5127 76.2076 40.7969 77.2715 40.8983 78.8654L41.0278 80.9017C41.0536 81.308 41.2029 81.6968 41.4556 82.0161L45.0554 86.5639C45.3955 86.9935 45.8969 87.2648 46.4426 87.3143L55.7922 88.1641C56.2984 88.2101 56.8032 88.0616 57.2039 87.7488L62.6793 83.4747C63.0063 83.2195 63.2055 82.8342 63.2248 82.4199L63.2297 82.313C63.2867 81.0878 61.8343 80.4048 60.9269 81.23L60.8614 81.2897C60.4144 81.6962 59.7427 81.7313 59.2558 81.3734L57.8484 80.339C57.4259 80.0285 57.6014 79.3612 58.122 79.2987C58.6777 79.232 58.8241 78.4935 58.3357 78.2199L52.8762 75.1611C52.0175 74.68 50.9363 74.8953 50.3273 75.6686L48.6631 77.7823ZM97.6644 78.2199C97.1761 78.4935 97.3224 79.232 97.8782 79.2987C98.3988 79.3612 98.5743 80.0285 98.1518 80.339L96.7444 81.3734C96.2575 81.7313 95.5858 81.6962 95.1388 81.2897L95.0732 81.23C94.1658 80.4048 92.7135 81.0878 92.7705 82.313L92.7754 82.4199C92.7947 82.8342 92.9939 83.2195 93.3208 83.4747L98.7953 87.7488C99.196 88.0616 99.7008 88.2101 100.207 88.1641L109.558 87.3143C110.103 87.2648 110.605 86.9935 110.945 86.5638L114.544 82.0162C114.797 81.6968 114.947 81.308 114.972 80.9015L115.101 78.8651C115.203 77.2712 113.487 76.2076 112.104 77.0071L109.91 78.2762C109.049 78.7742 107.952 78.5637 107.337 77.7822L105.673 75.6686C105.064 74.8953 103.983 74.68 103.124 75.1611L97.6644 78.2199ZM15.7895 75.7605C14.8636 76.3197 14.725 77.6072 15.5108 78.3506L16.6134 79.3937C17.0563 79.8127 17.7136 79.9109 18.2597 79.6397C19.037 79.2536 19.3052 78.2769 18.8341 77.5479L18.0103 76.2732C17.5301 75.5303 16.5467 75.3033 15.7895 75.7605ZM137.166 77.5479C136.695 78.2769 136.963 79.2536 137.741 79.6397C138.287 79.9109 138.944 79.8127 139.387 79.3937L140.489 78.3506C141.275 77.6072 141.137 76.3197 140.211 75.7605C139.453 75.3033 138.47 75.5303 137.99 76.2732L137.166 77.5479ZM58.6283 71.9948C57.4271 72.7371 57.4282 74.4844 58.6304 75.2251L59.9099 76.0134C60.222 76.2058 60.5913 76.284 60.9546 76.2348C62.1303 76.0755 62.7211 74.729 62.0423 73.7559L61.1825 72.5234C60.6062 71.6974 59.4851 71.4654 58.6283 71.9948ZM93.9578 73.7559C93.279 74.729 93.8699 76.0755 95.0456 76.2348C95.4089 76.284 95.7781 76.2058 96.0903 76.0134L97.3698 75.2251C98.5719 74.4844 98.5731 72.7371 97.3719 71.9948C96.5151 71.4654 95.394 71.6974 94.8177 72.5234L93.9578 73.7559ZM73.8237 63.0526C73.3485 63.587 73.1949 64.3345 73.4207 65.013L73.4755 65.1777C73.7205 65.9139 74.3692 66.442 75.1398 66.5325L77.7657 66.8411C77.9208 66.8593 78.0774 66.8593 78.2325 66.8411L80.8598 66.5324C81.6302 66.4419 82.2787 65.9142 82.5239 65.1783L82.5789 65.0133C82.8051 64.3346 82.6515 63.5869 82.1762 63.0522L79.4948 60.0361C78.6992 59.1413 77.3009 59.1413 76.5054 60.0361L73.8237 63.0526ZM76.8819 39.8929C76.8242 39.939 76.7725 39.9921 76.7281 40.0511L75.596 41.5537C75.5069 41.6719 75.319 41.6177 75.3066 41.4702C75.2958 41.3417 75.1461 41.2772 75.0454 41.3577L74.6257 41.6926C74.2493 41.9931 73.7288 41.5691 73.9468 41.1397L74.1214 40.7961C74.3104 40.4238 74.0161 39.9889 73.6002 40.0259L72.9303 40.0857C72.6075 40.1144 72.3247 40.3138 72.1892 40.6083L67.7078 50.3468C66.9684 51.9535 68.5253 53.6586 70.1925 53.068L71.6354 52.5569C72.5673 52.2267 73.6005 52.627 74.0668 53.4988L75.6577 56.4732C75.9729 57.0625 76.5616 57.4554 77.2267 57.5204L77.8055 57.577C77.9349 57.5897 78.0653 57.5897 78.1947 57.577L78.7735 57.5204C79.4386 57.4554 80.0273 57.0625 80.3424 56.4732L81.9334 53.4988C82.3996 52.627 83.4329 52.2267 84.3648 52.5569L85.8077 53.068C87.4748 53.6586 89.0318 51.9535 88.2924 50.3468L83.8112 40.6087C83.6755 40.314 83.3925 40.1144 83.0694 40.0857L82.3983 40.0259C81.9823 39.9888 81.688 40.4239 81.8772 40.7962L82.0524 41.141C82.2705 41.5701 81.7503 41.9939 81.3741 41.6938L80.9536 41.3583C80.853 41.2781 80.7036 41.3426 80.693 41.4708C80.6809 41.618 80.4933 41.6723 80.4044 41.5544L79.2709 40.0517C79.2266 39.993 79.1751 39.94 79.1176 39.8941L79.0385 39.8309C78.4305 39.3457 77.5677 39.3456 76.9597 39.8308L76.8819 39.8929ZM48.866 39.2549C47.9506 39.8131 48.0276 41.1665 49.0004 41.6172C49.5385 41.8666 49.849 42.4397 49.764 43.0266L49.7571 43.0747C49.5748 44.3331 51.0231 45.1683 52.0209 44.3803L53.0011 43.6062C53.5616 43.1635 53.8273 42.4444 53.6893 41.7436L53.2888 39.7104C53.0199 38.3451 51.4734 37.6649 50.2853 38.3894L48.866 39.2549ZM102.311 41.7436C102.173 42.4444 102.439 43.1635 102.999 43.6062L103.979 44.3803C104.977 45.1683 106.425 44.3331 106.243 43.0747L106.236 43.0266C106.151 42.4397 106.462 41.8666 107 41.6172C107.973 41.1665 108.05 39.8131 107.134 39.2549L105.715 38.3894C104.527 37.6649 102.98 38.3451 102.711 39.7104L102.311 41.7436ZM27.0407 39.4087C26.7461 39.7928 26.6692 40.3011 26.837 40.7551C27.2141 41.7756 28.5559 42.0023 29.2474 41.1625L29.41 40.965C29.8357 40.448 29.8403 39.7033 29.4211 39.181C28.847 38.4659 27.7545 38.478 27.1964 39.2057L27.0407 39.4087ZM126.579 39.181C126.16 39.7033 126.164 40.448 126.59 40.965L126.753 41.1625C127.444 42.0023 128.786 41.7756 129.163 40.7551C129.331 40.3011 129.254 39.7928 128.959 39.4087L128.804 39.2057C128.246 38.478 127.153 38.4659 126.579 39.181ZM59.705 25.736C59.1297 26.0595 58.9838 26.823 59.3993 27.3359C59.8395 27.8793 60.6749 27.8587 61.0878 27.2943L62.3304 25.5956C62.5254 25.329 62.4726 24.9555 62.2113 24.7534C62.0176 24.6036 61.753 24.5842 61.5395 24.7043L59.705 25.736ZM93.7879 24.7534C93.5266 24.9555 93.4739 25.329 93.669 25.5956L94.9123 27.2946C95.3252 27.8589 96.1606 27.8794 96.6007 27.3361C97.0163 26.8231 96.8703 26.0595 96.2949 25.736L94.4597 24.7042C94.2462 24.5842 93.9816 24.6036 93.7879 24.7534ZM24.1226 21.7427C23.3323 22.7073 23.9161 24.1645 25.1539 24.3166C25.577 24.3685 26.0031 24.2476 26.3359 23.9812L28.5969 22.1711C29.3975 21.5301 29.5395 20.3669 28.9166 19.5522C28.1773 18.5853 26.7295 18.5609 25.9582 19.5024L24.1226 21.7427ZM127.084 19.5522C126.461 20.367 126.603 21.53 127.403 22.171L129.664 23.9812C129.997 24.2476 130.423 24.3685 130.846 24.3165C132.084 24.1645 132.667 22.7077 131.877 21.7432L130.042 19.5026C129.271 18.561 127.823 18.5853 127.084 19.5522ZM34.272 17.662C34.5925 17.7643 34.943 17.6608 35.1565 17.4008C35.5918 16.8708 35.2244 16.0723 34.5387 16.0581C33.591 16.0384 33.3689 17.3739 34.272 17.662ZM121.461 16.0581C120.776 16.0723 120.408 16.8708 120.844 17.4008C121.057 17.6608 121.408 17.7643 121.728 17.662C122.631 17.3739 122.409 16.0384 121.461 16.0581ZM59.6743 15.3199C59.6829 15.3596 59.7048 15.3952 59.7363 15.4207C59.8456 15.5094 60.0098 15.4427 60.0261 15.3029L60.2615 13.2924C60.2738 13.1875 60.2535 13.0813 60.2035 12.9883C59.9207 12.4624 59.1194 12.7579 59.2458 13.3415L59.6743 15.3199ZM95.7957 12.9883C95.7457 13.0813 95.7254 13.1875 95.7377 13.2924L95.9731 15.3029C95.9894 15.4427 96.1536 15.5094 96.2629 15.4207C96.2944 15.3952 96.3163 15.3596 96.3249 15.3199L96.7534 13.3415C96.8798 12.7579 96.0785 12.4624 95.7957 12.9883Z" fill="var(--fill-0, black)"/>
</svg>
