<svg preserveAspectRatio="none" width="100%" height="100%" overflow="visible" style="display: block;" viewBox="0 0 158.356 104.864" fill="none" xmlns="http://www.w3.org/2000/svg">
<path id="Union" d="M123.384 0.146574C124.136 0.281886 124.726 0.866167 124.868 1.61597L125.865 6.85488C126.023 7.68132 126.68 8.32098 127.511 8.45528L133.867 9.48316C135.676 9.7757 136.172 12.1446 134.632 13.1381L128.82 16.888C128.156 17.3161 127.807 18.0946 127.928 18.8749L130.08 32.7602C130.154 33.2438 130.049 33.7381 129.784 34.1495L129.206 35.0473C128.792 35.6906 128.781 36.5138 129.178 37.1679L129.757 38.1223C129.909 38.3731 130.114 38.5873 130.359 38.7498L139.901 45.1002C140.136 45.2563 140.335 45.4603 140.485 45.6986L150.569 61.6929C150.78 62.0276 151.085 62.2921 151.446 62.4531L156.625 64.7611C158.43 65.5656 157.98 68.2455 156.011 68.4153C155.579 68.4525 155.148 68.3423 154.787 68.1025L148.369 63.837L155.7 70.2608C156.06 70.5759 156.294 71.0094 156.362 71.4827L158.355 85.4611C158.356 85.4666 158.352 85.4713 158.346 85.4708L158.207 85.4777C158.204 85.4777 158.201 85.4756 158.201 85.4728L157.622 81.9744C157.549 81.5378 157.334 81.1374 157.01 80.8361L149.971 74.2931L143.72 69.5739C143.078 69.0896 142.151 69.4057 141.938 70.1808C141.844 70.524 141.916 70.8916 142.133 71.1739L143.404 72.8301C143.746 73.2756 143.885 73.8444 143.787 74.3975L141.837 85.3809C141.681 86.2596 140.962 86.9287 140.074 87.0207L139.883 87.0405C139.879 87.0409 139.874 87.041 139.87 87.0406C139.867 87.0403 139.863 87.0403 139.859 87.0405L139.704 87.0519C139.699 87.0519 139.695 87.0479 139.695 87.0431L139.891 83.0239C139.907 82.7122 139.849 82.4013 139.722 82.1161L136.39 74.5966C135.765 73.1874 133.849 72.9846 132.943 74.232L126.165 83.5676C125.89 83.9468 125.856 84.45 126.077 84.8633L126.247 85.1813C126.386 85.4416 126.348 85.761 126.152 85.9819C125.643 86.5567 124.712 86.0188 124.955 85.2903L131.105 66.884C131.239 66.4855 131.234 66.0536 131.091 65.6583C130.621 64.3533 128.943 63.9975 127.983 64.9994L126.247 66.8127C125.914 67.1609 125.466 67.3769 124.986 67.4211L118.956 67.9751C117.929 68.0694 117.145 68.9323 117.149 69.9629C117.152 70.521 116.919 71.0545 116.509 71.4327L115.371 72.4816L113.981 73.6688C113.9 73.7385 113.824 73.8147 113.755 73.8966C113.417 74.2964 112.935 74.5469 112.413 74.5938L107.509 75.0349C107.199 75.0629 107.042 75.4237 107.235 75.6692C107.501 76.009 107.105 76.4674 106.73 76.2531L94.9395 69.5104C93.9888 68.9667 93.6522 67.7595 94.1845 66.8023L95.2216 64.9371C95.4614 64.5058 95.8785 64.1943 96.3591 64.0819C97.5794 63.7965 98.1235 62.3443 97.3668 61.3452C96.5958 60.3274 95.0259 60.4656 94.4447 61.6026L90.5069 69.3057C90.0207 70.2568 90.3677 71.4221 91.295 71.9523L96.3232 74.8272C97.0389 75.2365 97.4302 76.043 97.3086 76.8585L97.0229 78.774C96.8635 79.8429 95.8838 80.5919 94.8105 80.4653L91.0573 80.0226C89.4484 79.8328 88.2933 81.5347 89.0637 82.9599L89.9228 84.5492C90.1861 85.0362 90.2357 85.6106 90.0598 86.1355L88.3713 91.1761C88.1986 91.6914 88.2432 92.2548 88.4946 92.7366L93.2738 101.896C93.8459 102.992 93.2581 104.336 92.0648 104.661C91.452 104.827 90.7965 104.683 90.3103 104.275L85.2468 100.019C84.4979 99.3896 83.3826 100.092 83.6269 101.039C83.7337 101.453 83.567 101.889 83.2114 102.127L79.3781 104.684C79.3508 104.702 79.3378 104.735 79.3457 104.767C79.3628 104.836 79.2857 104.89 79.2266 104.851L79.2219 104.847C79.1949 104.829 79.1596 104.829 79.1326 104.847L79.1278 104.851C79.0685 104.891 78.9912 104.837 79.0081 104.767C79.0159 104.735 79.0028 104.702 78.9755 104.684L75.143 102.127C74.7875 101.889 74.6208 101.453 74.7275 101.039C74.9716 100.092 73.856 99.3895 73.1071 100.019L68.0442 104.275C67.5581 104.683 66.9025 104.827 66.2897 104.661C65.0964 104.336 64.5086 102.992 65.0807 101.896L69.86 92.7366C70.1114 92.2548 70.1559 91.6914 69.9833 91.1761L68.2947 86.1355C68.1189 85.6106 68.1685 85.0362 68.4318 84.5492L69.2909 82.9599C70.0613 81.5347 68.9062 79.8328 67.2972 80.0226L63.544 80.4653C62.4707 80.5919 61.491 79.8429 61.3316 78.774L61.046 76.8585C60.9244 76.043 61.3156 75.2365 62.0314 74.8272L67.0596 71.9523C67.9869 71.4221 68.3339 70.2568 67.8477 69.3057L63.9098 61.6026C63.3286 60.4656 61.7587 60.3274 60.9877 61.3452C60.231 62.3443 60.7751 63.7965 61.9955 64.0819C62.476 64.1943 62.8931 64.5058 63.133 64.9371L64.1701 66.8023C64.7023 67.7595 64.3657 68.9667 63.415 69.5104L51.6253 76.2528C51.2507 76.467 50.8545 76.0086 51.1207 75.669C51.313 75.4237 51.157 75.0628 50.8465 75.0349L45.9434 74.5939C45.4212 74.547 44.9385 74.2963 44.5996 73.8963C44.5304 73.8146 44.4548 73.7386 44.3734 73.6691L42.9839 72.4816L41.8459 71.4327C41.4355 71.0545 41.203 70.521 41.2052 69.9629C41.2093 68.9323 40.4252 68.0694 39.3989 67.9751L33.369 67.4211C32.8889 67.3769 32.4409 67.1609 32.1075 66.8127L30.3712 64.9994C29.4118 63.9975 27.7337 64.3533 27.2634 65.6583C27.121 66.0536 27.1159 66.4855 27.2491 66.884L33.3993 85.2903C33.6427 86.0188 32.7116 86.5567 32.2022 85.9819C32.0064 85.761 31.9689 85.4416 32.108 85.1813L32.278 84.8633C32.4989 84.45 32.4644 83.9468 32.1891 83.5676L25.4116 74.232C24.506 72.9846 22.5892 73.1874 21.9647 74.5966L18.6322 82.1161C18.5058 82.4013 18.4479 82.7122 18.4631 83.0239L18.6593 87.0441C18.6595 87.0483 18.6561 87.0519 18.6519 87.0519L18.4965 87.0406C18.4927 87.0403 18.4888 87.0403 18.485 87.0406C18.4804 87.041 18.4757 87.0409 18.4711 87.0404L18.2805 87.0207C17.3927 86.9287 16.6733 86.2596 16.5173 85.3809L14.5677 74.3975C14.4695 73.8444 14.6084 73.2756 14.9505 72.8301L16.2222 71.1735C16.4387 70.8914 16.5108 70.5242 16.4169 70.1812C16.2047 69.406 15.2771 69.0897 14.6356 69.5739L8.38333 74.2931L1.34498 80.8363C1.02099 81.1375 0.806002 81.5376 0.733658 81.974L0.153661 85.4728C0.1532 85.4756 0.150796 85.4777 0.147979 85.4777L0.00930742 85.4708C0.00382354 85.4713 -0.000689667 85.4666 8.73979e-05 85.4611L1.99262 71.4828C2.0601 71.0094 2.29494 70.5759 2.65457 70.2608L9.98587 63.837L3.56737 68.1025C3.20668 68.3423 2.77534 68.4525 2.34387 68.4153C0.374796 68.2455 -0.0758666 65.5656 1.72937 64.7611L6.90824 62.4531C7.26957 62.2921 7.57503 62.0276 7.786 61.6929L17.8692 45.6986C18.0195 45.4603 18.2185 45.2563 18.4531 45.1002L27.996 38.7498C28.2402 38.5873 28.4456 38.3731 28.5978 38.1223L29.1769 37.1679C29.5738 36.5138 29.5628 35.6906 29.1484 35.0473L28.5701 34.1495C28.3051 33.7381 28.2001 33.2438 28.275 32.7602L30.4267 18.8749C30.5476 18.0946 30.1981 17.3161 29.5346 16.8881L23.7224 13.1381C22.1826 12.1446 22.6785 9.7757 24.4875 9.48316L30.8437 8.45528C31.6741 8.32098 32.3318 7.68132 32.4891 6.85488L33.4863 1.61597C33.629 0.866167 34.219 0.281886 34.9702 0.146575L35.7076 0.0137423C36.0915 -0.0553983 36.474 0.141243 36.6412 0.49361L38.8839 5.22105C39.0244 5.5173 39.4722 5.36344 39.401 5.04337C39.3726 4.91542 39.4383 4.78515 39.5582 4.73206L40.1639 4.46371C40.8325 4.16745 41.5967 4.60493 41.6797 5.33157L42.1088 9.08488C42.136 9.32266 42.2057 9.55364 42.3144 9.76682L45.1056 15.2363C45.4156 15.8437 46.0136 16.2512 46.6922 16.3177L47.3078 16.378C47.8139 16.4275 48.2815 16.67 48.6135 17.0551C49.2101 17.7471 50.2029 17.9406 51.0157 17.5233L57.7184 14.0825C58.8096 13.5223 59.1441 12.1209 58.4235 11.1283L55.8001 7.51464C54.982 6.38775 55.5372 4.79059 56.8779 4.41413L58.8203 3.86871C59.0467 3.80512 59.2602 3.70207 59.4509 3.56431L60.1174 3.08271C60.7712 2.61036 61.6447 2.57692 62.3326 2.99789L66.8638 5.77062L78.1635 12.4157C78.7893 12.7836 79.5653 12.7837 80.1911 12.4157L91.4917 5.77062L96.0219 2.99804C96.7098 2.57698 97.5834 2.61039 98.2372 3.08277L98.9036 3.56428C99.0943 3.70206 99.3078 3.80512 99.5343 3.86871L101.477 4.41416C102.818 4.79058 103.373 6.38792 102.555 7.51483L99.9313 11.1282C99.2106 12.1208 99.5451 13.5224 100.636 14.0826L107.339 17.5233C108.152 17.9406 109.144 17.7471 109.741 17.0551C110.073 16.67 110.541 16.4275 111.047 16.378L111.662 16.3177C112.341 16.2512 112.939 15.8437 113.249 15.2363L116.04 9.76682C116.149 9.55364 116.219 9.32266 116.246 9.08487L116.675 5.33157C116.758 4.60493 117.522 4.16745 118.191 4.46371L118.796 4.73206C118.916 4.78515 118.982 4.91542 118.954 5.04337C118.882 5.36344 119.33 5.5173 119.471 5.22105L121.713 0.49361C121.881 0.141243 122.263 -0.0553984 122.647 0.0137422L123.384 0.146574ZM78.8412 95.1993C78.7293 95.2933 78.6618 95.4299 78.6553 95.5759L78.4185 100.867C78.4153 100.939 78.4224 101.011 78.4397 101.082C78.6293 101.853 79.7253 101.853 79.9148 101.082C79.9322 101.011 79.9393 100.939 79.936 100.866L79.6983 95.5754C79.6917 95.4297 79.6245 95.2934 79.5129 95.1995C79.3189 95.0362 79.0354 95.0362 78.8412 95.1993ZM78.7188 72.6365C78.6998 72.766 78.7365 72.8976 78.8199 72.9986C79.0052 73.2232 79.3493 73.2232 79.5347 72.9986C79.618 72.8976 79.6547 72.766 79.6357 72.6365C79.5583 72.1083 78.7963 72.1083 78.7188 72.6365ZM41.1332 55.374C41.0224 55.456 40.8858 55.4952 40.7484 55.4846L40.3272 55.4519C39.7683 55.4085 39.573 56.1773 40.0849 56.406C40.395 56.5444 40.4795 56.9453 40.2517 57.1971L38.4722 59.1643C38.0243 59.6594 37.3356 59.8601 36.6918 59.683C35.2846 59.2958 34.0407 60.6841 34.5795 62.0406L34.7034 62.3526C35.0524 63.2314 35.9853 63.7293 36.9096 63.5303L44.1895 61.9626C45.154 61.7549 45.823 60.8749 45.765 59.8899L45.534 55.9655C45.4406 54.3797 43.6248 53.5304 42.3478 54.4753L41.1332 55.374ZM112.59 59.8899C112.532 60.8749 113.201 61.7549 114.165 61.9626L121.445 63.5303C122.369 63.7293 123.302 63.2314 123.651 62.3526L123.775 62.0404C124.314 60.684 123.07 59.2958 121.663 59.6829C121.019 59.8601 120.33 59.6593 119.882 59.164L118.104 57.1971C117.876 56.9453 117.96 56.5444 118.271 56.406C118.783 56.1773 118.587 55.4085 118.028 55.4518L117.606 55.4846C117.469 55.4952 117.332 55.4559 117.221 55.3739L116.007 54.4753C114.73 53.5304 112.914 54.3797 112.821 55.9655L112.59 59.8899ZM79.0248 55.7846C78.7985 55.8663 78.6766 56.1119 78.7488 56.3414C78.8805 56.7604 79.4736 56.7601 79.6052 56.341C79.6771 56.1117 79.5556 55.8663 79.3296 55.7847C79.2312 55.7491 79.1233 55.7491 79.0248 55.7846ZM62.2648 51.5634C61.0781 52.2543 61.1353 53.9875 62.365 54.5986L64.3669 55.5937C65.3962 56.1053 66.5406 55.1436 66.2138 54.0416L66.1082 53.6853C65.8793 52.9133 66.5413 52.1698 67.3345 52.3077L63.5432 51.3788C63.1092 51.2724 62.651 51.3386 62.2648 51.5634ZM91.02 52.3077C91.8133 52.1698 92.4752 52.9133 92.2464 53.6853L92.1407 54.0416C91.814 55.1436 92.9583 56.1053 93.9876 55.5937L95.9896 54.5986C97.2192 53.9875 97.2764 52.2543 96.0897 51.5634C95.7036 51.3386 95.2453 51.2724 94.8114 51.3788L91.02 52.3077ZM70.0158 43.1094C69.4253 44.1428 69.8625 45.46 70.9537 45.9353L73.46 47.027C74.148 47.3266 74.8724 46.6856 74.6587 45.9663C74.6227 45.8451 74.6131 45.7175 74.6307 45.5923L75.5242 39.2247C75.5589 38.9776 75.6395 38.7391 75.762 38.5216L77.3691 35.6667C77.594 35.2672 77.6 34.7806 77.385 34.3756C76.888 33.4392 75.5538 33.4184 75.0278 34.3388L70.0158 43.1094ZM80.9686 34.3754C80.7536 34.7805 80.7597 35.2672 80.9847 35.6668L82.5924 38.5214C82.715 38.739 82.7957 38.9776 82.8304 39.2249L83.7238 45.5923C83.7414 45.7175 83.7319 45.8451 83.6959 45.9663C83.4822 46.6856 84.2066 47.3266 84.8945 47.027L87.4008 45.9354C88.492 45.4601 88.9291 44.1427 88.3385 43.1093L83.3258 34.3386C82.7998 33.4182 81.4656 33.439 80.9686 34.3754ZM78.5022 39.0211C78.4585 39.1034 78.4302 39.193 78.4187 39.2855L77.6022 45.8819C77.5108 46.6198 77.944 47.3222 78.6444 47.5719C78.989 47.6947 79.3655 47.6947 79.7102 47.5719C80.4106 47.3222 80.8437 46.6198 80.7524 45.8819L79.9358 39.2855C79.9244 39.193 79.8961 39.1034 79.8524 39.0211C79.5651 38.4798 78.7895 38.4798 78.5022 39.0211ZM35.8913 38.2125C36.451 39.3218 38.1336 38.7658 37.9221 37.5414C37.8444 37.0914 37.4923 36.7388 37.0425 36.6603C36.1665 36.5074 35.4907 37.4185 35.8913 38.2125ZM121.312 36.6603C120.862 36.7388 120.51 37.0914 120.432 37.5414C120.221 38.7658 121.904 39.3218 122.463 38.2125C122.864 37.4185 122.188 36.5074 121.312 36.6603ZM79.0842 31.7524C78.9532 31.8079 78.8996 31.9651 78.9694 32.0892C79.0607 32.2511 79.2939 32.2511 79.3851 32.0892C79.455 31.9651 79.4014 31.8079 79.2703 31.7524C79.2109 31.7272 79.1437 31.7272 79.0842 31.7524ZM76.9319 31.0081C76.809 31.2227 77.0324 31.4692 77.2581 31.3679C77.4615 31.2766 77.4583 30.9867 77.253 30.8998C77.134 30.8495 76.9962 30.896 76.9319 31.0081ZM81.1014 30.8998C80.8958 30.9867 80.8925 31.2768 81.0962 31.3682C81.3218 31.4695 81.5453 31.2231 81.4226 31.0083C81.3584 30.8961 81.2205 30.8495 81.1014 30.8998ZM77.0329 17.387C76.4144 17.5896 75.9332 18.0804 75.7428 18.7027L75.1875 20.5182C75.1296 20.7076 75.1001 20.9045 75.1 21.1025L75.0977 27.3791C75.0974 28.167 75.5597 28.8816 76.2784 29.2043L78.358 30.1381C78.8791 30.3721 79.4754 30.3721 79.9965 30.1381L82.076 29.2044C82.7948 28.8816 83.2571 28.1669 83.2567 27.3789L83.2536 21.1021C83.2535 20.9043 83.2241 20.7077 83.1663 20.5186L82.6116 18.7031C82.4213 18.0805 81.94 17.5895 81.3213 17.3869L79.7998 16.8886C79.3953 16.7561 78.9592 16.7561 78.5548 16.8886L77.0329 17.387ZM61.3338 26.3497C61.31 27.1363 61.9348 27.7902 62.7218 27.8022C63.7236 27.8174 64.4213 26.8121 64.0565 25.8789C63.4976 24.4493 61.3802 24.8155 61.3338 26.3497ZM94.2981 25.8789C93.9333 26.8121 94.6309 27.8174 95.6328 27.8022C96.4197 27.7902 97.0445 27.1363 97.0207 26.3497C96.9743 24.8155 94.857 24.4493 94.2981 25.8789ZM26.3505 10.094C25.4401 10.1541 25.0169 11.2523 25.6517 11.9077C26.1126 12.3837 26.8907 12.3311 27.2835 11.7976C27.8234 11.064 27.2594 10.0341 26.3505 10.094ZM131.071 11.7976C131.464 12.3311 132.242 12.3837 132.703 11.9077C133.338 11.2523 132.914 10.1541 132.004 10.094C131.095 10.0341 130.531 11.064 131.071 11.7976Z" fill="var(--fill-0, black)"/>
</svg>
