<svg preserveAspectRatio="none" width="100%" height="100%" overflow="visible" style="display: block;" viewBox="0 0 750.001 549.833" fill="none" xmlns="http://www.w3.org/2000/svg">
<g id="Group 13">
<g id="Mask group">
<mask id="mask0_0_17" style="mask-type:alpha" maskUnits="userSpaceOnUse" x="0" y="0" width="751" height="550">
<path id="Union" d="M606.647 0.768593C610.585 1.47799 613.679 4.541 614.427 8.47171L619.655 35.9371C620.479 40.2697 623.927 43.6231 628.281 44.3272L661.604 49.7163C671.088 51.25 673.687 63.6691 665.614 68.8775L635.144 88.5365C631.666 90.7809 629.833 94.8617 630.467 98.9526L641.747 171.748C642.14 174.283 641.589 176.875 640.2 179.032L635.929 185.662C634.447 187.962 633.923 190.751 634.469 193.432L652.667 282.804C652.865 283.774 653.199 284.712 653.659 285.588L691.398 357.425C692.051 358.667 692.946 359.765 694.03 360.655L732.584 392.282C733.323 392.888 734.196 393.309 735.13 393.509C741.866 394.956 741.25 404.76 734.386 405.352L733.389 405.438C732.528 405.512 731.668 405.292 730.949 404.814C727.065 402.232 722.828 407.545 726.21 410.757L731.232 415.525C731.539 415.817 731.887 416.064 732.265 416.257L742.468 421.461C745.504 423.01 747.486 426.057 747.67 429.46L749.995 472.316C750.197 476.053 744.962 477.115 743.692 473.595C743.507 473.08 743.194 472.621 742.784 472.259L674.682 412.241C671.695 409.609 667.123 409.967 664.582 413.032C662.48 415.569 662.412 419.223 664.419 421.836L669.459 428.395C671.254 430.731 671.983 433.715 671.468 436.616L662.51 487.061C661.425 493.173 653.808 495.397 649.605 490.827L647.236 488.253C645.472 486.335 645.767 483.309 647.869 481.769C649.723 480.409 650.207 477.845 648.976 475.904L624.068 436.618C619.849 429.963 610.071 430.166 606.132 436.99L578.167 485.437C577.269 486.993 577.238 488.903 578.085 490.487C579.509 493.151 578.371 496.463 575.611 497.689L565.189 502.319C560.608 504.354 555.23 502.587 552.749 498.232C551.052 495.252 551.044 491.599 552.728 488.612L603.96 397.727C605.292 395.363 605.528 392.535 604.605 389.983C602.249 383.466 593.856 381.71 589.085 386.735L579.253 397.091C577.662 398.767 575.561 399.87 573.278 400.23L527.109 407.492C524.076 407.969 521.747 410.431 521.44 413.485L517.779 413.501C513.295 413.52 510.075 417.823 511.321 422.131L511.49 422.715C512.858 427.442 508.603 431.88 503.822 430.712L500.592 429.923C499.925 429.76 499.431 429.198 499.354 428.515C499.142 426.634 496.437 426.552 496.112 428.418L495.741 430.551C495.524 431.798 494.193 432.51 493.035 431.999L470.994 422.265C469.894 421.78 468.718 421.487 467.519 421.399L438.983 419.325C430.724 418.724 425.061 427.484 428.999 434.768L434.007 444.034C435.388 446.587 435.648 449.598 434.726 452.35L425.874 478.776C424.969 481.477 425.202 484.431 426.52 486.957L451.576 534.974C454.575 540.722 451.494 547.77 445.238 549.471C442.025 550.344 438.588 549.587 436.04 547.445L406.367 522.507C401.288 518.238 393.723 523.004 395.38 529.428C396.104 532.235 394.974 535.193 392.563 536.802L378.537 546.159C378.056 546.48 377.828 547.067 377.966 547.628C378.265 548.842 376.915 549.79 375.874 549.096L375.788 549.038C375.314 548.722 374.696 548.722 374.222 549.038L374.134 549.097C373.091 549.793 371.735 548.843 372.035 547.624C372.173 547.062 371.944 546.473 371.462 546.152L357.435 536.793C355.025 535.185 353.896 532.23 354.619 529.425C356.275 523.004 348.715 518.242 343.639 522.508L313.961 547.452C311.412 549.594 307.975 550.351 304.763 549.477C298.507 547.776 295.425 540.728 298.424 534.981L323.48 486.963C324.798 484.437 325.032 481.483 324.127 478.782L315.275 452.357C314.353 449.605 314.613 446.594 315.993 444.041L321.002 434.775C324.939 427.49 319.276 418.73 311.017 419.331L282.482 421.406C281.282 421.493 280.107 421.786 279.007 422.272L256.966 432.005C255.807 432.516 254.477 431.804 254.259 430.557L253.888 428.423C253.563 426.558 250.859 426.64 250.647 428.521C250.57 429.204 250.075 429.766 249.408 429.929L246.178 430.718C241.398 431.887 237.142 427.449 238.51 422.721L238.679 422.137C239.926 417.83 236.705 413.527 232.221 413.508L228.56 413.492C228.253 410.438 225.924 407.976 222.892 407.499L176.722 400.235C174.439 399.876 172.339 398.773 170.748 397.097L160.916 386.742C156.145 381.716 147.752 383.472 145.396 389.989C144.473 392.541 144.709 395.368 146.042 397.733L197.273 488.617C198.957 491.605 198.949 495.258 197.251 498.238C194.77 502.593 189.393 504.361 184.812 502.326L174.391 497.696C171.63 496.47 170.492 493.157 171.916 490.493C172.763 488.909 172.732 486.999 171.834 485.443L143.868 436.996C139.929 430.172 130.152 429.969 125.932 436.623L101.025 475.909C99.7932 477.851 100.277 480.415 102.132 481.775C104.233 483.316 104.528 486.342 102.764 488.26L100.396 490.834C96.1926 495.403 88.5755 493.18 87.4901 487.067L78.5325 436.623C78.0173 433.722 78.7465 430.738 80.5416 428.402L85.5809 421.843C87.5884 419.23 87.5207 415.576 85.418 413.039C82.8771 409.974 78.3051 409.616 75.318 412.248L7.2165 472.265C6.80615 472.627 6.4937 473.086 6.30812 473.601C5.0382 477.121 -0.19696 476.059 0.00572861 472.322L2.32997 429.467C2.51453 426.064 4.49646 423.017 7.5322 421.468L17.735 416.263C18.1129 416.071 18.4611 415.824 18.7688 415.532L23.7905 410.763C27.1725 407.552 22.9363 402.239 19.0523 404.821C18.3332 405.299 17.4731 405.519 16.6128 405.445L15.6143 405.359C8.75009 404.767 8.13435 394.962 14.8705 393.516C15.8048 393.316 16.6776 392.895 17.4163 392.289L55.9701 360.661C57.0546 359.771 57.9496 358.673 58.6021 357.431L96.3411 285.595C96.8016 284.718 97.1356 283.781 97.3332 282.811L115.531 193.439C116.077 190.758 115.554 187.969 114.072 185.669L109.8 179.037C108.411 176.881 107.861 174.289 108.254 171.754L119.533 98.9594C120.167 94.8685 118.335 90.7877 114.856 88.5434L84.3859 68.8836C76.3134 63.6752 78.913 51.2561 88.3967 49.7225L121.719 44.3339C126.073 43.6299 129.521 40.2765 130.346 35.9438L135.573 8.478C136.322 4.54708 139.415 1.48399 143.353 0.774822L147.219 0.0787883C149.231 -0.283584 151.237 0.747386 152.113 2.59473L163.87 27.3782C164.607 28.9314 166.955 28.1247 166.582 26.4466C166.433 25.7757 166.778 25.0927 167.406 24.8143L170.582 23.4076C174.087 21.8547 178.093 24.1483 178.529 27.9577L180.778 47.6343C180.92 48.881 181.285 50.092 181.856 51.2096L197.585 82.0309C198.569 83.959 200.125 85.5353 202.041 86.5435L221.273 96.6646C225.677 98.9822 231.103 97.8849 234.26 94.0383L250.233 74.5793C252.76 71.5003 253.324 67.2551 251.689 63.6228L239.404 36.332C236.584 30.0686 240.448 22.8309 247.221 21.6887L260.282 19.4861C262.635 19.0893 265.053 19.507 267.136 20.6703L369.882 78.0323C373.059 79.8057 376.928 79.8058 380.104 78.0323L482.864 20.6642C484.948 19.5011 487.366 19.0834 489.719 19.4801L502.779 21.6822C509.552 22.8243 513.416 30.062 510.597 36.3255L498.311 63.6169C496.676 67.2493 497.24 71.4944 499.768 74.5734L515.74 94.0317C518.897 97.8782 524.324 98.9754 528.728 96.6578L547.96 86.5366C549.875 85.5285 551.432 83.9522 552.416 82.0241L568.144 51.2038C568.715 50.0861 569.08 48.8751 569.223 47.6284L571.472 27.9515C571.907 24.1419 575.913 21.8483 579.419 23.4015L582.595 24.8085C583.223 25.0868 583.568 25.7697 583.418 26.4405C583.045 28.1185 585.393 28.9251 586.13 27.372L597.887 2.5879C598.764 0.740579 600.769 -0.290318 602.782 0.0721877L606.647 0.768593ZM373.679 529.961C373.673 530.087 373.685 530.214 373.716 530.337C374.045 531.678 375.955 531.684 376.285 530.342C376.315 530.22 376.327 530.093 376.322 529.967L374.999 500.547L373.679 529.961ZM228.56 413.492L228.679 414.68C228.779 415.671 227.791 416.413 226.867 416.042C225.511 415.498 225.905 413.481 227.366 413.487L228.56 413.492ZM523.133 416.036C522.209 416.407 521.221 415.664 521.32 414.673L521.44 413.485L522.634 413.48C524.095 413.474 524.489 415.491 523.133 416.036ZM258.7 315.947C259.138 317.359 259.04 318.884 258.423 320.228L255.965 325.582C253.628 330.676 256.911 336.574 262.472 337.27C266.686 337.798 269.82 341.425 269.732 345.671L269.075 377.406C268.988 381.627 265.887 385.178 261.716 385.832C255.01 386.885 252.031 394.863 256.406 400.053L258.368 402.381C261.829 406.486 267.842 407.292 272.262 404.242L308.378 379.319C313.326 375.904 314.396 369.036 310.72 364.278L269.171 310.502C265.085 305.213 256.716 309.565 258.7 315.947ZM439.281 364.272C435.605 369.029 436.674 375.897 441.623 379.312L477.739 404.235C482.158 407.285 488.171 406.48 491.632 402.374L493.595 400.046C497.97 394.856 494.99 386.878 488.284 385.826C484.114 385.172 481.013 381.621 480.925 377.401L480.268 345.664C480.18 341.418 483.315 337.792 487.529 337.264C493.09 336.568 496.373 330.67 494.035 325.577L491.577 320.221C490.961 318.877 490.862 317.353 491.301 315.94C493.284 309.558 484.915 305.206 480.829 310.495L439.281 364.272ZM370.087 380.474C369.883 381.861 370.276 383.271 371.168 384.353C373.153 386.76 376.845 386.756 378.83 384.349C379.723 383.267 380.117 381.855 379.914 380.467C379.083 374.807 370.917 374.814 370.087 380.474ZM363.466 293.256C361.405 296.937 361.751 301.494 364.344 304.822L366.726 307.88C370.924 313.268 379.071 313.268 383.269 307.88L385.656 304.816C388.249 301.488 388.595 296.931 386.534 293.25L384.15 288.993C380.147 281.842 369.856 281.842 365.853 288.993L363.466 293.256ZM269.301 270.292C265.667 271.83 265.475 276.906 268.981 278.715L287.021 288.021C295.229 292.255 304.506 284.576 301.881 275.722L301.323 273.843L310.24 275.012L301.618 273.512C301.427 273.479 301.269 273.658 301.323 273.843L271.719 269.964C270.898 269.856 270.063 269.97 269.301 270.292ZM448.676 273.837C448.731 273.651 448.572 273.473 448.381 273.506L439.76 275.006L448.676 273.837L448.119 275.715C445.494 284.57 454.77 292.248 462.978 288.014L481.02 278.708C484.526 276.9 484.333 271.823 480.699 270.286C479.937 269.964 479.103 269.851 478.282 269.958L448.676 273.837ZM366.48 130.589C365.82 132.75 366.005 135.081 367 137.11L369.081 141.358C371.22 145.724 368.069 150.84 363.209 150.967C361.739 151.005 360.314 151.542 359.189 152.488C355.53 155.567 356.345 161.412 360.708 163.371L363.835 164.776C368.393 166.823 370.269 172.297 367.926 176.71L352.996 204.827C352.397 205.957 352.008 207.187 351.851 208.456L347.815 241.06C347.129 246.603 350.908 251.711 356.41 252.676L373.172 255.615C374.37 255.825 375.595 255.825 376.793 255.615L393.591 252.67C399.092 251.705 402.872 246.597 402.185 241.054L398.149 208.45C397.992 207.18 397.604 205.95 397.004 204.82L382.072 176.7C379.73 172.29 381.606 166.818 386.161 164.771L389.292 163.365C393.65 161.408 394.464 155.569 390.809 152.493C389.685 151.548 388.262 151.012 386.794 150.974C381.934 150.846 378.781 145.73 380.92 141.364L383 137.118C383.995 135.088 384.18 132.756 383.52 130.594C380.952 122.187 369.048 122.182 366.48 130.589ZM133.881 243.325C133.099 249.496 137.83 254.987 144.048 255.127L152.236 255.31C158.139 255.443 162.987 250.677 162.956 244.772L162.843 223.544C162.83 221.211 162.04 218.949 160.597 217.115L155.941 211.199C150.188 203.888 138.47 207.135 137.3 216.365L133.881 243.325ZM589.403 217.109C587.96 218.942 587.17 221.204 587.158 223.537L587.045 244.766C587.013 250.67 591.862 255.437 597.765 255.304L605.953 255.12C612.172 254.981 616.902 249.49 616.12 243.319L612.701 216.357C611.531 207.127 599.813 203.881 594.059 211.192L589.403 217.109ZM305.543 231.274C301.796 237.806 305.952 246.041 313.432 246.907L325.072 248.254C331.256 248.969 336.698 244.17 336.762 237.945L337.07 207.683C337.088 205.916 337.552 204.183 338.419 202.644L353.896 175.166C355.951 171.518 354.373 166.894 350.516 165.264C347.25 163.883 343.466 165.158 341.702 168.234L305.543 231.274ZM399.484 165.258C395.627 166.888 394.049 171.512 396.104 175.16L411.581 202.637C412.448 204.176 412.912 205.91 412.93 207.676L413.239 237.938C413.302 244.163 418.744 248.962 424.929 248.247L436.568 246.9C444.049 246.034 448.205 237.799 444.458 231.267L408.299 168.228C406.534 165.152 402.751 163.877 399.484 165.258ZM261.007 220.196C260.338 220.995 260.069 222.054 260.276 223.075C261.062 226.966 266.73 226.631 267.052 222.674C267.323 219.342 263.152 217.633 261.007 220.196ZM482.948 222.667C483.27 226.624 488.938 226.96 489.725 223.068C489.931 222.047 489.662 220.988 488.994 220.189C486.848 217.626 482.677 219.335 482.948 222.667ZM339.504 144.158C336.923 148.081 338.468 153.382 342.751 155.306C347.103 157.26 352.16 154.785 353.287 150.149C355.307 141.834 344.206 137.008 339.504 144.158ZM396.709 150.142C397.836 154.779 402.895 157.255 407.247 155.3C411.532 153.375 413.076 148.073 410.495 144.149C405.792 136.998 394.688 141.825 396.709 150.142ZM257.723 105.734C253.201 107.654 252.669 113.85 256.797 116.513L258.851 117.838C261.156 119.325 262.452 121.962 262.221 124.694L260.924 140.06C260.464 145.499 265.271 149.905 270.65 148.974C275.847 148.076 278.913 142.637 276.993 137.726L265.817 109.14C264.561 105.927 260.899 104.386 257.723 105.734ZM473.008 137.719C471.087 142.631 474.154 148.069 479.35 148.967C484.729 149.898 489.536 145.492 489.077 140.053L487.779 124.688C487.549 121.955 488.845 119.318 491.149 117.831L493.203 116.506C497.331 113.843 496.799 107.648 492.277 105.727C489.102 104.379 485.44 105.92 484.183 109.133L473.008 137.719ZM98.164 52.9251C93.3909 53.2397 91.1722 58.9974 94.5001 62.4336C96.9166 64.9288 100.996 64.6532 103.055 61.8558C105.886 58.0102 102.929 52.611 98.164 52.9251ZM646.945 61.8492C649.004 64.6466 653.084 64.9222 655.5 62.4272C658.828 58.9912 656.61 53.2335 651.837 52.9187C647.072 52.6045 644.115 58.0036 646.945 61.8492Z" fill="var(--fill-0, black)"/>
</mask>
<g mask="url(#mask0_0_17)">
<g id="Group 13_2">
<g id="Ellipse 5" filter="url(#filter0_f_0_17)">
<ellipse cx="786.924" cy="245.649" rx="268.904" ry="147.331" fill="var(--fill-0, #FA7443)"/>
</g>
<g id="Ellipse 7" filter="url(#filter1_f_0_17)">
<ellipse cx="516.106" cy="-3.70827" rx="149.053" ry="119.409" fill="var(--fill-0, #3246F9)"/>
</g>
<g id="Ellipse 9" filter="url(#filter2_f_0_17)">
<ellipse cx="363.97" cy="458.844" rx="175.147" ry="214.106" fill="var(--fill-0, #583FA7)"/>
</g>
<g id="Ellipse 6" filter="url(#filter3_f_0_17)">
<ellipse cx="-60.5366" cy="245.649" rx="245.291" ry="147.331" fill="var(--fill-0, #FA7443)"/>
</g>
<g id="Ellipse 8" filter="url(#filter4_f_0_17)">
<ellipse cx="228.193" cy="-3.70827" rx="149.053" ry="119.409" fill="var(--fill-0, #3246F9)"/>
</g>
</g>
</g>
</g>
</g>
<defs>
<filter id="filter0_f_0_17" x="396.105" y="-23.5968" width="781.639" height="538.491" filterUnits="userSpaceOnUse" color-interpolation-filters="sRGB">
<feFlood flood-opacity="0" result="BackgroundImageFix"/>
<feBlend mode="normal" in="SourceGraphic" in2="BackgroundImageFix" result="shape"/>
<feGaussianBlur stdDeviation="60.9576" result="effect1_foregroundBlur_0_17"/>
</filter>
<filter id="filter1_f_0_17" x="288.188" y="-201.983" width="455.838" height="396.55" filterUnits="userSpaceOnUse" color-interpolation-filters="sRGB">
<feFlood flood-opacity="0" result="BackgroundImageFix"/>
<feBlend mode="normal" in="SourceGraphic" in2="BackgroundImageFix" result="shape"/>
<feGaussianBlur stdDeviation="39.433" result="effect1_foregroundBlur_0_17"/>
</filter>
<filter id="filter2_f_0_17" x="66.9083" y="122.824" width="594.123" height="672.042" filterUnits="userSpaceOnUse" color-interpolation-filters="sRGB">
<feFlood flood-opacity="0" result="BackgroundImageFix"/>
<feBlend mode="normal" in="SourceGraphic" in2="BackgroundImageFix" result="shape"/>
<feGaussianBlur stdDeviation="60.9576" result="effect1_foregroundBlur_0_17"/>
</filter>
<filter id="filter3_f_0_17" x="-427.743" y="-23.5968" width="734.413" height="538.491" filterUnits="userSpaceOnUse" color-interpolation-filters="sRGB">
<feFlood flood-opacity="0" result="BackgroundImageFix"/>
<feBlend mode="normal" in="SourceGraphic" in2="BackgroundImageFix" result="shape"/>
<feGaussianBlur stdDeviation="60.9576" result="effect1_foregroundBlur_0_17"/>
</filter>
<filter id="filter4_f_0_17" x="0.274149" y="-201.983" width="455.838" height="396.55" filterUnits="userSpaceOnUse" color-interpolation-filters="sRGB">
<feFlood flood-opacity="0" result="BackgroundImageFix"/>
<feBlend mode="normal" in="SourceGraphic" in2="BackgroundImageFix" result="shape"/>
<feGaussianBlur stdDeviation="39.433" result="effect1_foregroundBlur_0_17"/>
</filter>
</defs>
</svg>
