<svg preserveAspectRatio="none" width="100%" height="100%" overflow="visible" style="display: block;" viewBox="0 0 156.679 107.886" fill="none" xmlns="http://www.w3.org/2000/svg">
<path id="Union" d="M88.9441 1.64258C89.11 1.859 89.1296 2.15398 88.9938 2.39046L88.3813 3.4564C88.1547 3.85079 88.6298 4.27341 88.9951 4.00236C89.1303 3.90203 89.3124 3.89224 89.4576 3.97751L91.041 4.90741C91.6783 5.28171 92.0573 5.97699 92.0264 6.71546L91.9205 9.25121C91.884 10.1258 91.2712 10.8699 90.4198 11.0734C89.5388 11.284 88.9174 12.0715 88.9174 12.9773V13.9092C88.9174 14.7306 89.4196 15.4685 90.1837 15.7698L93.4264 17.0485C94.1905 17.3498 94.6927 18.0877 94.6927 18.909V30.1859C94.6927 30.9042 94.3076 31.5673 93.6836 31.9232L91.4277 33.2098C90.8169 33.5582 90.4436 34.2107 90.4528 34.9138L90.4602 35.4799C90.4667 35.9731 90.7879 36.4068 91.2577 36.5569C91.5486 36.6498 91.8647 36.6228 92.1356 36.4818L102.723 30.9731C103.113 30.7702 103.565 31.1054 103.485 31.5375C103.386 32.0702 104.058 32.3882 104.407 31.9736L105.871 30.2339C106.238 29.7969 106.944 30.1566 106.807 30.7109L106.766 30.8726C106.639 31.3844 107.289 31.7186 107.632 31.3177L108.852 29.8895C108.994 29.7235 109.259 29.8842 109.178 30.0868C109.096 30.2902 109.363 30.4508 109.504 30.2829L112.175 27.1044L109.718 30.7682C109.446 31.1726 109.886 31.6749 110.323 31.4594C110.833 31.2079 111.274 31.9008 110.831 32.2566L107.691 34.7764C107.287 35.1004 107.232 35.6946 107.57 36.0873L108.224 36.8482C108.545 37.2222 109 37.4554 109.491 37.4979L113.563 37.85C113.714 37.8631 113.866 37.8309 113.999 37.7574C114.723 37.3579 115.479 38.2294 114.981 38.8894L114.755 39.1897C114.626 39.3609 114.437 39.4766 114.226 39.5138L103.832 41.3413C103.371 41.4223 102.953 41.6626 102.651 42.0202L101.646 43.2089C101.201 43.7361 101.059 44.4559 101.27 45.113L101.787 46.7154C101.857 46.9331 101.85 47.1682 101.769 47.3818C101.406 48.3316 102.522 49.1574 103.324 48.5334L104.73 47.4403C105.209 47.0678 105.865 47.0199 106.393 47.3189L106.85 47.5781C108.279 48.3875 108.039 50.5153 106.466 50.9855L106.097 51.0958C105.497 51.2749 105.096 51.8379 105.121 52.4631L105.14 52.9302C105.16 53.4025 105.548 53.7753 106.021 53.7753C106.894 53.7753 107.236 54.9078 106.509 55.3908L103.318 57.5111C103.3 57.5232 103.277 57.5265 103.256 57.5202C103.229 57.512 103.2 57.52 103.181 57.5408L103.011 57.7269C102.925 57.8209 102.88 57.9458 102.888 58.0731L103 60.055C103.032 60.6199 103.588 61.003 104.127 60.8317C104.415 60.7403 104.729 60.8052 104.957 61.0029L107.184 62.9348C107.513 63.2206 107.935 63.3779 108.371 63.3779C109.413 63.3779 110.24 62.5002 110.179 61.4597L109.802 55.1113C109.772 54.5915 109.945 54.0802 110.285 53.6861L114.942 48.2909C115.092 48.1171 115.27 47.9705 115.47 47.8573L132.797 38.0467C133.097 37.8765 133.437 37.7871 133.782 37.7871H154.676C156.353 37.7871 157.285 39.7274 156.237 41.0368L148.743 50.3999C148.567 50.6197 148.347 50.7999 148.096 50.9287L139.265 55.471C138.722 55.7502 138.337 56.2622 138.218 56.8612L136.836 63.8452C136.727 64.3952 136.007 64.5386 135.696 64.0724C135.463 63.7246 134.963 63.6963 134.693 64.0157L130.057 69.4992C129.677 69.9487 129.118 70.208 128.529 70.208H123.578C123.113 70.208 122.663 70.37 122.304 70.6662L114.422 77.1791C113.547 77.9017 112.219 77.4791 111.922 76.3841L111.738 75.7035C111.648 75.3712 111.333 75.1504 110.99 75.1788L110.861 75.1895C110.345 75.2322 110.087 75.8352 110.412 76.238C110.856 76.7869 110.223 77.5476 109.603 77.2104L109.262 77.0253C108.662 76.6991 107.986 77.3108 108.251 77.9402L108.999 79.7146C109.017 79.7584 109.046 79.7971 109.082 79.8275L109.787 80.4155C109.982 80.5777 109.774 80.8812 109.553 80.7591C109.462 80.7094 109.349 80.7329 109.286 80.8144L108.595 81.7081C108.52 81.8052 108.522 81.9413 108.6 82.0363L108.678 82.1319C108.87 82.3663 108.56 82.677 108.325 82.4856L108.145 82.3388C108.133 82.3287 108.114 82.3309 108.105 82.3437C108.096 82.3549 108.081 82.3582 108.069 82.3515L105.53 80.9582C105.489 80.9357 105.442 80.9254 105.396 80.9285C105.227 80.9395 105.119 81.114 105.186 81.2698L105.425 81.8318C105.704 82.4897 104.909 83.0776 104.362 82.6167L102.927 81.4061C102.704 81.2182 102.417 81.124 102.126 81.1431L101.311 81.1969C100.776 81.2323 100.36 81.6768 100.36 82.2132C100.36 82.5388 100.515 82.8448 100.779 83.0365L103.916 85.3222L100.528 83.4222C100.452 83.38 100.36 83.4343 100.36 83.5204C100.36 83.5487 100.37 83.576 100.39 83.5968L103.21 86.6618C103.245 86.6988 103.209 86.7575 103.16 86.7442C103.111 86.7307 103.075 86.7919 103.112 86.8283L103.584 87.298C103.721 87.4339 103.636 87.6676 103.444 87.6839L100.08 87.9694C99.1535 88.048 98.4418 88.8226 98.4418 89.752V90.6924C98.4418 91.3416 98.7569 91.9504 99.2869 92.3252L107.703 98.278C108.65 98.948 108.83 100.281 108.095 101.178L107.79 101.551C107.174 102.304 107.188 103.39 107.823 104.126L111.069 107.886L106.312 103.556C105.699 102.998 105.623 102.061 106.137 101.411C106.724 100.671 106.533 99.5859 105.73 99.0903L96.7578 93.5547C96.4985 93.3947 96.206 93.296 95.9027 93.2663L94.4985 93.1287C93.9395 93.074 93.5674 92.5251 93.7236 91.9855C93.8058 91.7017 93.743 91.3956 93.5558 91.167L92.177 89.4832C91.768 88.9837 91.1397 88.7168 90.4961 88.7694L89.4687 88.8532C88.7617 88.9109 88.2847 89.6017 88.4814 90.2833C88.5235 90.4295 88.595 90.5655 88.6913 90.6832L94.9746 98.3589C95.1658 98.5925 95.4567 98.721 95.7581 98.705C96.3688 98.6726 96.8499 99.2186 96.7408 99.8204L95.5506 106.386C95.3959 107.239 94.6231 107.838 93.7584 107.775L92.2129 107.663C91.2101 107.59 90.8234 106.321 91.6155 105.701C91.9254 105.459 92.0822 105.069 92.0264 104.68L91.5335 101.24C91.4775 100.849 91.3071 100.484 91.0437 100.189L82.819 91.0043C82.5178 90.6678 82.0993 90.4592 81.6493 90.421C80.8864 90.3562 80.1683 90.7891 79.8692 91.494L78.5582 94.584C78.5484 94.6071 78.5433 94.6321 78.5433 94.6573V95.2264C78.5433 95.3046 78.4359 95.3261 78.4053 95.2541C78.3806 95.196 78.2981 95.1959 78.2735 95.254C78.2431 95.3259 78.1361 95.3042 78.1361 95.2262V94.6571C78.1361 94.632 78.1311 94.6072 78.1212 94.5841L76.8094 91.4938C76.5103 90.789 75.7921 90.3562 75.0292 90.421C74.5792 90.4592 74.1607 90.6679 73.8594 91.0044L65.6357 100.189C65.3723 100.484 65.2019 100.849 65.1459 101.24L64.6531 104.68C64.5973 105.069 64.754 105.459 65.064 105.701C65.856 106.321 65.4693 107.59 64.4665 107.663L62.921 107.775C62.0564 107.838 61.2835 107.239 61.1289 106.386L59.9387 99.8204C59.8296 99.2186 60.3106 98.6726 60.9213 98.705C61.2227 98.721 61.5137 98.5924 61.7048 98.3589L67.9872 90.6832C68.0835 90.5655 68.1549 90.4295 68.1971 90.2834C68.3937 89.6018 67.9168 88.9109 67.2097 88.8532L66.1823 88.7694C65.5388 88.7168 64.9105 88.9837 64.5014 89.4832L63.1227 91.1669C62.9355 91.3956 62.8728 91.7017 62.9551 91.9855C63.1116 92.525 62.7397 93.074 62.1807 93.1287L60.7759 93.2663C60.4725 93.296 60.18 93.3947 59.9206 93.5548L50.9498 99.0903C50.1466 99.5859 49.9558 100.671 50.542 101.411C51.0568 102.061 50.9805 102.999 50.3674 103.556L45.6107 107.886L48.8565 104.126C49.4918 103.39 49.5058 102.304 48.8898 101.551L48.5841 101.178C47.849 100.281 48.0293 98.948 48.9764 98.278L57.3926 92.3252C57.9226 91.9504 58.2377 91.3416 58.2377 90.6924V89.7528C58.2377 88.8229 57.5256 88.0479 56.5991 87.9693L53.2349 87.6838C53.0429 87.6675 52.958 87.4341 53.0945 87.2982L53.5672 86.8279C53.6036 86.7917 53.5683 86.7307 53.5187 86.7442C53.4703 86.7574 53.4347 86.699 53.4687 86.662L56.2899 83.5968C56.3091 83.576 56.3197 83.5487 56.3197 83.5204C56.3197 83.4343 56.227 83.38 56.1519 83.4222L52.7631 85.3222L55.9009 83.0365C56.164 82.8448 56.3197 82.5388 56.3197 82.2132C56.3197 81.6768 55.9036 81.2323 55.3682 81.197L54.5524 81.1431C54.2615 81.124 53.9745 81.2183 53.7517 81.4062L52.3171 82.6165C51.7705 83.0776 50.9744 82.4898 51.254 81.8317L51.4932 81.269C51.5592 81.1136 51.4521 80.9395 51.2836 80.9285C51.237 80.9254 51.1905 80.9357 51.1496 80.9582L48.6109 82.3514C48.5984 82.3582 48.5828 82.355 48.5741 82.3437C48.5642 82.3309 48.5456 82.3287 48.5331 82.339L48.356 82.4835C48.1211 82.6752 47.8104 82.3642 48.0023 82.1295L48.0786 82.0362C48.1563 81.9413 48.1581 81.8052 48.0831 81.7081L47.392 80.8143C47.329 80.7329 47.2161 80.7094 47.1259 80.7591C46.9043 80.8813 46.6969 80.5778 46.8912 80.4157L47.5963 79.8275C47.6327 79.7971 47.6613 79.7584 47.6798 79.7146L48.427 77.9403C48.6921 77.3109 48.0163 76.6992 47.4164 77.0255L47.0763 77.2104C46.4562 77.5476 45.8226 76.787 46.2663 76.238C46.5919 75.8352 46.334 75.2322 45.8177 75.1895L45.6892 75.1788C45.3461 75.1504 45.0317 75.3711 44.9417 75.7034L44.7574 76.3841C44.4609 77.4791 43.132 77.9017 42.2575 77.1791L34.3752 70.6662C34.0168 70.37 33.5663 70.208 33.1013 70.208H28.1501C27.5616 70.208 27.0028 69.9487 26.6228 69.4992L21.9869 64.0157C21.7168 63.6963 21.216 63.7246 20.9837 64.0724C20.6723 64.5386 19.9526 64.3952 19.8438 63.8452L18.4615 56.8612C18.3429 56.2622 17.9573 55.7502 17.4143 55.471L8.58326 50.9287C8.3329 50.7999 8.11255 50.6197 7.93662 50.3999L0.442328 41.0368C-0.605763 39.7274 0.326513 37.7871 2.00376 37.7871H22.8973C23.2427 37.7871 23.5822 37.8765 23.8827 38.0467L41.2092 47.8573C41.409 47.9705 41.5878 48.1171 41.7378 48.2909L46.3946 53.6861C46.7348 54.0802 46.9079 54.5915 46.8771 55.1113L46.5008 61.4597C46.4391 62.5002 47.2663 63.3779 48.3086 63.3779C48.7447 63.3779 49.1661 63.2206 49.4954 62.9348L51.7222 61.0029C51.9502 60.8052 52.2647 60.7403 52.5523 60.8317C53.0916 61.003 53.6477 60.6199 53.6797 60.055L53.7918 58.0733C53.799 57.9459 53.7544 57.8209 53.6681 57.7269L53.497 57.5403C53.4782 57.5198 53.4492 57.512 53.4227 57.5202C53.402 57.5265 53.3796 57.5233 53.3616 57.5113L50.1703 55.3906C49.4436 54.9077 49.7855 53.7753 50.6581 53.7753C51.1309 53.7753 51.5195 53.4023 51.5387 52.9299L51.5577 52.4626C51.5831 51.8377 51.1816 51.275 50.5823 51.0959L50.2136 50.9857C48.6402 50.5154 48.3999 48.3876 49.8288 47.5783L50.2866 47.319C50.8146 47.02 51.4706 47.0679 51.9496 47.4404L53.3545 48.5333C54.157 49.1575 55.2729 48.3317 54.9105 47.3818C54.829 47.1681 54.8228 46.9331 54.8929 46.7154L55.4091 45.113C55.6207 44.4559 55.4786 43.7361 55.033 43.2089L54.0286 42.0202C53.7264 41.6626 53.3084 41.4223 52.8473 41.3413L42.4538 39.5138C42.2427 39.4766 42.0536 39.3609 41.9246 39.1897L41.6981 38.8894C41.2004 38.2294 41.9564 37.3579 42.6801 37.7574C42.8131 37.8309 42.965 37.8631 43.1164 37.85L47.1881 37.4979C47.6794 37.4554 48.1344 37.2222 48.4558 36.8482L49.1097 36.0873C49.4472 35.6946 49.3922 35.1004 48.9883 34.7764L45.8485 32.2566C45.4052 31.9008 45.8468 31.2079 46.3565 31.4594C46.7932 31.6749 47.2331 31.1726 46.9618 30.7682L44.5043 27.1044L47.1754 30.2829C47.3165 30.4508 47.5838 30.2902 47.5018 30.0868C47.4201 29.8842 47.6852 29.7235 47.8271 29.8895L49.0478 31.3177C49.3904 31.7186 50.0399 31.3844 49.913 30.8726L49.8729 30.7109C49.7354 30.1566 50.4412 29.7969 50.8089 30.2339L52.2726 31.9736C52.6214 32.3882 53.2938 32.0702 53.1946 31.5375C53.1141 31.1054 53.5665 30.7702 53.9565 30.9731L64.5427 36.4817C64.8138 36.6228 65.1299 36.6498 65.4209 36.5568C65.8907 36.4068 66.2119 35.9732 66.2185 35.4801L66.2262 34.9143C66.2357 34.211 65.8623 33.558 65.2513 33.2096L62.9958 31.9232C62.3719 31.5673 61.9867 30.9042 61.9867 30.1859V18.909C61.9867 18.0877 62.4889 17.3498 63.253 17.0485L66.4957 15.7698C67.2599 15.4685 67.7621 14.7306 67.7621 13.9092V12.9773C67.7621 12.0715 67.1406 11.284 66.2597 11.0734C65.4082 10.8699 64.7955 10.1258 64.7589 9.25121L64.653 6.71546C64.6222 5.97699 65.0011 5.28171 65.6384 4.90741L67.2218 3.97751C67.367 3.89224 67.5491 3.90202 67.6843 4.00236C68.0496 4.27341 68.5247 3.8508 68.2981 3.4564L67.6857 2.39046C67.5498 2.15398 67.5694 1.859 67.7354 1.64258L68.726 0.350831C68.9401 0.0717664 69.2975 -0.0563213 69.6401 0.0233135L70.5165 0.227072C71.0034 0.340254 71.0963 0.993099 70.6604 1.23761C70.2093 1.49061 70.3283 2.17035 70.8385 2.25498L74.4682 2.85709C75.1332 2.96741 75.8053 2.70517 76.2199 2.17363L77.1314 1.00487C77.1724 0.952307 77.1716 0.878368 77.1294 0.826779C77.0489 0.728446 77.1274 0.581917 77.2539 0.594456L78.2829 0.696518C78.3204 0.700232 78.3581 0.700233 78.3955 0.696522L79.4251 0.594484C79.5515 0.581952 79.6299 0.728604 79.5493 0.826815C79.507 0.878364 79.5061 0.952362 79.5471 1.00495L80.4585 2.17355C80.8731 2.70514 81.5453 2.96741 82.2103 2.85711L85.8409 2.25495C86.3511 2.17033 86.4701 1.49059 86.0191 1.23759C85.5831 0.99309 85.676 0.340258 86.1629 0.227079L87.0394 0.0233136C87.3819 -0.0563211 87.7394 0.0717661 87.9534 0.350831L88.9441 1.64258ZM72.4691 83.3564C72.4691 83.5784 72.5684 83.7887 72.7397 83.9299L72.8026 83.9817C72.8384 84.0111 72.8797 84.0331 72.9242 84.0461L74.0322 84.3723C74.1848 84.4172 74.1594 84.6406 74.0007 84.6502C73.8719 84.6579 73.8194 84.8195 73.919 84.9015L75.3755 86.1005C75.7591 86.4162 76.3276 86.3535 76.6332 85.9618L76.6897 85.8892C76.9869 85.5082 76.9593 84.9668 76.625 84.6179L74.4612 82.3605C73.7398 81.6079 72.4691 82.1185 72.4691 83.1611V83.3564ZM80.054 84.6175C79.7194 84.9665 79.6918 85.5084 79.9894 85.8895L80.046 85.9621C80.3517 86.3537 80.9202 86.4162 81.3037 86.1004L82.7597 84.9013C82.8593 84.8194 82.8067 84.6579 82.6781 84.6502C82.5194 84.6406 82.494 84.4173 82.6465 84.3724L83.7545 84.0461C83.7988 84.033 83.84 84.0112 83.8757 83.9819L83.9386 83.9302C84.1106 83.7889 84.2103 83.578 84.2103 83.3553V83.1603C84.2103 82.1179 82.9399 81.6073 82.2185 82.3597L80.054 84.6175ZM77.3775 78.9268C76.348 79.5132 76.0785 80.8765 76.8072 81.8106C77.5852 82.8078 79.0934 82.808 79.8715 81.8109C80.6005 80.8767 80.3308 79.5131 79.3011 78.9267C78.7049 78.5871 77.9737 78.5871 77.3775 78.9268ZM77.9127 11.5644C77.3148 11.5644 76.9685 12.2419 77.3187 12.7265C77.5759 13.0824 77.4646 13.5831 77.0807 13.7964L76.4892 14.1252C76.1489 14.3143 75.9379 14.673 75.9379 15.0623V15.8427C75.9379 16.3016 75.4478 16.5942 75.0438 16.3764C74.6399 16.1587 74.1498 16.4512 74.1498 16.9101V16.9518C74.1498 17.3554 74.5235 17.6554 74.9176 17.568L76.3102 17.2592C76.6696 17.1795 77.0449 17.2134 77.3842 17.3564L77.563 17.4317C78.0594 17.6408 78.6191 17.6409 79.1155 17.4319L79.2954 17.3562C79.6346 17.2134 80.0098 17.1795 80.3691 17.2591L81.7618 17.568C82.1559 17.6554 82.5297 17.3554 82.5297 16.9518V16.9101C82.5297 16.4512 82.0396 16.1587 81.6356 16.3764C81.2316 16.5942 80.7416 16.3016 80.7416 15.8427V15.0623C80.7416 14.673 80.5305 14.3143 80.1903 14.1252L79.5987 13.7964C79.2149 13.5831 79.1035 13.0824 79.3607 12.7265C79.711 12.2419 79.3647 11.5644 78.7667 11.5644H77.9127ZM77.9827 2.74047C77.7585 3.01456 77.9146 3.4286 78.2639 3.4865C78.3138 3.49476 78.3647 3.49476 78.4145 3.4865C78.7639 3.4286 78.92 3.01456 78.6957 2.74047C78.5115 2.51518 78.167 2.51518 77.9827 2.74047Z" fill="var(--fill-0, black)"/>
</svg>
