<svg preserveAspectRatio="none" width="100%" height="100%" overflow="visible" style="display: block;" viewBox="0 0 760 760" fill="none" xmlns="http://www.w3.org/2000/svg">
<g id="Frame 7">
<path id="Union" d="M581.787 141.19C585.217 141.808 587.912 144.476 588.564 147.901L593.118 171.826C593.836 175.6 596.84 178.521 600.632 179.134L629.66 183.828C637.921 185.164 640.186 195.983 633.154 200.52L606.61 217.645C603.58 219.6 601.984 223.155 602.536 226.719L612.363 290.129C612.705 292.338 612.225 294.595 611.015 296.474L607.294 302.251C606.003 304.254 605.547 306.684 606.022 309.019L621.875 386.871C622.047 387.717 622.338 388.533 622.739 389.297L655.614 451.873C656.182 452.955 656.962 453.911 657.906 454.686L691.49 482.237C692.133 482.765 692.894 483.131 693.707 483.306C699.575 484.566 699.039 493.107 693.06 493.622L692.191 493.697C691.442 493.762 690.692 493.57 690.066 493.154C686.682 490.904 682.991 495.533 685.938 498.331L690.312 502.484C690.58 502.739 690.883 502.954 691.213 503.122L700.1 507.655C702.745 509.004 704.471 511.659 704.632 514.623L706.657 551.954C706.833 555.21 702.273 556.135 701.167 553.068C701.005 552.62 700.733 552.22 700.375 551.905L641.052 499.623C638.45 497.33 634.468 497.642 632.254 500.312C630.422 502.522 630.363 505.705 632.112 507.981L636.502 513.695C638.066 515.73 638.701 518.33 638.252 520.857L630.449 564.798C629.504 570.123 622.868 572.06 619.207 568.08L617.144 565.837C615.607 564.167 615.864 561.531 617.695 560.189C619.31 559.004 619.732 556.77 618.659 555.079L596.962 520.857C593.287 515.06 584.77 515.237 581.338 521.182L556.978 563.384C556.196 564.74 556.169 566.403 556.906 567.783C558.147 570.104 557.155 572.989 554.751 574.057L545.672 578.09C541.682 579.863 536.997 578.324 534.836 574.529C533.358 571.934 533.351 568.752 534.818 566.15L579.445 486.979C580.606 484.92 580.811 482.457 580.008 480.234C577.955 474.557 570.644 473.027 566.488 477.405L557.924 486.425C556.538 487.885 554.708 488.847 552.72 489.159L512.502 495.486C509.86 495.902 507.831 498.047 507.563 500.708L504.375 500.722C500.469 500.738 497.663 504.487 498.749 508.239L498.896 508.747C500.088 512.865 496.38 516.731 492.216 515.713L489.402 515.026C488.821 514.884 488.39 514.394 488.323 513.8C488.139 512.161 485.783 512.09 485.5 513.715L485.177 515.573C484.988 516.659 483.829 517.279 482.82 516.834L463.619 508.355C462.661 507.932 461.637 507.677 460.592 507.601L435.735 505.794C428.541 505.271 423.608 512.901 427.038 519.247L431.401 527.317C432.603 529.542 432.83 532.165 432.027 534.562L424.315 557.582C423.527 559.935 423.73 562.508 424.878 564.708L446.704 606.536C449.317 611.543 446.632 617.682 441.183 619.164C438.384 619.924 435.391 619.265 433.171 617.399L407.324 595.675C402.899 591.957 396.309 596.108 397.753 601.704C398.384 604.15 397.399 606.726 395.299 608.127L383.081 616.278C382.663 616.557 382.464 617.069 382.584 617.557C382.845 618.616 381.668 619.442 380.761 618.837L380.686 618.787C380.273 618.511 379.734 618.511 379.321 618.787L379.245 618.837C378.336 619.444 377.156 618.617 377.417 617.555C377.537 617.066 377.338 616.553 376.919 616.273L364.699 608.12C362.6 606.72 361.616 604.145 362.246 601.701C363.688 596.109 357.103 591.96 352.682 595.676L326.829 617.405C324.609 619.271 321.615 619.93 318.817 619.169C313.367 617.687 310.682 611.548 313.295 606.541L335.121 564.713C336.27 562.513 336.473 559.94 335.684 557.587L327.973 534.568C327.17 532.17 327.397 529.547 328.599 527.323L332.962 519.252C336.392 512.907 331.459 505.276 324.265 505.799L299.408 507.606C298.363 507.682 297.339 507.937 296.38 508.36L277.18 516.839C276.171 517.285 275.012 516.665 274.823 515.578L274.499 513.72C274.216 512.095 271.861 512.166 271.676 513.805C271.609 514.399 271.179 514.889 270.597 515.031L267.784 515.718C263.619 516.736 259.912 512.87 261.104 508.752L261.251 508.244C262.336 504.492 259.531 500.743 255.626 500.727L252.436 500.713C252.168 498.053 250.14 495.908 247.499 495.492L207.28 489.165C205.291 488.852 203.462 487.891 202.076 486.431L193.512 477.411C189.355 473.033 182.044 474.563 179.992 480.24C179.188 482.463 179.394 484.926 180.554 486.985L225.182 566.154C226.649 568.757 226.642 571.939 225.164 574.535C223.002 578.329 218.318 579.868 214.328 578.095L205.249 574.062C202.845 572.994 201.854 570.108 203.094 567.788C203.832 566.408 203.805 564.744 203.022 563.389L178.662 521.187C175.23 515.243 166.713 515.066 163.037 520.863L141.34 555.085C140.268 556.776 140.689 559.01 142.305 560.194C144.135 561.536 144.392 564.172 142.856 565.842L140.792 568.085C137.131 572.065 130.496 570.129 129.55 564.804L121.748 520.862C121.299 518.334 121.934 515.735 123.498 513.7L127.887 507.987C129.636 505.711 129.577 502.528 127.746 500.318C125.532 497.647 121.549 497.335 118.947 499.629L59.6243 551.91C59.2668 552.225 58.9947 552.625 58.833 553.073C57.7267 556.14 53.1663 555.215 53.3428 551.959L55.3676 514.629C55.5283 511.664 57.2548 509.01 59.8991 507.661L68.7871 503.127C69.1163 502.959 69.4197 502.744 69.6877 502.489L74.0618 498.336C77.0082 495.537 73.3176 490.909 69.9338 493.159C69.3073 493.575 68.558 493.767 67.8085 493.702L66.9403 493.627C60.9608 493.112 60.4244 484.571 66.2923 483.311C67.1061 483.136 67.8663 482.77 68.5098 482.242L102.094 454.692C103.039 453.917 103.819 452.96 104.387 451.878L137.261 389.302C137.662 388.538 137.953 387.722 138.125 386.876L153.977 309.025C154.453 306.689 153.997 304.26 152.706 302.256L148.985 296.48C147.774 294.601 147.295 292.344 147.637 290.135L157.463 226.724C158.016 223.161 156.42 219.606 153.389 217.651L126.847 200.525C119.815 195.988 122.079 185.17 130.34 183.834L159.368 179.14C163.161 178.527 166.164 175.605 166.882 171.831L171.436 147.906C172.088 144.482 174.782 141.814 178.213 141.196L181.58 140.589C183.333 140.273 185.08 141.171 185.844 142.78L196.086 164.37C196.728 165.723 198.773 165.02 198.448 163.559C198.318 162.974 198.618 162.379 199.165 162.137L201.931 160.911C204.985 159.558 208.475 161.556 208.854 164.875L210.814 182.015C210.938 183.101 211.256 184.156 211.753 185.13L225.454 211.977C226.311 213.657 227.667 215.03 229.335 215.908L246.089 224.725C249.925 226.744 254.652 225.788 257.402 222.437L271.315 205.487C273.517 202.805 274.009 199.107 272.584 195.943L261.882 172.169C259.426 166.713 262.792 160.409 268.692 159.414L280.069 157.495C282.119 157.15 284.225 157.513 286.04 158.527L375.542 208.495C378.309 210.04 381.68 210.04 384.447 208.495L473.96 158.521C475.775 157.508 477.881 157.144 479.931 157.489L491.308 159.408C497.208 160.403 500.574 166.707 498.117 172.163L487.416 195.937C485.991 199.101 486.483 202.799 488.684 205.481L502.598 222.432C505.349 225.782 510.076 226.738 513.912 224.719L530.664 215.904C532.333 215.025 533.689 213.652 534.546 211.972L548.247 185.124C548.744 184.15 549.062 183.095 549.186 182.009L551.146 164.869C551.525 161.551 555.014 159.553 558.068 160.906L560.834 162.131C561.382 162.374 561.682 162.969 561.552 163.553C561.227 165.015 563.273 165.718 563.915 164.365L574.156 142.776C574.919 141.166 576.667 140.268 578.42 140.584L581.787 141.19ZM378.849 602.168C378.844 602.278 378.855 602.389 378.881 602.496C379.168 603.664 380.831 603.67 381.119 602.501C381.145 602.394 381.156 602.284 381.151 602.174L379.999 576.538L378.849 602.168ZM252.436 500.713L252.54 501.747C252.627 502.61 251.766 503.257 250.961 502.934C249.78 502.46 250.124 500.704 251.396 500.709L252.436 500.713ZM509.038 502.929C508.233 503.253 507.373 502.606 507.459 501.743L507.563 500.708L508.603 500.704C509.876 500.699 510.219 502.455 509.038 502.929ZM278.691 415.741C279.073 416.971 278.987 418.299 278.45 419.47L276.309 424.135C274.272 428.572 277.132 433.71 281.976 434.316C285.647 434.776 288.378 437.935 288.301 441.634L287.729 469.278C287.653 472.955 284.952 476.048 281.319 476.618C275.477 477.535 272.881 484.485 276.693 489.006L278.402 491.034C281.417 494.61 286.655 495.312 290.505 492.655L321.966 470.944C326.276 467.97 327.208 461.987 324.006 457.843L287.812 410.997C284.253 406.39 276.963 410.181 278.691 415.741ZM435.995 457.837C432.793 461.981 433.724 467.964 438.035 470.938L469.495 492.65C473.345 495.307 478.583 494.605 481.598 491.028L483.308 489C487.119 484.479 484.523 477.529 478.682 476.613C475.049 476.043 472.347 472.95 472.271 469.274L471.699 441.629C471.622 437.93 474.352 434.771 478.023 434.311C482.868 433.704 485.728 428.566 483.691 424.129L481.55 419.465C481.012 418.294 480.927 416.966 481.309 415.736C483.036 410.176 475.747 406.385 472.187 410.992L435.995 457.837ZM375.72 471.952C375.543 473.16 375.885 474.387 376.662 475.33C378.391 477.427 381.607 477.423 383.336 475.326C384.113 474.383 384.457 473.154 384.279 471.945C383.556 467.015 376.443 467.022 375.72 471.952ZM369.953 395.976C368.158 399.182 368.459 403.152 370.717 406.051L372.793 408.715C376.449 413.409 383.546 413.409 387.203 408.715L389.283 406.046C391.541 403.147 391.843 399.177 390.047 395.97L387.971 392.262C384.484 386.033 375.519 386.033 372.032 392.262L369.953 395.976ZM287.926 375.972C284.761 377.311 284.593 381.733 287.647 383.309L303.361 391.414C310.511 395.102 318.592 388.413 316.305 380.7L315.82 379.065L323.588 380.083L316.076 378.777C315.91 378.748 315.772 378.903 315.82 379.065L290.032 375.686C289.317 375.593 288.59 375.691 287.926 375.972ZM444.179 379.059C444.227 378.898 444.089 378.742 443.923 378.771L436.412 380.077L444.179 379.059L443.694 380.696C441.407 388.409 449.487 395.098 456.637 391.41L472.353 383.303C475.407 381.728 475.239 377.305 472.074 375.966C471.41 375.685 470.683 375.587 469.968 375.68L444.179 379.059ZM372.578 254.277C372.003 256.16 372.165 258.191 373.031 259.958L374.843 263.657C376.706 267.461 373.961 271.918 369.727 272.028C368.448 272.062 367.207 272.529 366.227 273.353C363.04 276.035 363.75 281.126 367.55 282.833L370.274 284.056C374.244 285.84 375.879 290.608 373.838 294.452L360.833 318.945C360.31 319.929 359.972 321.001 359.835 322.106L356.319 350.508C355.721 355.336 359.014 359.786 363.806 360.626L378.408 363.186C379.452 363.369 380.519 363.369 381.563 363.186L396.194 360.621C400.986 359.781 404.278 355.331 403.681 350.503L400.165 322.101C400.029 320.995 399.69 319.923 399.168 318.939L386.16 294.444C384.12 290.602 385.754 285.835 389.722 284.053L392.45 282.827C396.246 281.122 396.955 276.036 393.771 273.357C392.792 272.534 391.552 272.067 390.274 272.033C386.04 271.922 383.293 267.466 385.157 263.662L386.969 259.964C387.835 258.196 387.997 256.164 387.421 254.281C385.184 246.958 374.815 246.954 372.578 254.277ZM169.962 352.48C169.28 357.856 173.401 362.639 178.818 362.761L185.95 362.921C191.092 363.036 195.316 358.884 195.288 353.741L195.19 335.249C195.179 333.217 194.491 331.246 193.234 329.649L189.178 324.495C184.166 318.127 173.959 320.955 172.939 328.995L169.962 352.48ZM566.766 329.644C565.509 331.241 564.821 333.212 564.81 335.244L564.711 353.736C564.684 358.879 568.907 363.031 574.05 362.916L581.182 362.756C586.599 362.634 590.72 357.851 590.038 352.476L587.06 328.99C586.041 320.95 575.834 318.121 570.822 324.49L566.766 329.644ZM319.496 341.983C316.232 347.673 319.852 354.846 326.368 355.601L336.508 356.774C341.895 357.398 346.635 353.217 346.691 347.794L346.96 321.432C346.976 319.894 347.38 318.384 348.135 317.043L361.616 293.107C363.406 289.929 362.031 285.902 358.672 284.482C355.827 283.279 352.531 284.389 350.994 287.069L319.496 341.983ZM401.327 284.476C397.968 285.897 396.594 289.924 398.383 293.102L411.865 317.038C412.62 318.378 413.024 319.888 413.04 321.427L413.31 347.789C413.365 353.211 418.106 357.392 423.493 356.768L433.631 355.595C440.148 354.841 443.768 347.667 440.504 341.977L409.006 287.064C407.469 284.384 404.173 283.273 401.327 284.476ZM280.701 332.333C280.119 333.029 279.884 333.951 280.064 334.841C280.749 338.23 285.686 337.938 285.967 334.491C286.203 331.589 282.569 330.1 280.701 332.333ZM474.033 334.486C474.314 337.933 479.251 338.225 479.936 334.836C480.115 333.946 479.881 333.024 479.299 332.328C477.431 330.095 473.797 331.584 474.033 334.486ZM349.079 266.096C346.832 269.514 348.177 274.131 351.908 275.807C355.698 277.509 360.104 275.353 361.085 271.316C362.845 264.072 353.175 259.869 349.079 266.096ZM398.911 271.31C399.892 275.349 404.299 277.505 408.09 275.802C411.822 274.126 413.167 269.508 410.919 266.09C406.822 259.86 397.15 264.065 398.911 271.31ZM277.841 232.626C273.902 234.298 273.438 239.695 277.034 242.015L278.823 243.169C280.831 244.464 281.96 246.761 281.759 249.142L280.628 262.526C280.228 267.265 284.415 271.102 289.101 270.292C293.627 269.509 296.298 264.772 294.626 260.494L284.891 235.592C283.797 232.793 280.607 231.451 277.841 232.626ZM465.374 260.488C463.702 264.766 466.373 269.503 470.899 270.286C475.585 271.096 479.772 267.259 479.371 262.521L478.241 249.136C478.04 246.756 479.169 244.458 481.177 243.163L482.966 242.009C486.562 239.69 486.098 234.293 482.16 232.62C479.394 231.445 476.204 232.788 475.109 235.587L465.374 260.488ZM138.849 186.624C134.691 186.898 132.758 191.913 135.657 194.907C137.762 197.08 141.316 196.84 143.109 194.403C145.575 191.053 142.999 186.35 138.849 186.624ZM616.891 194.398C618.685 196.835 622.238 197.075 624.343 194.901C627.242 191.908 625.31 186.893 621.152 186.618C617.001 186.345 614.425 191.048 616.891 194.398Z" fill="#1A1A1A"/>
</g>
</svg>
