<svg preserveAspectRatio="none" width="100%" height="100%" overflow="visible" style="display: block;" viewBox="0 0 158.809 106.538" fill="none" xmlns="http://www.w3.org/2000/svg">
<path id="Union" d="M146.707 2.19127C147.209 2.60001 147.482 3.2262 147.439 3.87193L146.783 13.9427C146.766 14.1979 146.799 14.4539 146.878 14.6969L158.778 50.9287C158.974 51.5254 158.2 51.9522 157.8 51.4681C157.521 51.1304 156.98 51.2222 156.829 51.6333L154.825 57.0579C154.4 58.2089 153.048 58.7093 151.976 58.1126L147.706 55.7358C147.409 55.5703 147.074 55.4834 146.734 55.4834H144.76C142.873 55.4834 142.036 57.8557 143.504 59.0401L145.456 60.6143C145.733 60.838 145.946 61.1318 146.072 61.4653L150.6 73.4735C150.729 73.8153 150.762 74.186 150.695 74.5451L148.208 87.911C147.957 89.2616 146.45 89.9626 145.255 89.2847L126.035 78.3807C125.814 78.255 125.618 78.0881 125.459 77.8889L121.624 73.0843C120.636 71.8469 118.671 72.1933 118.165 73.6939L116.776 77.8217C116.553 78.4828 115.778 78.7708 115.178 78.4155C114.499 78.0135 113.63 78.4391 113.531 79.2222L110.268 105.149C110.16 106.012 109.376 106.628 108.511 106.528L108.198 106.492C106.865 106.338 106.422 104.623 107.512 103.843C108.014 103.483 108.237 102.848 108.071 102.254L104.828 90.6895C104.789 90.5499 104.765 90.4064 104.757 90.2617L103.869 74.4493C103.778 72.8214 101.881 71.981 100.614 73.0067L98.4017 74.7971C97.9325 75.1768 97.6599 75.7481 97.6599 76.3518V79.4567C97.6599 80.1622 98.0316 80.8156 98.6382 81.176L99.8157 81.8757C100.867 82.5001 101.116 83.9128 100.343 84.8597L91.3228 95.9116C90.7212 96.6486 90.8197 97.7314 91.5444 98.3478C92.7827 99.4013 92.0378 101.427 90.412 101.427H87.7239C86.039 101.427 85.1091 99.471 86.1727 98.1642L90.8344 92.4367C91.4457 91.6856 91.3415 90.5829 90.6002 89.9597L89.624 89.1388C88.8566 88.4936 87.6853 89.0391 87.6853 90.0417C87.6853 91.2707 86.0404 91.6804 85.4639 90.595L84.8096 89.363C84.7165 89.1878 84.5902 89.0323 84.4376 88.9054L80.6832 85.782C79.9419 85.1653 78.8661 85.1653 78.1249 85.7821L74.3713 88.9054C74.2188 89.0323 74.0925 89.1878 73.9994 89.363L73.3451 90.595C72.7686 91.6804 71.1237 91.2707 71.1237 90.0417C71.1237 89.0391 69.9524 88.4936 69.185 89.1388L68.2088 89.9597C67.4675 90.5829 67.3633 91.6856 67.9746 92.4367L72.6363 98.1642C73.6999 99.471 72.77 101.427 71.0851 101.427H68.397C66.7712 101.427 66.0263 99.4013 67.2646 98.3478C67.9893 97.7314 68.0878 96.6486 67.4862 95.9116L58.4655 84.8597C57.6926 83.9128 57.9424 82.5001 58.9933 81.8757L60.1708 81.176C60.7774 80.8156 61.1491 80.1622 61.1491 79.4567V76.3518C61.1491 75.7481 60.8765 75.1768 60.4073 74.7971L58.1949 73.0067C56.9275 71.9811 55.0313 72.8214 54.9399 74.4493L54.052 90.2617C54.0439 90.4064 54.02 90.5499 53.9809 90.6895L50.7382 102.254C50.5716 102.848 50.7948 103.483 51.2966 103.843C52.3875 104.623 51.9439 106.338 50.6112 106.492L50.2983 106.528C49.4334 106.628 48.6495 106.012 48.5408 105.149L45.2777 79.2222C45.1791 78.4391 44.3104 78.0135 43.6312 78.4155C43.0309 78.7708 42.2559 78.4828 42.0334 77.8217L40.6436 73.6939C40.1385 72.1933 38.1729 71.8469 37.1851 73.0843L33.3497 77.8889C33.1908 78.0881 32.9952 78.255 32.7736 78.3807L13.5539 89.2847C12.359 89.9626 10.8521 89.2616 10.6008 87.911L8.1136 74.5451C8.04677 74.186 8.07959 73.8153 8.20852 73.4735L12.7373 61.4653C12.8631 61.1318 13.0757 60.838 13.3531 60.6143L15.3048 59.0401C16.7733 57.8557 15.9358 55.4834 14.0492 55.4834H12.0755C11.735 55.4834 11.4002 55.5703 11.1028 55.7358L6.83267 58.1126C5.76059 58.7093 4.40892 58.2089 3.98385 57.0579L1.98048 51.6333C1.82867 51.2222 1.28844 51.1304 1.00928 51.4681C0.609153 51.9522 -0.164711 51.5254 0.031253 50.9287L11.9307 14.6969C12.0105 14.4539 12.0429 14.1979 12.0263 13.9427L11.3696 3.87193C11.3275 3.2262 11.6004 2.60001 12.102 2.19127L14.2398 0.449502C14.8783 -0.0707247 15.7704 -0.146344 16.4874 0.258989L26.9053 6.14876C27.4066 6.43218 28.0058 6.48575 28.5494 6.29574L37.759 3.07704C38.1927 2.92547 38.6653 2.92783 39.0974 3.0837L52.0676 7.76202C52.3593 7.86725 52.6172 8.04946 52.8138 8.28933L54.306 10.1097C54.9004 10.8349 54.2146 11.896 53.3092 11.6518L52.9223 11.5474C52.5629 11.4505 52.2006 11.693 52.1531 12.0621C52.0846 12.5941 51.4152 12.789 51.0719 12.3769L49.1159 10.0292C48.8351 9.69213 48.4487 9.45979 48.0194 9.36979L38.7563 7.42806C38.3204 7.33669 37.8665 7.39342 37.4665 7.58925L35.7299 8.4395C34.3305 9.12464 34.2174 11.076 35.5282 11.9183L43.4274 16.9941L37.5553 13.6811C37.0362 13.3882 36.5531 14.1145 37.0239 14.48C37.4958 14.8465 37.0093 15.574 36.4904 15.2778L32.0367 12.7358C31.3253 12.3298 30.5103 13.0721 30.8484 13.8182L31.5473 15.3602C31.6687 15.6281 31.8718 15.8507 32.1275 15.9962L40.5083 20.7631C40.8105 20.935 41.0627 21.1826 41.2399 21.4817L50.3303 36.8156C50.8226 37.6462 52.0243 37.6473 52.5182 36.8176C52.7551 36.4198 52.7571 35.9247 52.5235 35.5249L47.8255 27.4831C47.6467 27.1769 47.5524 26.8287 47.5524 26.4742V18.7541C47.5524 18.0086 47.9671 17.3249 48.6283 16.9804L60.4599 10.8161C60.7452 10.6674 61.0623 10.5898 61.384 10.5898H71.5499C72.2768 10.5898 72.5876 11.5133 72.0086 11.9528L71.5202 12.3235C71.1854 12.5776 71.3097 13.1081 71.7225 13.1871C72.2436 13.2867 72.2501 14.0305 71.7307 14.1391L71.6722 14.1514C71.429 14.2023 71.2606 14.4249 71.2778 14.6728L71.7814 21.917C71.9106 23.7755 69.6522 24.7857 68.3529 23.4506L67.1746 22.2398C66.798 21.853 66.2811 21.6347 65.7413 21.6347H64.6501C63.5455 21.6347 62.6501 22.5302 62.6501 23.6347V24.9402C62.6501 25.6557 63.0323 26.3166 63.6524 26.6736L71.0746 30.9458C71.438 31.155 71.7264 31.4731 71.8992 31.8552L76.2471 41.4714C76.4709 41.9664 76.4838 42.5311 76.2827 43.0358L75.4209 45.1984C75.154 45.8681 75.2682 46.6296 75.7198 47.1916L77.8452 49.8365C78.6457 50.8327 80.1624 50.8328 80.963 49.8367L83.089 47.1916C83.5407 46.6297 83.655 45.8681 83.3881 45.1983L82.5263 43.0358C82.3252 42.5311 82.3381 41.9664 82.5619 41.4714L86.9098 31.8552C87.0825 31.4731 87.371 31.155 87.7344 30.9458L95.1566 26.6736C95.7767 26.3166 96.1589 25.6557 96.1589 24.9402V23.6347C96.1589 22.5302 95.2635 21.6347 94.1589 21.6347H93.0677C92.5279 21.6347 92.011 21.853 91.6344 22.2398L90.4561 23.4506C89.1568 24.7857 86.8984 23.7755 87.0276 21.917L87.5312 14.6728C87.5484 14.4249 87.38 14.2023 87.1368 14.1514L87.0783 14.1391C86.5589 14.0305 86.5654 13.2867 87.0865 13.1871C87.4993 13.1081 87.6236 12.5776 87.2888 12.3235L86.8004 11.9528C86.2214 11.5133 86.5322 10.5898 87.2591 10.5898H97.425C97.7467 10.5898 98.0637 10.6674 98.3491 10.8161L110.181 16.9804C110.842 17.3249 111.257 18.0086 111.257 18.7541V26.4742C111.257 26.8287 111.162 27.1769 110.983 27.4831L106.285 35.5249C106.052 35.9247 106.054 36.4198 106.291 36.8176C106.785 37.6473 107.986 37.6462 108.479 36.8156L117.569 21.4817C117.746 21.1826 117.998 20.935 118.301 20.7631L126.682 15.9962C126.937 15.8508 127.14 15.6281 127.262 15.3602L127.961 13.8182C128.299 13.0721 127.484 12.3298 126.772 12.7358L122.319 15.2778C121.8 15.574 121.313 14.8465 121.785 14.48C122.256 14.1145 121.773 13.3882 121.254 13.6811L115.382 16.9941L123.281 11.9183C124.592 11.076 124.478 9.12464 123.079 8.43949L121.342 7.58925C120.943 7.39342 120.489 7.33669 120.053 7.42806L110.79 9.36979C110.36 9.45979 109.974 9.69213 109.693 10.0292L107.737 12.3769C107.394 12.789 106.724 12.5941 106.656 12.0621C106.608 11.693 106.246 11.4505 105.887 11.5474L105.5 11.6518C104.594 11.896 103.909 10.8349 104.503 10.1097L105.995 8.28933C106.192 8.04946 106.45 7.86725 106.741 7.76202L119.712 3.0837C120.144 2.92783 120.616 2.92547 121.05 3.07704L130.26 6.29574C130.803 6.48575 131.402 6.43218 131.904 6.14876L142.322 0.258989C143.039 -0.146344 143.931 -0.0707237 144.569 0.449503L146.707 2.19127ZM83.2783 70.9397C82.8458 71.1036 82.553 71.5098 82.5343 71.972C82.5024 72.7591 81.7086 73.2835 80.972 73.0041L80.0621 72.6589C79.6381 72.498 79.1699 72.498 78.7459 72.6589L77.837 73.0039C77.1004 73.2835 76.3063 72.7591 76.2741 71.9719C76.2551 71.5098 75.9623 71.1036 75.5298 70.9397L74.6207 70.5951C73.3121 70.0991 71.9118 71.0658 71.9118 72.4652V72.9404C71.9118 74.045 72.8073 74.9404 73.9118 74.9404H84.8972C86.0017 74.9404 86.8972 74.045 86.8972 72.9404V72.465C86.8972 71.0656 85.497 70.0989 84.1885 70.5948L83.2783 70.9397ZM78.3843 60.4689C78.3697 60.5201 78.3942 60.5744 78.4422 60.5975C78.4798 60.6155 78.5039 60.6533 78.5043 60.695L78.5768 67.8796C78.5793 68.1293 78.6945 68.3645 78.8902 68.5196C79.1912 68.7581 79.6168 68.7581 79.9178 68.5196C80.1135 68.3645 80.2287 68.1293 80.2313 67.8796L80.3047 60.6946C80.3051 60.6531 80.329 60.6155 80.3663 60.5975C80.4141 60.5744 80.4383 60.5204 80.4238 60.4694L80.2468 59.8472C80.0053 58.9987 78.8027 58.9987 78.5612 59.8472L78.3843 60.4689ZM61.1867 58.1702C61.4148 58.3027 61.379 58.6426 61.1283 58.7246L55.5515 60.5491C54.6814 60.8338 54.1157 61.6729 54.1781 62.5863L54.4747 66.9278C54.5145 67.51 54.9702 67.9776 55.5512 68.0322C56.263 68.0992 56.8729 67.5283 56.8531 66.8137L56.8119 65.3297C56.7882 64.4725 57.3136 63.6954 58.1181 63.3983L63.1595 61.5358C63.804 61.2977 64.2812 60.7455 64.4233 60.0733L64.6908 58.8074C64.8088 58.2486 64.3954 57.7182 63.8248 57.6962L61.352 57.6009C61.0339 57.5887 60.9115 58.0103 61.1867 58.1702ZM94.9842 57.6962C94.4136 57.7182 94.0001 58.2486 94.1182 58.8074L94.3857 60.0733C94.5278 60.7455 95.005 61.2977 95.6494 61.5358L100.691 63.3983C101.495 63.6954 102.021 64.4725 101.997 65.3297L101.956 66.8137C101.936 67.5283 102.546 68.0992 103.258 68.0322C103.839 67.9776 104.295 67.51 104.334 66.9278L104.631 62.5863C104.693 61.6729 104.128 60.8338 103.257 60.5491L97.6807 58.7246C97.43 58.6426 97.3942 58.3027 97.6223 58.1702C97.8975 58.0103 97.7751 57.5887 97.457 57.6009L94.9842 57.6962ZM42.4163 49.972C42.5366 50.1605 42.6942 50.3241 42.8784 50.4509L43.6491 50.9814C43.6108 51.0008 43.6289 51.0589 43.6714 51.0532L43.7409 51.0439L46.762 53.1245C47.2706 53.4748 47.9124 53.5704 48.501 53.3838L58.7601 50.1301C59.2082 49.988 59.6921 50.0083 60.1267 50.1874L65.7266 52.4952C66.3769 52.7632 67.1231 52.4742 67.4232 51.8381C67.7002 51.2512 67.5095 50.5501 66.9734 50.1844L62.4311 47.0855C61.5662 46.4954 60.3925 46.6724 59.7399 47.4913L58.9447 48.4892C58.6216 48.8945 58.1539 49.1586 57.64 49.2259L43.7409 51.0439L43.6491 50.9814L44.5487 50.5269C45.6129 49.9892 45.7838 48.54 44.8739 47.7694C43.4162 46.5349 41.3887 48.3618 42.4163 49.972ZM113.935 47.7696C113.025 48.5401 113.196 49.9892 114.26 50.527L115.159 50.9814L115.067 51.0439L101.169 49.2259C100.655 49.1586 100.187 48.8945 99.8643 48.4892L99.0691 47.4913C98.4165 46.6724 97.2428 46.4954 96.3779 47.0855L91.8356 50.1844C91.2995 50.5501 91.1088 51.2512 91.3858 51.8381C91.6859 52.4742 92.4321 52.7632 93.0824 52.4952L98.6823 50.1874C99.1169 50.0083 99.6008 49.988 100.049 50.1301L110.308 53.3837C110.897 53.5704 111.538 53.4747 112.047 53.1243L115.067 51.0439L115.137 51.0532C115.179 51.0589 115.197 51.0008 115.159 50.9814L115.93 50.451C116.115 50.3241 116.272 50.1604 116.393 49.9717C117.42 48.3615 115.393 46.5351 113.935 47.7696ZM52.2511 44.3238C52.389 44.6727 51.9281 44.9425 51.6914 44.6515C51.5907 44.5278 51.4157 44.4943 51.2765 44.5722L46.8355 47.0572C46.21 47.4073 46.0908 48.2574 46.596 48.7659C46.9053 49.0771 47.3718 49.171 47.7774 49.0037L54.0592 46.4122C54.6775 46.1571 54.8118 45.3408 54.3077 44.901L52.7236 43.5191C52.4162 43.2509 51.9557 43.5761 52.1056 43.9555L52.2511 44.3238ZM104.501 44.901C103.997 45.3408 104.131 46.1571 104.75 46.4122L111.032 49.0037C111.437 49.171 111.904 49.0771 112.213 48.7659C112.718 48.2574 112.599 47.4073 111.974 47.0572L107.532 44.5722C107.393 44.4943 107.218 44.5278 107.118 44.6515C106.881 44.9425 106.42 44.6727 106.558 44.3238L106.703 43.9555C106.853 43.5761 106.393 43.2509 106.085 43.5191L104.501 44.901ZM37.4426 37.8878C37.1651 38.6211 37.3417 39.4488 37.8942 40.005L43.7488 45.899C44.6195 46.7755 46.0688 46.6608 46.7908 45.6582L48.5814 43.1714C49.1095 42.4381 49.0802 41.4417 48.5099 40.7407L42.412 33.2442C41.439 32.048 39.5355 32.3563 38.9899 33.7984L37.4426 37.8878ZM110.299 40.7407C109.729 41.4417 109.7 42.4381 110.228 43.1714L112.018 45.6582C112.74 46.6608 114.19 46.7755 115.06 45.899L120.915 40.005C121.467 39.4488 121.644 38.6211 121.366 37.8878L119.819 33.7984C119.273 32.3563 117.37 32.048 116.397 33.2442L110.299 40.7407ZM15.8668 42.8004C15.0288 44.259 16.2564 46.0376 17.9174 45.7714L20.2243 45.4018C21.6196 45.1782 22.3493 43.6174 21.6261 42.4034L20.5598 40.6136C19.7771 39.2997 17.8692 39.3148 17.1074 40.6409L15.8668 42.8004ZM137.183 42.4034C136.46 43.6174 137.189 45.1782 138.585 45.4018L140.892 45.7714C142.553 46.0376 143.78 44.259 142.942 42.8004L141.702 40.6409C140.94 39.3148 139.032 39.2997 138.249 40.6136L137.183 42.4034ZM53.0741 39.8588C52.791 40.3327 52.7925 40.9242 53.078 41.3966L54.4396 43.6492C55.0154 44.6018 56.3594 44.7003 57.0679 43.8419C57.5402 43.2698 57.5621 42.4494 57.1209 41.8529L55.5557 39.7368C54.922 38.8801 53.6207 38.9441 53.0741 39.8588ZM101.688 41.8529C101.247 42.4494 101.269 43.2698 101.741 43.8419C102.45 44.7003 103.794 44.6018 104.369 43.6492L105.731 41.3966C106.017 40.9242 106.018 40.3327 105.735 39.8588C105.188 38.9441 103.887 38.8801 103.253 39.7368L101.688 41.8529ZM21.6531 32.2308C21.4673 32.4591 21.4064 32.7645 21.4905 33.0466L22.8984 37.7735C23.0073 38.139 23.2429 38.4538 23.5629 38.6613C25.0159 39.6034 26.724 37.8925 25.7795 36.441L23.0893 32.3071C22.7602 31.8014 22.034 31.7628 21.6531 32.2308ZM133.03 36.441C132.085 37.8925 133.793 39.6034 135.246 38.6613C135.566 38.4538 135.802 38.139 135.911 37.7735L137.319 33.0466C137.403 32.7645 137.342 32.4591 137.156 32.2308C136.775 31.7628 136.049 31.8014 135.72 32.3071L133.03 36.441Z" fill="var(--fill-0, black)"/>
</svg>
