<svg preserveAspectRatio="none" width="100%" height="100%" overflow="visible" style="display: block;" viewBox="0 0 158.144 104.731" fill="none" xmlns="http://www.w3.org/2000/svg">
<path id="Union" d="M149.008 4.6296C149.07 5.05158 149.503 5.31081 149.905 5.16671C150.346 5.00853 150.81 5.33553 150.809 5.80382L150.808 7.47094C150.807 7.8861 151.17 8.20818 151.582 8.15857C151.994 8.109 152.356 8.43056 152.356 8.84541V10.7838C152.356 11.148 152.715 11.4039 153.059 11.2854C153.438 11.1551 153.819 11.4749 153.756 11.8702L153.596 12.8779C153.537 13.2479 153.847 13.5719 154.219 13.5292C154.655 13.4792 154.98 13.9223 154.8 14.3227L154.174 15.723C154.013 16.0834 154.31 16.4808 154.701 16.4281C155.122 16.3716 155.42 16.8281 155.198 17.1902L152.277 21.9732C152.15 22.1813 152.2 22.4517 152.393 22.6007C152.557 22.7275 152.62 22.9456 152.55 23.1408L152.26 23.9495C152.149 24.2585 152.357 24.5897 152.684 24.623C152.953 24.6503 153.152 24.8841 153.137 25.1537L153.062 26.4997C153.035 26.9773 153.188 27.4476 153.491 27.8182L156.54 31.5546C157.014 32.1356 157.124 32.933 156.823 33.6202L155.25 37.22C154.996 37.8003 154.483 38.2262 153.866 38.3682L150.53 39.1353C149.937 39.2718 149.647 39.9459 149.957 40.47L150.64 41.6243C150.849 41.9771 150.496 42.3951 150.113 42.2483C149.771 42.117 149.431 42.4441 149.548 42.7912L150.165 44.6059C150.387 45.2606 151.073 45.6362 151.745 45.4703L154.819 44.7106C155.572 44.5247 156.284 45.1325 156.22 45.9048L156.196 46.1908C156.16 46.6143 156.454 46.9948 156.873 47.0669C157.421 47.1613 157.718 47.7614 157.461 48.2538L156.921 49.288C156.642 49.823 156.905 50.4809 157.476 50.6753C157.875 50.811 158.144 51.1857 158.144 51.6071V52.5696C158.144 52.938 157.902 53.2626 157.549 53.368C156.927 53.5538 156.747 54.3477 157.227 54.7837L157.643 55.1605C157.992 55.4769 158.112 55.974 157.947 56.415L157.778 56.8686C157.698 57.0823 157.486 57.2175 157.258 57.2002L157.127 57.1902C156.659 57.1545 156.43 57.7494 156.802 58.0367C157.001 58.1907 157.045 58.4737 156.901 58.6807L156.393 59.4146C156.048 59.9133 155.423 60.1362 154.84 59.9687L151.342 58.9635C150.352 58.679 149.308 59.193 148.93 60.1511L148.75 60.6051C148.583 61.0282 148.277 61.3817 147.882 61.6072L144.265 63.6727C144.125 63.7528 144.075 63.9309 144.154 64.072C144.277 64.2927 144.083 64.5559 143.836 64.5037L143.736 64.4826C143.48 64.4285 143.261 64.671 143.341 64.92L145.271 70.9416C145.321 71.0984 145.352 71.2608 145.362 71.4251L145.969 80.9692C145.988 81.2697 146.075 81.5619 146.223 81.8242L147.543 84.1679C147.778 84.5844 148.154 84.903 148.604 85.0661L152.856 86.6084C153.408 86.8085 153.844 87.2407 154.048 87.7905L157.858 98.0197C158.101 98.6718 157.987 99.4032 157.558 99.951L154.433 103.941C154.06 104.417 153.493 104.699 152.888 104.708L151.311 104.731C150.242 104.747 149.563 103.593 150.095 102.666C150.334 102.249 150.34 101.738 150.109 101.317L147.955 97.3827C147.633 96.7958 147.04 96.4086 146.373 96.3507L139.54 95.758C139.277 95.7352 139.068 95.5284 139.042 95.2657C138.985 94.6996 138.211 94.5827 137.989 95.1068L136.646 98.2894C136.423 98.8189 135.904 99.163 135.329 99.163H119.704C119.164 99.163 118.647 98.9447 118.27 98.5577L113.663 93.8227C113.034 93.1757 112.049 93.0306 111.259 93.4687L100.727 99.3139C99.42 100.039 97.8079 99.1263 97.7579 97.632L97.7134 96.299C97.6885 95.5535 98.0805 94.8561 98.7303 94.4899L104.281 91.3614C105.819 90.495 105.4 88.1753 103.656 87.9016C103.018 87.8013 102.373 88.0395 101.953 88.5309L101.096 89.5336C100.706 89.99 100.131 90.247 99.531 90.2336L93.9827 90.1098C92.9895 90.0877 92.1306 90.7978 91.9658 91.7774L91.8752 92.3157C91.7957 92.788 91.5493 93.2161 91.1809 93.5222L86.6434 97.2916C86.6071 97.3217 86.5681 97.3484 86.527 97.3714C86.0516 97.6365 85.4591 97.3353 85.3931 96.795L82.499 73.0836C82.4329 72.5418 82.5911 71.9964 82.937 71.5741L84.0464 70.2194C84.3061 69.9024 84.4621 69.5132 84.4933 69.1046L85.0569 61.7291C85.0882 61.3203 85.2709 60.9378 85.5693 60.6567L86.6405 59.6474C86.6885 59.6022 86.7637 59.6031 86.8105 59.6495C86.8906 59.7288 87.0262 59.6669 87.0187 59.5545L86.5261 52.1029C86.5036 51.7625 86.3181 51.4538 86.0281 51.2742C85.4854 50.9379 84.7708 51.1558 84.5081 51.7377L81.3043 58.8326C81.155 59.1632 81.0985 59.5281 81.1407 59.8884L81.2973 61.2252C81.3184 61.4056 81.3149 61.5879 81.2868 61.7673L80.8036 64.8536C80.8004 64.8736 80.7988 64.8939 80.7988 64.9143C80.7988 64.9807 80.8157 65.0461 80.8479 65.1042L81.0419 65.455C81.759 66.7514 80.8213 68.3417 79.3397 68.3417H78.7972C77.3186 68.3417 76.3828 66.7547 77.0985 65.4608L77.295 65.1055C77.3276 65.0465 77.3445 64.9801 77.344 64.9127C77.3438 64.8934 77.3423 64.8741 77.3393 64.8551L76.8566 61.7666C76.8286 61.5877 76.8251 61.4058 76.8461 61.226L77.0022 59.8879C77.0442 59.528 76.9876 59.1633 76.8385 58.833L73.6345 51.7377C73.3718 51.1558 72.6572 50.9379 72.1145 51.2742C71.8244 51.4538 71.639 51.7625 71.6165 52.1029L71.1239 59.5541C71.1164 59.6668 71.2523 59.729 71.3327 59.6496C71.3797 59.6031 71.4551 59.6022 71.5032 59.6476L72.5737 60.6562C72.8725 60.9377 73.0554 61.3205 73.0867 61.7298L73.6503 69.1046C73.6815 69.5132 73.8375 69.9024 74.0971 70.2194L75.2066 71.5741C75.5524 71.9964 75.7106 72.5418 75.6445 73.0836L72.7504 96.795C72.6845 97.3353 72.092 97.6365 71.6166 97.3714C71.5754 97.3484 71.5364 97.3217 71.5002 97.2916L66.9627 93.5222C66.5942 93.2161 66.3479 92.788 66.2684 92.3157L66.1778 91.7774C66.0129 90.7978 65.154 90.0877 64.1609 90.1098L58.6126 90.2336C58.0123 90.247 57.4378 89.99 57.0476 89.5336L56.1905 88.5309C55.7705 88.0395 55.1256 87.8013 54.4871 87.9016C52.7439 88.1753 52.3248 90.495 53.8621 91.3614L59.4132 94.4899C60.0631 94.8561 60.4551 95.5535 60.4302 96.299L60.3856 97.632C60.3357 99.1263 58.7235 100.039 57.4162 99.3139L46.8842 93.4687C46.0948 93.0306 45.1098 93.1757 44.4803 93.8227L39.8731 98.5577C39.4966 98.9447 38.9796 99.163 38.4397 99.163H22.8145C22.2398 99.163 21.7209 98.8189 21.4975 98.2894L20.1542 95.1068C19.9329 94.5827 19.1586 94.6996 19.102 95.2657C19.0757 95.5284 18.8661 95.7352 18.6031 95.758L11.7701 96.3507C11.1036 96.4086 10.5101 96.7958 10.1887 97.3827L8.03457 101.317C7.80383 101.738 7.80906 102.249 8.04838 102.666C8.58104 103.593 7.90134 104.747 6.83218 104.731L5.25516 104.708C4.65096 104.699 4.08324 104.417 3.71062 103.941L0.585186 99.951C0.156101 99.4032 0.042578 98.6718 0.285438 98.0197L4.09516 87.7905C4.29995 87.2407 4.73586 86.8085 5.28745 86.6084L9.53972 85.0661C9.9892 84.903 10.3654 84.5844 10.6001 84.1679L11.9209 81.8242C12.0687 81.5619 12.1554 81.2697 12.1745 80.9692L12.7811 71.4251C12.7916 71.2608 12.8223 71.0984 12.8725 70.9416L14.8024 64.92C14.8822 64.671 14.6633 64.4285 14.4073 64.4826L14.3077 64.5037C14.0603 64.5559 13.8664 64.2927 13.9897 64.072C14.0684 63.9309 14.0188 63.7528 13.8786 63.6727L10.2617 61.6072C9.86663 61.3816 9.56032 61.0282 9.39324 60.6051L9.21395 60.1511C8.8356 59.193 7.79139 58.679 6.80135 58.9635L3.30351 59.9687C2.72054 60.1362 2.09566 59.9133 1.75033 59.4146L1.24207 58.6807C1.09871 58.4737 1.14249 58.1907 1.3417 58.0367C1.71337 57.7494 1.48467 57.1545 1.01622 57.1902L0.885123 57.2002C0.657561 57.2175 0.445939 57.0823 0.365954 56.8686L0.196206 56.415C0.0311692 55.974 0.151784 55.4769 0.500594 55.1605L0.916111 54.7837C1.39686 54.3477 1.21666 53.5538 0.5948 53.368C0.241853 53.2626 0 52.938 0 52.5696V51.6071C0 51.1857 0.268288 50.811 0.667251 50.6753C1.23852 50.4809 1.50201 49.823 1.2228 49.288L0.683001 48.2538C0.425961 47.7614 0.722956 47.1613 1.2704 47.0669C1.68928 46.9948 1.98347 46.6143 1.94794 46.1908L1.92395 45.9048C1.85915 45.1325 2.57184 44.5247 3.32429 44.7106L6.39901 45.4703C7.07024 45.6362 7.75671 45.2606 7.979 44.6059L8.59512 42.7912C8.71294 42.4441 8.37277 42.117 8.0306 42.2483C7.64799 42.3951 7.29474 41.9771 7.50338 41.6243L8.18617 40.47C8.49613 39.9459 8.20688 39.2718 7.61353 39.1353L4.278 38.3682C3.66081 38.2262 3.14732 37.8003 2.89368 37.22L1.32026 33.6202C1.01992 32.933 1.12923 32.1356 1.6034 31.5546L4.65289 27.8182C4.95534 27.4476 5.10826 26.9773 5.08158 26.4997L5.00641 25.1537C4.99135 24.8841 5.19101 24.6503 5.45968 24.623C5.78639 24.5897 5.99504 24.2585 5.88396 23.9495L5.59326 23.1408C5.52311 22.9456 5.58676 22.7275 5.75085 22.6007C5.94378 22.4517 5.99363 22.1813 5.86655 21.9732L2.94516 17.1902C2.72404 16.8281 3.02193 16.3716 3.44236 16.4281C3.83364 16.4808 4.13071 16.0834 3.9695 15.723L3.34312 14.3227C3.16402 13.9223 3.48864 13.4792 3.92438 13.5292C4.29653 13.5719 4.60679 13.2479 4.54796 12.8779L4.38772 11.8702C4.32487 11.4749 4.70569 11.1551 5.08412 11.2854C5.42849 11.4039 5.78711 11.148 5.78711 10.7838V8.84541C5.78711 8.43056 6.14969 8.109 6.56156 8.15857C6.97375 8.20818 7.3365 7.8861 7.33602 7.47094L7.33411 5.80382C7.33357 5.33553 7.79778 5.00853 8.23855 5.16671C8.64007 5.31081 9.07306 5.05158 9.13566 4.6296L9.57023 1.7007C9.72133 0.682258 10.6233 -0.0534958 11.6513 0.00305032C12.7622 0.0641565 13.6081 1.02296 13.5301 2.13285L13.4562 3.18503C13.4238 3.64757 13.7221 4.0688 14.1692 4.19166C14.5651 4.30044 14.8502 4.64595 14.8817 5.05529L14.9999 6.58728C15.0326 7.01115 15.4716 7.27786 15.8628 7.11152C16.1556 6.98703 16.4951 7.10373 16.6495 7.38193L17.8815 9.60191C18.1042 10.0032 18.6176 10.136 19.007 9.89305L19.1556 9.80028C19.4078 9.64293 19.7372 9.69433 19.9295 9.92103C20.3219 10.3838 21.0746 10.0367 20.9774 9.43776L20.4978 6.4809C20.3572 5.61445 21.0222 4.82662 21.8999 4.8196L22.3285 4.81618C23.328 4.8082 24.1426 5.61625 24.1426 6.61581V10.4727C24.1426 11.1007 24.914 11.4016 25.3392 10.9393L25.3678 10.9082C25.5589 10.7006 25.8643 10.6444 26.1167 10.7704C26.3863 10.9051 26.7134 10.8311 26.8987 10.5935L27.8437 9.38255C28.096 9.05923 28.5028 8.89676 28.9084 8.95732C29.2574 9.00944 29.6109 8.89658 29.8651 8.65184L32.124 6.47755C32.2258 6.37958 32.3065 6.2618 32.361 6.13147C32.7987 5.08522 34.358 5.40394 34.3501 6.53806L34.3345 8.7773C34.3319 9.15294 34.7058 9.41517 35.0581 9.28477C35.3481 9.17742 35.6686 9.33648 35.7585 9.63236L35.7832 9.71359C35.8748 10.0153 36.1792 10.1994 36.489 10.1404L37.1528 10.0142C37.623 9.92469 38.0123 9.59616 38.1797 9.1477L39.3139 6.10756C39.4324 5.79006 39.3278 5.43245 39.057 5.22879C38.4698 4.78729 38.782 3.85247 39.5167 3.85247H40.2059C40.6231 3.85247 40.996 4.1127 41.14 4.50428L42.2091 7.4128C42.537 8.3047 43.4472 8.84277 44.3867 8.70008L44.6981 8.65277C45.6096 8.51433 46.3084 7.77075 46.39 6.85242L46.5755 4.76339C46.6218 4.24205 47.0572 3.84152 47.5805 3.8387C48.0877 3.83596 48.519 4.20824 48.5904 4.7104L48.9328 7.11902C49.0632 8.03661 49.8069 8.74438 50.7299 8.82918L62.2134 9.88434C63.1234 9.96796 63.951 9.35442 64.1354 8.45938C64.3046 7.63793 65.0203 7.04324 65.8588 7.02723L70.7353 6.93407C71.808 6.91358 72.7059 7.74327 72.7699 8.81433L72.7901 9.15146C72.849 10.1377 73.6193 10.9331 74.6031 11.0237L75.0112 11.0612C75.4001 11.0971 75.7701 11.246 76.0754 11.4897L77.8238 12.8852C78.5535 13.4676 79.5891 13.4676 80.3189 12.8853L82.0682 11.4895C82.3735 11.2459 82.7433 11.0971 83.1322 11.0612L83.54 11.0237C84.5236 10.9331 85.2937 10.138 85.3529 9.15196L85.3732 8.81383C85.4375 7.74298 86.3352 6.91357 87.4078 6.93406L92.2848 7.02723C93.1233 7.04324 93.8388 7.63799 94.0077 8.45939C94.1918 9.35435 95.0192 9.96796 95.929 9.88436L107.414 8.82917C108.337 8.74438 109.08 8.0366 109.211 7.11901L109.553 4.7104C109.625 4.20824 110.056 3.83596 110.563 3.8387C111.086 3.84152 111.522 4.24205 111.568 4.76339L111.754 6.85242C111.835 7.77075 112.534 8.51433 113.445 8.65277L113.757 8.70008C114.696 8.84277 115.607 8.3047 115.934 7.4128L117.004 4.50428C117.148 4.1127 117.52 3.85247 117.938 3.85247H118.627C119.362 3.85247 119.674 4.78729 119.087 5.22879C118.816 5.43245 118.711 5.79006 118.83 6.10756L119.964 9.1477C120.131 9.59616 120.521 9.92469 120.991 10.0142L121.655 10.1404C121.964 10.1994 122.269 10.0153 122.36 9.71359L122.385 9.63236C122.475 9.33648 122.795 9.17742 123.085 9.28477C123.438 9.41517 123.812 9.15294 123.809 8.7773L123.793 6.53806C123.786 5.40394 125.345 5.08522 125.783 6.13147C125.837 6.2618 125.918 6.37958 126.02 6.47755L128.278 8.65184C128.533 8.89658 128.886 9.00944 129.235 8.95732C129.641 8.89676 130.048 9.05923 130.3 9.38255L131.245 10.5935C131.43 10.8311 131.757 10.9051 132.027 10.7704C132.279 10.6444 132.585 10.7006 132.776 10.9082L132.804 10.9393C133.23 11.4016 134.001 11.1007 134.001 10.4727V6.61581C134.001 5.61625 134.816 4.8082 135.815 4.81618L136.244 4.8196C137.121 4.82662 137.786 5.61445 137.646 6.4809L137.166 9.43776C137.069 10.0367 137.822 10.3838 138.214 9.92103C138.406 9.69433 138.736 9.64293 138.988 9.80028L139.137 9.89305C139.526 10.136 140.039 10.0032 140.262 9.60191L141.494 7.38193C141.648 7.10373 141.988 6.98703 142.281 7.11152C142.672 7.27786 143.111 7.01115 143.144 6.58728L143.262 5.05529C143.293 4.64595 143.578 4.30044 143.974 4.19166C144.421 4.0688 144.72 3.64757 144.687 3.18503L144.613 2.13285C144.535 1.02296 145.381 0.0641565 146.492 0.00305033C147.52 -0.0534958 148.422 0.682258 148.573 1.7007L149.008 4.6296ZM22.2116 69.9081C21.2816 69.9081 20.5029 70.613 20.4106 71.5384L19.4922 80.7411C19.3575 82.0906 20.5766 83.18 21.9025 82.8951L22.8431 82.6929C23.7647 82.4949 24.4229 81.6802 24.4229 80.7376V74.9179L24.0085 71.5003C23.8983 70.5916 23.127 69.9081 22.2116 69.9081ZM133.721 74.9179V80.7376C133.721 81.6802 134.379 82.4949 135.3 82.6929L136.241 82.8951C137.567 83.18 138.786 82.0906 138.651 80.7411L137.733 71.5384C137.641 70.613 136.862 69.9081 135.932 69.9081C135.017 69.9081 134.245 70.5916 134.135 71.5003L133.721 74.9179ZM33.2595 65.1597C33.2113 65.3727 33.038 65.5347 32.8222 65.5683L31.0458 65.845C30.323 65.9576 29.8719 66.6896 30.0962 67.3859C30.3489 68.1703 31.3031 68.4666 31.9557 67.9634L34.377 66.0964C34.8679 65.7179 34.6959 64.9387 34.0912 64.802L33.8962 64.7579C33.6094 64.6931 33.3244 64.873 33.2595 65.1597ZM124.052 64.802C123.448 64.9387 123.276 65.7179 123.767 66.0964L126.188 67.9634C126.84 68.4666 127.795 68.1703 128.047 67.3859C128.272 66.6896 127.821 65.9576 127.098 65.845L125.321 65.5683C125.106 65.5347 124.932 65.3727 124.884 65.1597C124.819 64.873 124.534 64.6931 124.247 64.7579L124.052 64.802ZM62.0962 49.7711C61.944 49.8044 61.7963 49.8554 61.656 49.923L57.7859 51.7872C57.0562 52.1388 56.6105 52.8957 56.6572 53.7043L56.9653 59.0453C57.0062 59.7529 57.4185 60.3861 58.0492 60.7096L61.578 62.5198C61.7304 62.598 61.8923 62.6563 62.0596 62.6933L63.5173 63.0152C64.8253 63.304 66.042 62.2504 65.9431 60.9144L65.2396 51.4191C65.1498 50.2056 64.006 49.3529 62.8173 49.6132L62.0962 49.7711ZM92.1995 60.9146C92.1006 62.2505 93.3172 63.3041 94.6252 63.0153L96.0839 62.6933C96.2512 62.6563 96.4131 62.598 96.5656 62.5198L100.094 60.7096C100.725 60.3861 101.137 59.7529 101.178 59.0453L101.486 53.7043C101.533 52.8957 101.087 52.1388 100.358 51.7872L96.4876 49.923C96.3473 49.8554 96.1995 49.8044 96.0473 49.7711L95.3252 49.613C94.1365 49.3528 92.9928 50.2055 92.9029 51.419L92.1995 60.9146ZM46.6012 60.6083C46.393 60.6681 46.3908 60.9623 46.5981 61.0253C46.6685 61.0466 46.7449 61.0309 46.8012 60.9835C46.9806 60.8325 46.8267 60.5436 46.6012 60.6083ZM111.342 60.9835C111.399 61.0309 111.475 61.0466 111.545 61.0253C111.753 60.9623 111.751 60.6681 111.542 60.6083C111.317 60.5436 111.163 60.8325 111.342 60.9835ZM14.8215 57.5326C14.767 57.6241 14.6605 57.671 14.5562 57.6495L14.1264 57.5608C13.4845 57.4282 12.9336 58.0291 13.1213 58.6571L13.2517 59.0935C13.3748 59.5055 13.7389 59.799 14.1676 59.832L14.5334 59.8601C14.9394 59.8913 15.2861 59.5702 15.2861 59.1629V58.4325C15.2861 58.3599 15.2188 58.3059 15.1479 58.3217C15.0176 58.3507 14.9528 58.1701 15.0719 58.1097L15.2131 58.038C15.2579 58.0152 15.2861 57.9692 15.2861 57.919V57.6604C15.2861 57.4065 14.9514 57.3144 14.8215 57.5326ZM142.857 57.919C142.857 57.9692 142.886 58.0152 142.93 58.038L143.072 58.1097C143.191 58.1701 143.126 58.3507 142.996 58.3217C142.925 58.3059 142.857 58.3599 142.857 58.4325V59.1629C142.857 59.5702 143.204 59.8913 143.61 59.8601L143.976 59.832C144.405 59.799 144.769 59.5055 144.892 59.0935L145.022 58.6571C145.21 58.0291 144.659 57.4282 144.017 57.5608L143.587 57.6495C143.483 57.671 143.377 57.6241 143.322 57.5326C143.192 57.3144 142.857 57.4065 142.857 57.6604V57.919ZM46.6289 52.7578C46.6289 52.9476 46.7139 53.1274 46.8605 53.2478L47.5488 53.8132C48.0371 54.2143 48.7502 53.7434 48.573 53.1369C48.5357 53.009 48.4595 52.896 48.3551 52.8133L47.6566 52.2605C47.2409 51.9315 46.6289 52.2276 46.6289 52.7578ZM109.788 52.8133C109.684 52.896 109.608 53.009 109.571 53.1369C109.393 53.7434 110.107 54.2143 110.595 53.8132L111.283 53.2478C111.43 53.1274 111.515 52.9476 111.515 52.7578C111.515 52.2276 110.903 51.9315 110.487 52.2605L109.788 52.8133ZM32.1521 38.2382C32.0294 38.3898 32.0715 38.6152 32.2408 38.7121C32.4382 38.8251 32.6868 38.6992 32.7125 38.4732C32.7482 38.1588 32.3513 37.9924 32.1521 38.2382ZM125.431 38.4732C125.457 38.6992 125.705 38.8251 125.903 38.7121C126.072 38.6152 126.114 38.3898 125.991 38.2382C125.792 37.9924 125.395 38.1588 125.431 38.4732ZM35.6564 35.0306C35.5466 35.1623 35.4771 35.3228 35.456 35.493L35.2139 37.4478C35.1734 37.775 35.3764 38.0832 35.693 38.1751C36.0327 38.2738 36.3907 38.0919 36.5114 37.7594L37.1834 35.9079C37.5251 34.9665 36.2975 34.2613 35.6564 35.0306ZM121.632 37.7594C121.753 38.0919 122.111 38.2738 122.451 38.1751C122.767 38.0832 122.97 37.775 122.93 37.4478L122.688 35.493C122.666 35.3228 122.597 35.1623 122.487 35.0306C121.846 34.2613 120.618 34.9666 120.96 35.9079L121.632 37.7594ZM31.303 34.7741C30.4079 35.0115 30.021 36.0664 30.5505 36.8262L30.6058 36.9056C31.1052 37.6223 32.1559 37.6506 32.6932 36.9619C32.8402 36.7735 32.9323 36.5481 32.9593 36.3107L32.9703 36.2145C33.0766 35.2813 32.2108 34.5334 31.303 34.7741ZM125.184 36.3107C125.211 36.5481 125.303 36.7735 125.45 36.9619C125.988 37.6506 127.038 37.6223 127.538 36.9056L127.593 36.8262C128.123 36.0664 127.736 35.0115 126.841 34.7741C125.933 34.5334 125.067 35.2813 125.173 36.2145L125.184 36.3107ZM32.6966 23.8908C31.345 24.0628 30.6964 25.6424 31.5372 26.7146L33.2381 28.8835C33.3833 29.0686 33.4637 29.2963 33.467 29.5315C33.4812 30.5344 34.7398 30.973 35.3742 30.1961L36.9961 28.21C37.8438 27.172 37.4507 25.6103 36.2127 25.0973L33.5899 24.0105C33.3077 23.8935 32.9997 23.8523 32.6966 23.8908ZM121.931 25.0973C120.693 25.6103 120.3 27.172 121.147 28.21L122.769 30.1961C123.404 30.973 124.662 30.5344 124.677 29.5315C124.68 29.2963 124.76 29.0686 124.905 28.8835L126.606 26.7146C127.447 25.6424 126.799 24.0628 125.447 23.8908C125.144 23.8523 124.836 23.8935 124.554 24.0105L121.931 25.0973ZM52.0891 24.3826C52.1267 24.6683 52.3735 24.8799 52.6616 24.8736L55.2196 24.8175C55.3111 24.8155 55.3981 24.7777 55.462 24.7122C55.661 24.5081 55.5449 24.1644 55.2629 24.1229L52.7316 23.7497C52.3605 23.695 52.04 24.0106 52.0891 24.3826ZM102.881 24.1229C102.599 24.1644 102.483 24.5081 102.682 24.7122C102.745 24.7777 102.832 24.8155 102.924 24.8175L105.482 24.8736C105.77 24.8799 106.017 24.6683 106.054 24.3826C106.104 24.0106 105.783 23.695 105.412 23.7497L102.881 24.1229Z" fill="var(--fill-0, black)"/>
</svg>
