<svg preserveAspectRatio="none" width="100%" height="100%" overflow="visible" style="display: block;" viewBox="0 0 161.184 102.379" fill="none" xmlns="http://www.w3.org/2000/svg">
<path id="Union" d="M158.831 1.17563C159.011 1.52699 159.514 1.5228 159.688 1.1685C159.844 0.850062 160.28 0.805708 160.497 1.08618L160.981 1.71111C161.219 2.01873 161.25 2.43869 161.061 2.77847L154.616 14.3459C154.438 14.6649 154.176 14.9291 153.859 15.1099L149.075 17.8371C148.451 18.1929 148.066 18.8562 148.066 19.5746V26.4731C148.066 27.0755 147.794 27.6458 147.326 28.0256L144.984 29.928C144.62 30.2234 144.372 30.6372 144.282 31.0972L143.64 34.3867C143.576 34.712 143.433 35.0165 143.223 35.2726L138.79 40.6718C138.409 41.1352 137.833 41.3929 137.234 41.3677C136.289 41.3279 135.457 41.9872 135.279 42.917L134.903 44.8895C134.789 45.489 134.954 46.1078 135.352 46.5701L137.049 48.5382C137.655 49.2413 138.685 49.3922 139.468 48.8925C140.114 48.4798 140.442 47.714 140.294 46.9615L140.051 45.7148C139.922 45.0571 140.132 44.3786 140.609 43.9078L141.685 42.8452C142.014 42.5206 142.445 42.3199 142.905 42.2771L144.563 42.123C145.449 42.0406 146.283 42.5537 146.609 43.3819L147.501 45.6474C147.777 46.3504 148.48 46.7915 149.233 46.7355C150.101 46.671 150.881 47.2637 151.052 48.1174L153.316 59.4531C153.378 59.7641 153.513 60.0559 153.71 60.3043L157.107 64.5864C157.299 64.828 157.432 65.1105 157.496 65.412L158.664 70.8814C158.791 71.4786 158.639 72.1012 158.25 72.5721L157.025 74.0563C156.315 74.9166 156.446 76.1917 157.316 76.8897L157.746 77.2343C157.961 77.4069 158.086 77.6679 158.086 77.9438C158.086 78.6728 157.272 79.1056 156.667 78.6976L151.366 75.117C150.155 74.2989 148.504 75.0142 148.272 76.4574L146.33 88.5522C146.293 88.7805 146.352 89.0139 146.492 89.1979C147.007 89.8762 146.31 90.805 145.515 90.4987L143.73 89.8111C143.188 89.6022 142.833 89.0774 142.841 88.4962L142.857 87.3687C142.879 85.7649 141.099 84.7885 139.759 85.6692L139.616 85.7629C139.28 85.9839 138.885 86.0982 138.482 86.0911L131.227 85.9618C130.288 85.945 129.487 85.2771 129.302 84.3563L128.074 78.2468C128.048 78.1172 127.99 77.9961 127.906 77.8945C127.307 77.1747 126.173 77.8988 126.573 78.7448L127.986 81.7262C128.165 82.1051 128.137 82.5498 127.91 82.9024L127.232 83.9552C126.649 84.8616 125.357 84.9507 124.655 84.1331C124.404 83.8409 124.266 83.4684 124.266 83.0831V80.1828C124.266 79.9759 124.194 79.7755 124.062 79.6157C123.475 78.9024 122.324 79.4419 122.497 80.3495L123.214 84.1208C123.302 84.5841 123.157 85.0611 122.825 85.3964L122.082 86.1476C121.585 86.6498 120.728 86.3887 120.596 85.6947L120.458 84.9711C120.284 84.0566 118.947 84.1471 118.897 85.0767C118.885 85.3184 118.761 85.5407 118.563 85.6798L117.801 86.215C117.063 86.7334 116.039 86.5114 115.582 85.7337C115.345 85.3301 115.304 84.8406 115.47 84.4029L116.588 81.4591C116.655 81.2842 116.664 81.0928 116.614 80.9125C116.375 80.0497 115.15 80.0543 114.918 80.9188L113.881 84.7778C113.762 85.2185 113.494 85.6044 113.123 85.8695L112.124 86.5823C111.677 86.9011 111.053 86.7652 110.779 86.2896L110.514 85.8282C110.314 85.4815 109.828 85.445 109.579 85.7579C109.364 86.0281 109.438 86.4261 109.736 86.6004L110.89 87.2753C111.997 87.9226 112.036 89.5085 110.962 90.2091L110.475 90.5269C110.148 90.7403 109.76 90.8397 109.37 90.8097L105.975 90.5482C105.526 90.5136 105.273 91.0535 105.587 91.3761L105.788 91.5813C106.073 91.8738 105.796 92.3568 105.4 92.2596C105.129 92.1933 104.874 92.4124 104.898 92.6897L105.008 93.938C105.03 94.1867 105.122 94.4239 105.275 94.6214L107.07 96.9439C107.543 97.5557 107.39 98.4411 106.74 98.8594L106.005 99.3322C105.7 99.5286 105.645 99.953 105.892 100.22C106.31 100.674 105.831 101.382 105.254 101.162L103.533 100.507C103.384 100.45 103.224 100.429 103.066 100.445L98.0426 100.963C97.8691 100.981 97.7068 101.057 97.5825 101.18L96.5 102.245C96.1479 102.592 95.5735 102.207 95.7597 101.75C95.8943 101.419 95.6129 101.069 95.2612 101.13L94.0638 101.337C93.4226 101.447 92.8208 100.994 92.7494 100.347L92.5436 98.4822C92.4733 97.8449 92.9253 97.2683 93.5609 97.1843C94.0996 97.1131 94.5199 96.6829 94.5784 96.1427L94.6453 95.526C94.8001 94.0979 93.4107 92.9943 92.049 93.4516C90.5592 93.952 89.0914 92.6112 89.4758 91.0874L89.8859 89.4611C90.0363 88.8649 89.7812 88.2401 89.2563 87.9196C88.7883 87.6338 88.1968 87.6467 87.7416 87.9525L83.7281 90.6495C83.1898 91.0112 83.2748 91.8276 83.8761 92.0706C84.4733 92.3119 84.5625 93.1204 84.0323 93.4861L83.5137 93.8438C83.1255 94.1116 82.613 94.1147 82.2216 93.8516L81.7079 93.5064C81.0331 93.0529 80.1509 93.053 79.4762 93.5067L78.9625 93.8522C78.571 94.1155 78.0583 94.1125 77.67 93.8446L77.1522 93.4875C76.6217 93.1216 76.7108 92.3126 77.3083 92.071C77.9099 91.8278 77.9949 91.011 77.4563 90.6491L73.4423 87.9516C72.9871 87.6457 72.3956 87.6329 71.9276 87.9186C71.4027 88.2391 71.1476 88.8639 71.298 89.4601L71.7081 91.0864C72.0925 92.6102 70.6247 93.951 69.1349 93.4507C67.7732 92.9933 66.3838 94.0969 66.5386 95.525L66.6055 96.1417C66.664 96.6819 67.0843 97.1121 67.623 97.1833C68.2586 97.2673 68.7106 97.844 68.6403 98.4812L68.4345 100.347C68.3631 100.993 67.7613 101.446 67.1201 101.336L65.9227 101.129C65.571 101.068 65.2896 101.418 65.4242 101.749C65.6104 102.206 65.036 102.591 64.6839 102.244L63.6014 101.179C63.4771 101.056 63.3148 100.98 63.1413 100.962L58.1177 100.444C57.9595 100.428 57.7997 100.449 57.6511 100.506L55.9302 101.161C55.3533 101.381 54.8739 100.673 55.2923 100.219C55.5384 99.952 55.4842 99.5276 55.1788 99.3312L54.4438 98.8585C53.7935 98.4402 53.641 97.5547 54.1139 96.9429L55.9089 94.6204C56.0616 94.4229 56.1543 94.1857 56.1761 93.937L56.2856 92.6887C56.3099 92.4114 56.0545 92.1923 55.7841 92.2586C55.3875 92.3558 55.1114 91.8728 55.3964 91.5804L55.5965 91.3751C55.9108 91.0525 55.6582 90.5126 55.2091 90.5472L51.8136 90.8087C51.4241 90.8387 51.0357 90.7393 50.7086 90.5259L50.2207 90.2076C49.1471 89.5072 49.1859 87.9219 50.2925 87.2749L51.4474 86.5997C51.7456 86.4253 51.8198 86.027 51.6044 85.757C51.3551 85.4445 50.8693 85.4813 50.67 85.8279L50.4046 86.2896C50.1309 86.7657 49.5063 86.9018 49.0594 86.5829L48.0611 85.8705C47.6896 85.6054 47.4217 85.2195 47.3033 84.7788L46.2663 80.9198C46.034 80.0552 44.8089 80.0507 44.5701 80.9135C44.5202 81.0937 44.5291 81.2852 44.5956 81.4601L45.7138 84.4039C45.88 84.8416 45.8387 85.331 45.6015 85.7347C45.1444 86.5123 44.121 86.7344 43.3828 86.216L42.6205 85.6807C42.4225 85.5417 42.2993 85.3193 42.2865 85.0777C42.237 84.1481 40.8998 84.0576 40.7256 84.9721L40.5877 85.6957C40.4555 86.3897 39.5991 86.6508 39.1023 86.1486L38.3591 85.3973C38.0274 85.0621 37.8819 84.5851 37.97 84.1218L38.6871 80.3505C38.8597 79.4429 37.7086 78.9034 37.1215 79.6167C36.99 79.7764 36.9181 79.9769 36.9181 80.1838V83.0841C36.9181 83.4694 36.7801 83.8418 36.5291 84.1341C35.8268 84.9517 34.5353 84.8625 33.9519 83.9562L33.2742 82.9034C33.0473 82.5508 33.0185 82.1061 33.198 81.7272L34.6105 78.7458C35.0113 77.8997 33.8771 77.1757 33.2784 77.8954C33.1938 77.9971 33.1359 78.1182 33.1099 78.2478L31.8816 84.3573C31.6965 85.2781 30.8956 85.946 29.9565 85.9628L22.7017 86.092C22.2994 86.0992 21.9042 85.9848 21.5679 85.7639L21.4253 85.6702C20.0848 84.7894 18.3049 85.7658 18.3273 87.3697L18.3431 88.4972C18.3512 89.0784 17.9964 89.6031 17.454 89.8121L15.6692 90.4997C14.8742 90.806 14.1765 89.8771 14.6921 89.1989C14.8321 89.0148 14.8905 88.7815 14.8539 88.5531L12.912 76.4583C12.6803 75.0151 11.0292 74.2999 9.81792 75.118L4.5165 78.6986C3.91241 79.1066 3.09781 78.6738 3.09781 77.9448C3.09781 77.6689 3.22307 77.4079 3.43832 77.2352L3.86793 76.8907C4.73823 76.1927 4.86923 74.9176 4.15902 74.0573L2.93382 72.573C2.54512 72.1022 2.39281 71.4795 2.52025 70.8824L3.68749 65.413C3.75183 65.1115 3.88501 64.8289 4.07661 64.5874L7.47368 60.3053C7.6708 60.0568 7.80599 59.7651 7.86811 59.454L10.1323 48.1183C10.3028 47.2647 11.0828 46.672 11.951 46.7365C12.7044 46.7924 13.4065 46.3514 13.6832 45.6484L14.5749 43.3829C14.9009 42.5547 15.7349 42.0416 16.6211 42.124L18.279 42.2781C18.739 42.3209 19.1701 42.5216 19.4989 42.8462L20.5753 43.9087C21.0523 44.3796 21.2617 45.058 21.1331 45.7158L20.8894 46.9625C20.7423 47.7149 21.0703 48.4808 21.7164 48.8935C22.4986 49.3932 23.5291 49.2422 24.1351 48.5392L25.8314 46.5711C26.2298 46.1088 26.3954 45.49 26.281 44.8905L25.9047 42.9179C25.7273 41.9881 24.8952 41.3288 23.9495 41.3687C23.3505 41.3939 22.7745 41.1362 22.394 40.6728L17.9612 35.2736C17.7509 35.0174 17.6075 34.713 17.544 34.3877L16.9018 31.0982C16.812 30.6382 16.5636 30.2244 16.1998 29.9289L13.8574 28.0266C13.3898 27.6468 13.1183 27.0765 13.1183 26.4741V19.5756C13.1183 18.8572 12.733 18.1939 12.1088 17.8381L7.3249 15.1109C7.0077 14.9301 6.74604 14.6659 6.56832 14.3469L0.122849 2.77945C-0.0664809 2.43967 -0.0348758 2.01971 0.203176 1.71209L0.686779 1.08715C0.90382 0.806685 1.33976 0.851039 1.49587 1.16947C1.66956 1.52378 2.17311 1.52797 2.35267 1.1766L2.71042 0.476586C2.99678 -0.0837509 3.76406 -0.166003 4.16268 0.320904L6.05449 2.6317C6.3647 3.01061 6.94069 3.02089 7.26422 2.65329C7.66491 2.19802 8.40749 2.34227 8.60859 2.91444L8.77825 3.39714C8.90667 3.76251 8.83219 4.16857 8.58246 4.46459L7.69776 5.51326C6.98338 6.36006 7.14293 7.63614 8.04382 8.28097C8.76434 8.7967 9.7458 8.74537 10.4086 8.1573L12.1616 6.6019C12.5751 6.23502 13.122 6.05564 13.6725 6.10636L22.1655 6.88884C22.5954 6.92845 22.9955 6.66522 23.1292 6.25476C23.2619 5.84756 23.657 5.58482 24.0838 5.61988L30.6004 6.1551C31.2312 6.20691 31.462 5.34434 30.8896 5.07423C30.6906 4.98033 30.5636 4.78005 30.5636 4.56002V2.7798C30.5636 1.67523 31.4591 0.7798 32.5636 0.7798H33.0187C33.475 0.7798 33.9176 0.935828 34.273 1.22199L37.1576 3.54454C37.432 3.76549 37.8208 3.77379 38.1044 3.56477L38.6979 3.12737C38.8355 3.02594 39.0321 3.09006 39.0834 3.25313C39.1713 3.53248 39.5855 3.45747 39.5699 3.16503L39.4594 1.09527C39.4491 0.901918 39.5488 0.719323 39.7171 0.62357L40.0323 0.444239C40.431 0.217374 40.9288 0.262232 41.2805 0.556734L42.3734 1.4718C42.7372 1.77645 43.2942 1.5614 43.3588 1.09127C43.4174 0.665749 43.8891 0.435808 44.2603 0.651813L45.5047 1.37579C45.9463 1.63272 46.235 2.08868 46.2785 2.59774L47.6448 18.5991C47.6698 18.8918 47.6301 19.1863 47.5284 19.4618L46.4372 22.4182C46.3078 22.7688 46.6134 23.1253 46.9797 23.051C47.3208 22.9818 47.6189 23.2894 47.5389 23.6283L47.3488 24.4337C47.2824 24.7152 47.3413 25.0133 47.5086 25.2492C47.9438 25.8627 48.8731 25.8214 49.2439 25.167L49.5674 24.596C49.8375 24.1192 50.3886 23.8763 50.9228 23.9986C51.5656 24.1458 52.2111 23.7641 52.3918 23.1299L52.8961 21.3597C53 20.9947 52.9311 20.6022 52.709 20.2945C52.2462 19.6534 52.4938 18.7486 53.2186 18.4326L53.2527 18.4177C53.6005 18.2661 53.8622 17.9669 53.9662 17.602L54.0116 17.4429C54.4338 15.9621 56.5141 15.9121 57.0068 17.371C57.2136 17.9832 57.7747 18.4061 58.4202 18.4361L62.2658 18.6154C62.5735 18.6298 62.8737 18.715 63.143 18.8644L66.4588 20.7043C66.9533 20.9787 67.5409 21.0309 68.0761 20.8479L69.5808 20.3335C69.9712 20.2001 70.3934 20.1906 70.7894 20.3065L80.0283 23.01C80.3951 23.1173 80.7849 23.1173 81.1517 23.01L90.3945 20.3055C90.7905 20.1897 91.2127 20.1991 91.6031 20.3326L93.1078 20.847C93.643 21.0299 94.2306 20.9777 94.7252 20.7033L98.0409 18.8635C98.3102 18.714 98.6104 18.6288 98.9181 18.6144L102.764 18.4352C103.409 18.4051 103.97 17.9824 104.177 17.3704C104.67 15.9119 106.749 15.9621 107.171 17.4426L107.217 17.6027C107.321 17.9677 107.583 18.2671 107.931 18.4187L107.966 18.434C108.69 18.7498 108.938 19.6541 108.475 20.2948C108.253 20.6023 108.184 20.9946 108.288 21.3595L108.792 23.129C108.973 23.7632 109.618 24.1449 110.261 23.9977C110.795 23.8754 111.346 24.1183 111.616 24.5952L111.94 25.1667C112.311 25.8211 113.24 25.8627 113.675 25.2491C113.842 25.0131 113.901 24.7152 113.834 24.4337L113.645 23.6271C113.565 23.2883 113.863 22.9808 114.204 23.05C114.57 23.1243 114.876 22.7677 114.747 22.417L113.656 19.4609C113.554 19.1853 113.514 18.8908 113.539 18.5982L114.905 2.59676C114.949 2.08771 115.238 1.63174 115.679 1.37481L116.924 0.650836C117.295 0.434831 117.767 0.664772 117.825 1.09029C117.89 1.56042 118.447 1.77548 118.811 1.47083L119.903 0.555758C120.255 0.261256 120.753 0.216397 121.152 0.443263L121.467 0.622594C121.635 0.718347 121.735 0.900941 121.725 1.09429L121.614 3.16405C121.598 3.4565 122.013 3.53151 122.101 3.25216C122.152 3.08908 122.348 3.02496 122.486 3.12639L123.079 3.56379C123.363 3.77282 123.752 3.76451 124.026 3.54356L126.911 1.22101C127.266 0.934852 127.709 0.778824 128.165 0.778824H128.62C129.725 0.778824 130.62 1.67425 130.62 2.77882V4.55905C130.62 4.77908 130.493 4.97935 130.294 5.07325C129.722 5.34336 129.953 6.20594 130.584 6.15413L137.1 5.6189C137.527 5.58385 137.922 5.84658 138.055 6.25378C138.188 6.66425 138.588 6.92747 139.018 6.88786L147.511 6.10538C148.062 6.05467 148.609 6.23404 149.022 6.60092L150.775 8.15633C151.438 8.7444 152.42 8.79572 153.14 8.27999C154.041 7.63516 154.201 6.35908 153.486 5.51229L152.601 4.46361C152.352 4.16759 152.277 3.76154 152.406 3.39616L152.575 2.91346C152.776 2.3413 153.519 2.19705 153.92 2.65231C154.243 3.01991 154.819 3.00963 155.129 2.63072L157.021 0.319927C157.42 -0.16698 158.187 -0.0847279 158.473 0.475609L158.831 1.17563ZM72.4509 78.4813C71.3619 78.5028 70.4904 79.3917 70.4904 80.4809V82.713C70.4904 83.1385 70.6762 83.5428 70.9991 83.8199L71.016 83.8344C71.48 84.2326 72.1462 84.2911 72.6725 83.9797C73.2673 83.6278 74.0289 83.7526 74.4803 84.276L78.7977 89.2824C78.9463 89.4547 79.1974 89.4951 79.3925 89.378C79.6821 89.2043 80.0547 89.3852 80.0971 89.7202L80.1762 90.3436C80.1953 90.4947 80.2953 90.6239 80.4366 90.6808C80.5367 90.721 80.6488 90.7212 80.7489 90.681C80.8895 90.6244 80.9885 90.4962 81.0076 90.3458L81.0868 89.7212C81.1293 89.3862 81.5019 89.2052 81.7914 89.379C81.9865 89.496 82.2376 89.4557 82.3862 89.2834L86.7036 84.277C87.155 83.7536 87.9166 83.6287 88.5114 83.9807C89.0377 84.292 89.7039 84.2336 90.1679 83.8354L90.1849 83.8208C90.5077 83.5437 90.6935 83.1395 90.6935 82.714V80.4819C90.6935 79.3927 89.822 78.5038 88.733 78.4823L80.5666 78.3208L72.4509 78.4813ZM53.5201 79.0823C53.3344 79.3125 53.2864 79.6246 53.3942 79.9L53.885 81.1538C53.9645 81.3569 54.0767 81.5456 54.2171 81.7124L54.5573 82.1168C54.5622 82.1226 54.5676 82.1279 54.5734 82.1327C54.6303 82.1795 54.7151 82.1666 54.7556 82.1052L55.4173 81.1003C55.721 80.6391 55.6726 80.0305 55.2999 79.623L54.7697 79.0433C54.4291 78.671 53.8368 78.6894 53.5201 79.0823ZM105.882 79.6226C105.509 80.0303 105.461 80.6392 105.765 81.1005L106.423 82.0993C106.466 82.1639 106.555 82.1774 106.615 82.1283C106.621 82.1232 106.627 82.1175 106.632 82.1114L106.966 81.7141C107.106 81.5474 107.217 81.359 107.297 81.1563L107.788 79.8999C107.896 79.6245 107.848 79.3126 107.662 79.0824C107.345 78.6895 106.753 78.671 106.412 79.0434L105.882 79.6226ZM18.5554 80.0427C18.5609 80.0854 18.5618 80.1286 18.5583 80.1715C18.5138 80.7078 19.1325 81.0372 19.5526 80.7007L20.7628 79.7315C21.5705 79.0846 21.3171 77.7966 20.3245 77.5039L20.1602 77.4555C19.2115 77.1758 18.2881 77.963 18.4142 78.944L18.5554 80.0427ZM140.859 77.503C139.867 77.7956 139.613 79.0837 140.421 79.7305L141.631 80.6998C142.051 81.0362 142.67 80.7069 142.626 80.1705C142.622 80.1276 142.623 80.0844 142.629 80.0417L142.77 78.943C142.896 77.962 141.972 77.1748 141.024 77.4545L140.859 77.503ZM111.81 78.6799C111.769 78.7509 111.774 78.8399 111.825 78.9047C111.946 79.06 112.195 78.9668 112.184 78.7704C112.173 78.5714 111.911 78.5079 111.81 78.6799ZM48.9994 78.7701C48.9886 78.9661 49.2369 79.0591 49.3574 78.9042C49.4077 78.8397 49.4136 78.7511 49.3725 78.6804C49.2725 78.5087 49.0104 78.5717 48.9994 78.7701ZM80.1973 71.2678C79.6628 71.4732 79.3734 72.0539 79.5326 72.604C79.8399 73.6655 81.3442 73.6643 81.6514 72.6028C81.8105 72.053 81.5223 71.4727 80.9881 71.2675C80.7337 71.1698 80.4517 71.17 80.1973 71.2678ZM51.7834 75.7834C51.7838 75.7847 51.7855 75.785 51.7864 75.7839C51.7869 75.7832 51.7868 75.7823 51.7862 75.7817C51.785 75.7804 51.7828 75.7817 51.7834 75.7834ZM109.396 75.7816C109.395 75.7822 109.395 75.7833 109.396 75.7841C109.397 75.7853 109.398 75.7851 109.399 75.7838C109.4 75.7819 109.398 75.7803 109.396 75.7816ZM6.36905 72.5407C6.02713 72.9639 6.03061 73.5694 6.37736 73.9887C6.83262 74.5392 7.67546 74.5424 8.13491 73.9954L11.5778 69.8965C11.817 69.6118 11.91 69.232 11.8295 68.869C11.6126 67.8916 10.3621 67.598 9.73299 68.3767L6.36905 72.5407ZM149.354 68.868C149.274 69.231 149.367 69.6108 149.606 69.8955L153.049 73.9944C153.508 74.5414 154.351 74.5382 154.807 73.9877C155.153 73.5684 155.157 72.9629 154.815 72.5397L151.451 68.3758C150.822 67.597 149.571 67.8906 149.354 68.868ZM22.8903 64.2694C22.5656 65.3734 20.9916 65.3435 20.7091 64.2279C20.5064 63.427 19.5413 63.1068 18.9 63.6276L17.8304 64.4962C17.7085 64.5952 17.527 64.5613 17.449 64.425C17.3145 64.1898 16.9545 64.2997 16.9742 64.5699L17.4213 70.7005C17.4721 71.3973 17.956 71.9868 18.6296 72.1723L20.4404 72.6712C21.2637 72.898 22.1403 72.577 22.6224 71.872L26.7347 65.8592C27.1548 65.2449 27.1991 64.4481 26.8497 63.791L26.172 62.5168C25.5208 61.2923 23.7118 61.4763 23.3205 62.8068L22.8903 64.2694ZM134.334 63.79C133.985 64.4471 134.029 65.2439 134.449 65.8582L138.562 71.8711C139.044 72.576 139.92 72.897 140.744 72.6702L142.554 72.1714C143.228 71.9858 143.712 71.3963 143.763 70.6995L144.21 64.5689C144.229 64.2987 143.869 64.1888 143.735 64.424C143.657 64.5603 143.475 64.5942 143.353 64.4952L142.284 63.6266C141.643 63.1058 140.678 63.426 140.475 64.2269C140.192 65.3425 138.618 65.3725 138.294 64.2684L137.863 62.8059C137.472 61.4753 135.663 61.2913 135.012 62.5158L134.334 63.79ZM79.5501 68.3891C79.4718 68.4053 79.3914 68.4075 79.3124 68.3955L78.8555 68.3264C78.5819 68.285 78.3575 68.5411 78.4344 68.807C78.461 68.8987 78.5212 68.9771 78.603 69.0264L79.5589 69.6023C80.1938 69.9848 80.9882 69.9849 81.6231 69.6024L82.5808 69.0254C82.6627 68.9761 82.7229 68.8978 82.7495 68.806C82.8264 68.5401 82.602 68.2841 82.3284 68.3254L81.8715 68.3946C81.7925 68.4065 81.7121 68.4043 81.6339 68.3882L80.9987 68.257C80.7316 68.2018 80.4562 68.2018 80.1892 68.257L79.5501 68.3891ZM101.425 68.6958C101.423 68.7449 101.48 68.7741 101.518 68.7441C101.561 68.7112 101.54 68.6427 101.486 68.6405C101.454 68.6392 101.427 68.664 101.425 68.6958ZM59.6975 68.6396C59.6437 68.6418 59.6219 68.71 59.6646 68.7429C59.7034 68.7729 59.7596 68.7438 59.7575 68.6947C59.7561 68.663 59.7293 68.6383 59.6975 68.6396ZM80.5492 55.396C80.4938 55.4182 80.5088 55.5004 80.5685 55.5015L80.594 55.501C80.6584 55.4998 80.6746 55.4111 80.6149 55.3872C80.6008 55.3816 80.5851 55.3816 80.571 55.3872L80.5492 55.396ZM79.7264 52.6026C79.2107 53.1878 79.413 54.1058 80.1272 54.4194C80.4221 54.5489 80.7581 54.5489 81.0531 54.4195C81.7677 54.1061 81.9712 53.1877 81.4553 52.6023C80.9966 52.0819 80.1851 52.0822 79.7264 52.6026ZM80.2349 44.7484C79.6266 45.017 79.5193 45.8353 80.0385 46.2508C80.362 46.5098 80.8221 46.5097 81.1458 46.2508C81.665 45.8354 81.559 45.0171 80.9508 44.7484C80.7228 44.6477 80.4629 44.6478 80.2349 44.7484ZM59.6306 42.0945C59.4186 42.0963 59.277 42.3137 59.3612 42.5083C59.4938 42.8149 59.9536 42.7015 59.9283 42.3683C59.9165 42.2129 59.7864 42.0933 59.6306 42.0945ZM101.255 42.3691C101.23 42.7019 101.689 42.815 101.821 42.5086C101.905 42.3143 101.764 42.0972 101.552 42.0955C101.396 42.0943 101.266 42.2138 101.255 42.3691ZM80.1764 41.0883C79.037 41.4675 78.954 43.0493 80.049 43.5422C80.3931 43.697 80.7874 43.6969 81.1314 43.5421C82.2266 43.0494 82.1486 41.4673 81.0091 41.0882C80.7389 40.9983 80.4466 40.9984 80.1764 41.0883ZM80.3714 38.0444C79.334 38.2627 79.1958 39.6899 80.1741 40.0984C80.4402 40.2095 80.7402 40.2093 81.0064 40.0982C81.9845 39.6901 81.8533 38.2625 80.8161 38.0443C80.6696 38.0135 80.518 38.0135 80.3714 38.0444ZM55.7579 37.9645C55.7874 38.2334 56.0146 38.437 56.2851 38.437C56.6588 38.437 56.9153 38.061 56.7789 37.7131L56.2897 36.4647C56.237 36.3301 56.1073 36.2414 55.9628 36.241C55.7526 36.2403 55.5886 36.4227 55.6115 36.6317L55.7579 37.9645ZM105.221 36.242C105.076 36.2424 104.947 36.3309 104.894 36.4653L104.405 37.7122C104.269 38.06 104.525 38.4361 104.899 38.4361C105.169 38.4361 105.396 38.2324 105.426 37.9635L105.572 36.6321C105.594 36.4234 105.431 36.2413 105.221 36.242ZM80.5152 36.566C80.1261 36.6385 80.064 37.17 80.4254 37.3313C80.5301 37.3781 80.6498 37.3781 80.7545 37.3314C81.1161 37.17 81.0522 36.6385 80.6629 36.566C80.6141 36.5569 80.564 36.5569 80.5152 36.566ZM105.146 27.2498C104.894 27.4441 104.931 27.8357 105.216 27.9792C105.635 28.1905 106.043 27.6757 105.742 27.3153C105.593 27.1372 105.33 27.1083 105.146 27.2498ZM55.4424 27.3153C55.1417 27.6749 55.5493 28.1887 55.9679 27.9777C56.2519 27.8345 56.2888 27.4438 56.0366 27.25C55.8531 27.1089 55.5909 27.1377 55.4424 27.3153ZM46.4902 28.0804C46.4744 28.1468 46.5081 28.2151 46.5703 28.2431L47.2513 28.5491C47.2861 28.5647 47.327 28.5513 47.3458 28.5182C47.3646 28.4849 47.355 28.4428 47.3236 28.4211L46.7097 27.9962C46.6273 27.9391 46.5133 27.9828 46.4902 28.0804ZM113.86 28.4221C113.829 28.4438 113.819 28.4858 113.838 28.5189C113.857 28.5517 113.898 28.5649 113.932 28.5494L114.613 28.2438C114.675 28.2159 114.709 28.1479 114.693 28.0816C114.67 27.9837 114.556 27.9396 114.473 27.9969L113.86 28.4221ZM51.4683 27.7673C51.4171 27.8287 51.4208 27.9189 51.4769 27.9759C51.5487 28.0489 51.6702 28.0338 51.7219 27.9455C51.8183 27.7808 51.5906 27.6208 51.4683 27.7673ZM109.462 27.9454C109.514 28.0337 109.635 28.0487 109.707 27.9756C109.762 27.9188 109.766 27.829 109.715 27.7678C109.593 27.6215 109.366 27.7811 109.462 27.9454ZM93.9941 25.0986C93.9745 25.1085 93.9621 25.1287 93.9622 25.1507L93.9662 26.7895C93.9667 26.9668 94.0837 27.1226 94.2538 27.1724C94.5799 27.2679 94.869 26.939 94.7324 26.6278L94.0737 25.1271C94.0603 25.0965 94.0239 25.0835 93.9941 25.0986ZM66.4513 26.6272C66.3148 26.9382 66.6038 27.2669 66.9296 27.1714C67.0995 27.1216 67.2163 26.966 67.2169 26.789L67.2217 25.1522C67.2218 25.1299 67.2092 25.1094 67.1892 25.0994C67.1592 25.0844 67.1226 25.0976 67.1091 25.1284L66.4513 26.6272ZM58.9196 23.992C58.8704 24.261 59.0706 24.5114 59.3438 24.5225L60.877 24.5847C61.0475 24.5916 61.2134 24.6417 61.3591 24.7303L61.7198 24.9494C61.7922 24.9933 61.882 24.9969 61.9576 24.9589C62.1507 24.8618 62.1331 24.5806 61.9295 24.5083L59.5127 23.6492C59.2516 23.5564 58.9695 23.7194 58.9196 23.992ZM99.252 24.5101C99.0492 24.5822 99.0316 24.8622 99.2239 24.9591C99.2991 24.997 99.3887 24.9935 99.4608 24.9498L99.8241 24.7295C99.9703 24.6408 100.137 24.5906 100.308 24.5837L101.841 24.5215C102.114 24.5104 102.314 24.2604 102.264 23.9918C102.214 23.7198 101.933 23.5572 101.672 23.6498L99.252 24.5101ZM54.8319 23.1644C54.9164 23.7263 55.5677 23.9972 56.0257 23.6609C56.5141 23.3024 56.4026 22.5436 55.8318 22.3406C55.2943 22.1495 54.7472 22.6003 54.8319 23.1644ZM105.352 22.341C104.782 22.5438 104.671 23.3021 105.159 23.6604C105.616 23.9964 106.267 23.7255 106.352 23.164C106.436 22.6004 105.889 22.1501 105.352 22.341ZM37.2209 8.48942C36.1144 8.72485 35.8851 10.203 36.8684 10.7626C37.1717 10.9351 37.3874 11.2284 37.462 11.5693L38.819 17.7779C38.92 18.2397 38.8062 18.7224 38.5098 19.0906L38.2335 19.4337C38.034 19.6813 37.9907 20.0201 38.1214 20.31C38.4636 21.0691 39.5817 20.9268 39.7229 20.1063L41.2858 11.0248C41.3841 10.4536 41.2298 9.86783 40.8628 9.41921L40.3595 8.80405C39.9391 8.29018 39.2669 8.05411 38.6175 8.19227L37.2209 8.48942ZM120.321 9.41823C119.954 9.86685 119.8 10.4526 119.898 11.0238L121.461 20.1053C121.602 20.9258 122.72 21.0681 123.062 20.309C123.193 20.0191 123.15 19.6804 122.95 19.4327L122.674 19.0896C122.378 18.7215 122.264 18.2388 122.365 17.777L123.722 11.5683C123.796 11.2274 124.012 10.9342 124.316 10.7616C125.299 10.2021 125.07 8.72387 123.963 8.48844L122.566 8.1913C121.917 8.05313 121.245 8.2892 120.824 8.80307L120.321 9.41823ZM18.0663 15.7267C18.2735 15.8733 18.3966 16.1113 18.3966 16.3651V17.4457C18.3966 19.0262 20.4031 19.7041 21.3616 18.4474C21.6116 18.1197 21.73 17.7104 21.6936 17.2999L21.5831 16.0529C21.5467 15.6425 21.2782 15.2892 20.8924 15.1444L18.7928 14.3562C17.9345 14.034 17.3179 15.1972 18.0663 15.7267ZM140.291 15.1435C139.906 15.2883 139.637 15.6415 139.601 16.0519L139.49 17.2989C139.454 17.7094 139.572 18.1187 139.822 18.4464C140.781 19.7031 142.787 19.0252 142.787 17.4447V16.3642C142.787 16.1104 142.91 15.8723 143.118 15.7258C143.866 15.1963 143.249 14.0331 142.391 14.3553L140.291 15.1435Z" fill="var(--fill-0, black)"/>
</svg>
