<svg preserveAspectRatio="none" width="100%" height="100%" overflow="visible" style="display: block;" viewBox="0 0 164.933 109.691" fill="none" xmlns="http://www.w3.org/2000/svg">
<path id="Union" d="M149.942 3.62802L152.236 15.9054C152.303 16.265 152.27 16.6362 152.141 16.9785L147.609 28.9956C147.483 29.3291 147.27 29.623 146.993 29.8467L146.826 29.981C145.415 31.1191 146.125 33.3976 147.933 33.5323L150.152 33.6977C150.542 33.7268 150.931 33.641 151.273 33.451L153.567 32.1746C154.457 31.6798 155.55 32.3229 155.55 33.3406C155.55 33.806 155.793 34.2377 156.19 34.4799L156.77 34.8335C157.366 35.1965 157.729 35.8437 157.729 36.5412V38.5678C157.729 38.934 157.934 39.2695 158.259 39.4371C158.585 39.6047 158.789 39.9402 158.789 40.3064V40.8737C158.789 41.3111 158.94 41.7353 159.215 42.0752L164.487 48.5762C165.087 49.3158 165.082 50.3757 164.475 51.1097L155.824 61.581C155.428 62.0606 154.831 62.3286 154.209 62.3058L143.708 61.922C143.116 61.9003 142.563 61.6166 142.2 61.1475L140.677 59.1808C140.633 59.1228 140.551 59.1089 140.489 59.1488C140.414 59.1978 140.312 59.1644 140.281 59.0801L140.018 58.3819C139.992 58.3127 139.956 58.2477 139.911 58.1891L135.37 52.321C134.642 51.3803 133.229 51.3591 132.473 52.2775L131.503 53.4565C130.82 54.2864 131.474 55.529 132.545 55.4351C132.945 55.4 133.336 55.565 133.59 55.8757L135.972 58.7911C136.128 58.9815 136.361 59.0919 136.607 59.0919H137.387C137.903 59.0919 138.131 59.7426 137.727 60.0648C137.489 60.2544 137.452 60.6016 137.645 60.8371L137.913 61.1654C138.081 61.3709 138.157 61.6365 138.123 61.8997L136.886 71.4708C136.847 71.771 136.929 72.0744 137.113 72.3147C137.59 72.9371 138.537 72.9074 138.974 72.2563L140.141 70.5184C140.245 70.3637 140.326 70.1953 140.384 70.0181L140.957 68.2411C141.245 67.3493 142.113 66.7769 143.046 66.864L144.271 66.9784C144.807 67.0285 145.301 67.2928 145.64 67.7115L146.927 69.3026C147.31 69.7757 147.31 70.4524 146.926 70.9247L146.658 71.2538C145.932 72.1473 144.488 71.5516 144.603 70.4059L144.612 70.3131C144.671 69.7305 144.249 69.2098 143.667 69.1464C143.208 69.0964 142.769 69.3477 142.579 69.7689L140.537 74.3066C140.363 74.6925 140.072 75.0135 139.704 75.2231L136.797 76.8814C135.954 77.3623 134.887 77.1685 134.267 76.4216L131.463 73.0433C131.421 72.9933 131.402 72.9284 131.41 72.8638L131.44 72.6149C131.466 72.3889 131.154 72.3023 131.061 72.51C131.046 72.5437 131.04 72.581 131.045 72.6177L131.372 75.0783C131.396 75.259 131.445 75.4356 131.517 75.6032L132.426 77.7222C132.531 77.9668 132.586 78.23 132.588 78.4962L132.627 83.7642C132.628 83.9766 132.532 84.1781 132.366 84.3106C132.202 84.4421 132.106 84.6413 132.106 84.852V87.3919C132.106 87.8253 132.247 88.247 132.507 88.5935L135.18 92.1491C135.554 92.6467 136.138 92.9418 136.76 92.9474L146.949 93.0387C147.108 93.0402 147.25 93.1389 147.306 93.2875L147.316 93.3142C147.462 93.6949 146.987 94.0063 146.696 93.7216C146.615 93.6425 146.503 93.6037 146.39 93.6156L145.803 93.6777C145.476 93.7123 145.232 93.9959 145.248 94.3244C145.26 94.5843 145.109 94.8242 144.869 94.9255L142.7 95.8426C142.514 95.9211 142.317 95.9711 142.117 95.9908L139.084 96.2887C138.949 96.302 138.813 96.3015 138.678 96.2872L137.887 96.2036C137.354 96.1472 136.831 96.3799 136.515 96.8141L136.063 97.4371C135.92 97.6338 135.931 97.9027 136.09 98.0872L136.201 98.2177C136.298 98.3299 136.459 98.3595 136.589 98.2885L136.608 98.2785C136.787 98.1806 136.816 97.9359 136.666 97.7978C136.53 97.6724 136.54 97.4546 136.687 97.342L136.949 97.1411C137.19 96.9564 137.533 96.9905 137.733 97.2191L137.934 97.4499C138.302 97.8701 138.203 98.5196 137.728 98.8121L137.169 99.1562C136.551 99.5367 135.747 99.4044 135.283 98.8459L135.008 98.5141C134.727 98.1759 134.711 97.6905 134.968 97.3342L134.987 97.3071C135.409 96.7234 135.048 95.9016 134.333 95.8167C134.094 95.7883 133.875 95.6698 133.721 95.4853L126.325 86.6526C126.272 86.5892 126.2 86.5449 126.119 86.5268L125.765 86.4473C125.625 86.4158 125.576 86.2415 125.679 86.1415C125.747 86.0755 125.752 85.9684 125.692 85.8959L123.74 83.5659C123.347 83.0964 122.76 82.8329 122.148 82.8509L108.916 83.2399C108.371 83.2559 107.938 83.702 107.938 84.2469C107.938 84.5476 108.072 84.8326 108.304 85.024L114.474 90.1148C114.575 90.1976 114.683 90.2705 114.798 90.3323L122.656 94.5721C122.767 94.632 122.872 94.7023 122.97 94.7821L126.721 97.84C127.579 98.539 127.706 99.8014 127.005 100.657L125.262 102.786C124.673 103.505 124.657 104.535 125.223 105.272L127.949 108.817C128.364 109.242 127.843 109.914 127.328 109.619L126.2 108.971C126.124 108.927 126.056 108.869 126.002 108.799L122.875 104.832C122.302 104.104 122.304 103.079 122.878 102.352L123.649 101.38C124.318 100.534 124.196 99.309 123.373 98.6118L121.421 96.959C121.324 96.8772 121.22 96.8048 121.11 96.7427L106.133 88.3088C105.916 88.1867 105.724 88.0253 105.567 87.8328L102.598 84.2057C102.205 83.7256 101.612 83.4551 100.992 83.4732L100.231 83.4955C99.7437 83.5098 99.2787 83.7013 98.923 84.034L97.3608 85.4952C96.9564 85.8733 96.727 86.4022 96.727 86.9558V90.3389C96.727 90.7658 96.5903 91.1816 96.337 91.5253L94.5426 93.9604C94.3513 94.22 94.2256 94.522 94.1762 94.8406L93.5926 98.6061C93.4322 99.6414 92.5 100.377 91.4557 100.293L86.4698 99.8918C85.6835 99.8285 85.3865 98.8312 86.01 98.348C86.156 98.2349 86.3344 98.1716 86.519 98.1673L89.3761 98.1008C90.3869 98.0773 91.2212 97.3031 91.32 96.2968L91.5318 94.1402C91.5656 93.7955 91.6884 93.4656 91.888 93.1826L93.7684 90.5176C94.0064 90.1802 94.1342 89.7775 94.1342 89.3646V84.9568C94.1342 84.3992 94.367 83.8669 94.7764 83.4883L96.5245 81.8721C97.0622 81.3749 97.2852 80.6236 97.1058 79.9136L96.3113 76.7697C96.1319 76.0598 95.3957 75.6436 94.6949 75.8561C93.7539 76.1415 92.8548 75.3059 93.0706 74.3466L93.3469 73.1183C93.4339 72.7315 93.7225 72.4216 94.1022 72.3075C94.6647 72.1382 94.9946 71.5563 94.8508 70.9867L94.814 70.841C94.6963 70.3745 94.32 70.0158 93.8488 69.9183C93.5566 69.8578 93.294 69.6954 93.11 69.4604L92.5268 68.7157C92.2397 68.349 91.7534 68.2018 91.311 68.3476C90.9891 68.4538 90.7337 68.7018 90.6182 69.0204L90.4037 69.6123C90.2346 70.0787 89.8983 70.4656 89.4599 70.698L88.4689 71.2232C87.0583 71.9707 85.3836 70.8457 85.5422 69.2572L85.5896 68.7834C85.7013 67.665 84.8696 66.6741 83.7488 66.5902L82.6155 66.5054C82.5161 66.498 82.4163 66.498 82.3169 66.5054L81.1849 66.5902C80.0639 66.6741 79.2323 67.6651 79.3442 68.7837L79.3915 69.2569C79.5505 70.8455 77.8757 71.9708 76.4651 71.2233L75.4741 70.6982C75.0354 70.4657 74.6988 70.0784 74.5298 69.6116L74.3162 69.0212C74.2007 68.7021 73.945 68.4537 73.6226 68.3475C73.1801 68.2017 72.6937 68.3491 72.4065 68.7159L71.8232 69.4607C71.6394 69.6955 71.3771 69.8577 71.0851 69.9182C70.614 70.0158 70.2381 70.3744 70.1204 70.8409L70.0836 70.9867C69.9398 71.5563 70.2697 72.1382 70.8322 72.3075C71.2119 72.4216 71.5005 72.7315 71.5875 73.1183L71.8637 74.346C72.0795 75.3056 71.1802 76.1415 70.2389 75.8561C69.5379 75.6436 68.8015 76.0599 68.622 76.7701L67.8277 79.9134C67.6482 80.6235 67.8713 81.375 68.4092 81.8721L70.1577 83.4883C70.5673 83.8669 70.8002 84.3993 70.8002 84.957V89.3648C70.8002 89.7775 70.9279 90.1802 71.1658 90.5175L73.0457 93.1829C73.2452 93.4657 73.3678 93.7954 73.4017 94.1397L73.6141 96.2973C73.7131 97.3033 74.5473 98.0773 75.5579 98.1008L78.4145 98.1673C78.5991 98.1716 78.7774 98.2349 78.9233 98.3479C79.5471 98.831 79.2501 99.8286 78.4638 99.8919L73.4787 100.293C72.4344 100.377 71.5022 99.6414 71.3418 98.6061L70.7582 94.8408C70.7088 94.522 70.583 94.22 70.3916 93.9603L68.5966 91.5254C68.3432 91.1817 68.2065 90.7658 68.2065 90.3387V86.9556C68.2065 86.4021 67.9771 85.8734 67.5729 85.4952L66.0115 84.0343C65.6557 83.7014 65.1906 83.5098 64.7036 83.4955L63.9418 83.4732C63.3217 83.4551 62.7283 83.7257 62.3354 84.2058L59.3677 87.8327C59.2102 88.0253 59.018 88.1868 58.8012 88.3089L43.8243 96.7427C43.7141 96.8048 43.61 96.8772 43.5135 96.9589L41.561 98.6116C40.7373 99.3089 40.6153 100.534 41.2853 101.38L42.0556 102.352C42.6306 103.078 42.632 104.104 42.0587 104.832L38.9329 108.799C38.8781 108.869 38.8106 108.927 38.7339 108.971L37.606 109.619C37.091 109.914 36.5706 109.242 36.9857 108.817L39.7109 105.272C40.2774 104.535 40.2614 103.505 39.6724 102.786L37.929 100.658C37.2279 99.8016 37.355 98.5389 38.2127 97.8399L41.9648 94.782C42.0625 94.7023 42.1676 94.6321 42.2786 94.5722L50.1367 90.3323C50.2513 90.2705 50.3596 90.1976 50.46 90.1148L56.6293 85.024C56.8612 84.8326 56.9955 84.5476 56.9955 84.2469C56.9955 83.702 56.5623 83.2559 56.0177 83.2399L42.7855 82.8509C42.1732 82.8329 41.5864 83.0965 41.1931 83.5662L39.2427 85.896C39.182 85.9685 39.1874 86.0755 39.2551 86.1415C39.3578 86.2416 39.3085 86.4158 39.1685 86.4473L38.8153 86.5268C38.7346 86.5449 38.662 86.5892 38.6089 86.6526L31.2136 95.4852C31.0591 95.6698 30.8399 95.7883 30.6009 95.8167C29.8857 95.9016 29.525 96.7237 29.9469 97.3075L29.9661 97.3341C30.2237 97.6904 30.2073 98.176 29.9264 98.5142L29.6505 98.8464C29.1868 99.4046 28.383 99.5367 27.7651 99.1562L27.2064 98.8122C26.7312 98.5196 26.6328 97.8702 27.0001 97.4499L27.2019 97.2189C27.4016 96.9904 27.7445 96.9563 27.9853 97.141L28.2472 97.3418C28.3941 97.4545 28.4038 97.6725 28.2675 97.7978C28.1172 97.9359 28.1471 98.1808 28.3262 98.2787L28.3445 98.2887C28.4741 98.3596 28.6357 98.3301 28.7319 98.218L28.8441 98.0875C29.0027 97.9029 29.0137 97.6335 28.8707 97.4365L28.4186 96.8137C28.1037 96.3798 27.581 96.1471 27.0478 96.2035L26.255 96.2872C26.1201 96.3015 25.9842 96.302 25.8492 96.2887L22.8169 95.9908C22.6162 95.9711 22.4196 95.9211 22.2338 95.8426L20.0643 94.9255C19.8246 94.8242 19.6736 94.5843 19.6858 94.3244C19.7012 93.9959 19.4579 93.7123 19.1309 93.6777L18.5443 93.6156C18.4317 93.6037 18.3197 93.6425 18.2387 93.7215C17.947 94.0062 17.4726 93.6945 17.618 93.3138L17.6281 93.2873C17.6848 93.1388 17.8267 93.0402 17.9856 93.0387L28.173 92.9474C28.7955 92.9418 29.3799 92.6467 29.7539 92.1491L32.4263 88.5935C32.6867 88.247 32.8275 87.8253 32.8275 87.3919V84.852C32.8275 84.6413 32.7317 84.4421 32.5671 84.3107C32.401 84.1781 32.305 83.9766 32.3066 83.7642L32.346 78.4958C32.348 78.2298 32.403 77.967 32.5078 77.7226L33.4168 75.6026C33.4885 75.4354 33.537 75.2593 33.5611 75.0789L33.8894 72.6178C33.8943 72.5811 33.8888 72.5437 33.8737 72.5099C33.7803 72.3019 33.4673 72.3884 33.4941 72.6149L33.5236 72.8637C33.5312 72.9283 33.512 72.9933 33.4704 73.0434L30.6661 76.4216C30.0462 77.1685 28.9794 77.3623 28.1363 76.8814L25.2293 75.2232C24.8616 75.0135 24.5699 74.6925 24.3963 74.3064L22.3554 69.7693C22.1658 69.3479 21.7265 69.0964 21.2671 69.1464C20.6848 69.2097 20.2624 69.7308 20.321 70.3136L20.3302 70.4057C20.4453 71.5512 19.0016 72.1468 18.2756 71.2533L18.0083 70.9244C17.6246 70.4523 17.6239 69.7759 18.0067 69.303L19.2947 67.7115C19.6336 67.2928 20.127 67.0285 20.6633 66.9784L21.8871 66.8641C22.8201 66.7769 23.6885 67.3493 23.9764 68.2411L24.5499 70.0181C24.6071 70.1953 24.6888 70.3637 24.7926 70.5184L25.9591 72.2563C26.3961 72.9074 27.3433 72.9371 27.8203 72.3147C28.0045 72.0744 28.0861 71.771 28.0473 71.4708L26.8114 61.8997C26.7775 61.6365 26.8533 61.371 27.0212 61.1655L27.2895 60.8371C27.4819 60.6016 27.4449 60.2544 27.2072 60.0648C26.8034 59.7426 27.0312 59.0919 27.5477 59.0919H28.327C28.5727 59.0919 28.8054 58.9815 28.9609 58.7913L31.3446 55.8754C31.5985 55.5649 31.9895 55.4 32.3892 55.435C33.4597 55.529 34.1141 54.2868 33.4312 53.457L32.4605 52.2776C31.7046 51.3591 30.2916 51.3804 29.5637 52.3212L25.0239 58.189C24.9785 58.2476 24.9422 58.3127 24.9162 58.3821L24.654 59.0797C24.6222 59.1643 24.5205 59.1979 24.4446 59.1488C24.3828 59.1089 24.3008 59.1229 24.2558 59.1811L22.7345 61.1472C22.3714 61.6165 21.8187 61.9003 21.2258 61.922L10.724 62.3058C10.1023 62.3286 9.50535 62.0606 9.10909 61.581L0.458138 51.1098C-0.148359 50.3757 -0.153174 49.3158 0.446627 48.5762L5.71894 42.0752C5.99453 41.7353 6.14493 41.3111 6.14493 40.8736V40.3064C6.14493 39.9402 6.34958 39.6047 6.6752 39.4371C7.00082 39.2695 7.20548 38.934 7.20548 38.5678V36.5412C7.20548 35.8437 7.56888 35.1965 8.16446 34.8335L8.74439 34.4799C9.14174 34.2377 9.38419 33.806 9.38419 33.3406C9.38419 32.3229 10.4778 31.6798 11.3672 32.1746L13.6614 33.451C14.003 33.641 14.3927 33.7268 14.7824 33.6977L17.0006 33.5324C18.8088 33.3976 19.5189 31.1192 18.1074 29.981L17.9409 29.8467C17.6633 29.623 17.4507 29.3291 17.3249 28.9955L12.7934 16.9784C12.6643 16.6361 12.6316 16.2651 12.6987 15.9055L14.9916 3.62802L15.2034 2.47488C15.4519 1.12176 16.9607 0.417746 18.1573 1.09653L32.8782 9.44695C33.9415 10.0501 35.2629 9.29648 35.2851 8.07428L35.351 4.45866C35.3653 3.67548 36.4235 3.44209 36.7659 4.14662C36.8963 4.41491 37.1741 4.57956 37.4721 4.56509L42.0234 4.34397C42.5289 4.31941 43.0249 4.48739 43.4114 4.81405L45.4573 6.54308C46.0994 7.0857 47.0315 7.11174 47.7029 6.6058C48.0151 6.37051 48.3954 6.24325 48.7864 6.24325H51.9149C52.6924 6.24325 53.3227 5.61296 53.3227 4.83546C53.3227 4.39751 53.1188 3.9845 52.7712 3.71809L52.6153 3.59862C51.4815 2.72963 51.7579 0.950493 53.1019 0.466423L54.0681 0.118423C54.7295 -0.119765 55.4673 0.00670053 56.0115 0.451531L56.799 1.09518C57.5658 1.72189 57.7585 2.81538 57.2521 3.66643L56.1023 5.59884C55.595 6.45139 55.7894 7.54696 56.559 8.173L57.2344 8.72243C57.4251 8.87756 57.5855 9.06652 57.7077 9.27983L61.9001 16.5989C62.1304 17.001 62.67 17.0935 63.0211 16.7912C63.2698 16.5771 63.347 16.2244 63.2106 15.926L59.6525 8.13874C59.4793 7.75958 59.4288 7.33576 59.5083 6.92653L59.7143 5.86474C59.826 5.28936 60.1937 4.7962 60.7133 4.525L60.7638 4.49865C61.277 4.23075 61.6314 3.73384 61.7176 3.16135L61.7577 2.89516C61.854 2.25501 62.3618 1.75557 63.0035 1.66988C63.5907 1.59145 64.1669 1.87702 64.46 2.39184L68.4666 9.4273C69.0723 10.4908 70.4826 10.7658 71.4434 10.0077L72.106 9.48487C72.2372 9.38133 72.3955 9.31785 72.5619 9.30204C72.9798 9.26234 73.3096 8.92947 73.3453 8.51121L73.3817 8.08503C73.4428 7.37038 74.0407 6.82138 74.7579 6.82138H76.059C76.5591 6.82138 76.9752 6.43695 77.0147 5.93839C77.0621 5.34043 77.6408 4.93234 78.2199 5.08845L79.6627 5.4773C79.9255 5.54815 80.1913 5.37362 80.2308 5.10423C80.2882 4.71215 80.7849 4.57611 81.0341 4.88418L81.734 5.74932C82.111 6.2153 82.8215 6.21538 83.1986 5.74948L83.8992 4.88396C84.1487 4.57576 84.6455 4.71176 84.7032 5.10405C84.7429 5.37359 85.0089 5.54814 85.2719 5.47724L86.7145 5.08844C87.2936 4.93234 87.8723 5.34043 87.9197 5.93839C87.9592 6.43695 88.3753 6.82138 88.8754 6.82138H90.1766C90.8937 6.82138 91.4914 7.37043 91.5522 8.08497L91.5883 8.51047C91.6239 8.92911 91.9539 9.26235 92.3722 9.30204C92.5388 9.31785 92.6972 9.3814 92.8285 9.48506L93.4899 10.0071C94.4507 10.7655 95.8612 10.4906 96.467 9.42694L100.473 2.39184C100.767 1.87701 101.343 1.59145 101.93 1.66988C102.572 1.75557 103.079 2.25501 103.176 2.89516L103.216 3.16135C103.302 3.73384 103.656 4.23075 104.17 4.49865L104.22 4.5251C104.74 4.79625 105.108 5.28923 105.219 5.86446L105.426 6.92608C105.505 7.33559 105.455 7.75974 105.282 8.13917L101.723 15.9259C101.586 16.2244 101.664 16.5771 101.912 16.7912C102.263 17.0935 102.803 17.001 103.033 16.599L107.227 9.27974C107.349 9.06649 107.509 8.87758 107.7 8.72248L108.375 8.17317C109.145 7.54705 109.339 6.45132 108.832 5.59875L107.682 3.66676C107.175 2.81559 107.368 1.72179 108.135 1.09506L108.923 0.451258C109.467 0.00658625 110.205 -0.119798 110.866 0.118351L111.832 0.466218C113.176 0.950335 113.452 2.72971 112.318 3.59861L112.162 3.71812C111.815 3.98451 111.611 4.39755 111.611 4.83554C111.611 5.613 112.241 6.24325 113.018 6.24325H116.147C116.538 6.24325 116.918 6.37048 117.231 6.60572C117.903 7.11172 118.835 7.08548 119.477 6.5425L121.522 4.81422C121.908 4.48746 122.405 4.31941 122.91 4.34397L127.461 4.56509C127.759 4.57956 128.037 4.41491 128.168 4.14662C128.51 3.44209 129.568 3.67548 129.582 4.45866L129.648 8.07428C129.671 9.29648 130.992 10.0501 132.055 9.44695L146.776 1.09653C147.973 0.417744 149.482 1.12176 149.73 2.47488L149.942 3.62802ZM66.4344 67.6911C66.311 67.7003 66.1928 67.7444 66.0936 67.8183L64.2774 69.1712C64.0807 69.3177 63.9751 69.5566 63.9992 69.8007C64.0271 70.0827 64.2224 70.3199 64.4938 70.4015L65.1913 70.6112C65.8921 70.8218 66.6504 70.5839 67.1053 70.0106L68.6916 68.0115C68.7123 67.9853 68.7386 67.9642 68.7686 67.9495C68.99 67.8413 68.8994 67.5069 68.6536 67.5252L66.4344 67.6911ZM96.1649 67.9495C96.1948 67.9642 96.2211 67.9853 96.2418 68.0114L97.8287 70.0106C98.2838 70.5838 99.0424 70.8217 99.7433 70.6109L100.44 70.4014C100.711 70.3199 100.906 70.0829 100.935 69.8013C100.959 69.5569 100.854 69.3175 100.657 69.1708L98.8409 67.8184C98.7416 67.7445 98.6233 67.7003 98.4998 67.691L96.2799 67.5252C96.0341 67.5068 95.9435 67.8412 96.1649 67.9495ZM39.6644 69.9553C39.3008 70.1554 39.3816 70.6997 39.7876 70.7855C39.9513 70.8201 40.1207 70.7606 40.2267 70.6311C40.5387 70.2499 40.096 69.7178 39.6644 69.9553ZM124.707 70.6309C124.813 70.7605 124.982 70.8201 125.146 70.7855C125.552 70.6997 125.633 70.1551 125.269 69.9549C124.838 69.7173 124.395 70.2496 124.707 70.6309ZM36.9366 66.2079C36.0501 66.6897 35.8079 67.852 36.4281 68.6478C36.9958 69.3761 38.0539 69.4895 38.7631 68.8981L39.3287 68.4265C39.6176 68.1855 39.8098 67.8483 39.8699 67.4768C40.0769 66.1967 38.723 65.237 37.5837 65.8563L36.9366 66.2079ZM125.064 67.4763C125.124 67.8481 125.316 68.1856 125.605 68.4267L126.171 68.8985C126.881 69.4898 127.938 69.3762 128.506 68.6479C129.126 67.852 128.884 66.6897 127.998 66.2078L127.35 65.856C126.211 65.2367 124.857 66.1962 125.064 67.4763ZM32.7965 62.4684C32.5079 62.6262 32.3442 62.9436 32.3831 63.2703C32.4004 63.4161 32.4573 63.5545 32.5476 63.6704L33.28 64.6099C33.843 65.332 34.9317 65.3417 35.5073 64.6296C36.2417 63.7213 35.6283 62.364 34.4613 62.3149L33.4607 62.2728C33.2746 62.265 33.0898 62.3081 32.9263 62.3974L32.7965 62.4684ZM130.472 62.3149C129.305 62.364 128.692 63.7213 129.426 64.6296C130.002 65.3417 131.09 65.332 131.653 64.6099L132.386 63.6704C132.476 63.5545 132.533 63.4161 132.55 63.2703C132.589 62.9436 132.426 62.6262 132.137 62.4684L132.007 62.3974C131.844 62.3081 131.659 62.265 131.473 62.2728L130.472 62.3149ZM78.0088 50.996C77.4097 51.7401 77.4205 52.8039 78.0346 53.5357L82.1626 58.4555C82.2301 58.536 82.3267 58.5864 82.4313 58.5956C82.4545 58.5977 82.4779 58.5977 82.5012 58.5956C82.6063 58.5864 82.7035 58.5357 82.7714 58.4549L86.8996 53.5358C87.5137 52.804 87.5246 51.74 86.9255 50.9959L84.0251 47.3932C83.2245 46.3988 81.7099 46.3988 80.9093 47.3932L78.0088 50.996ZM81.6774 19.2929C81.5215 19.4411 81.4105 19.6301 81.3571 19.8384L80.9717 21.3397C80.9144 21.5628 80.8961 21.7941 80.9176 22.0235L80.9222 22.0722C80.9604 22.4798 80.8726 22.8893 80.6707 23.2453L79.3209 25.6256C79.0399 26.1211 78.561 26.4733 78.0043 26.5938L72.7112 27.7394C72.507 27.7836 72.3546 27.9545 72.334 28.1625C72.3082 28.4237 72.4963 28.6574 72.757 28.688L75.8618 29.0522C76.4025 29.1156 76.9456 28.955 77.3648 28.6076L78.6119 27.5744C78.9168 27.3218 79.3758 27.4062 79.5709 27.7507L79.9911 28.4926C80.1992 28.86 79.7844 29.2647 79.4222 29.0477C79.2778 28.9612 79.0952 28.9715 78.9614 29.0737L78.6728 29.2942C78.1783 29.6721 78.1768 30.4161 78.6697 30.7959L80.1699 31.9521C80.9218 32.5315 81.1628 33.5596 80.7468 34.4128L80.6509 34.6095C80.0907 35.7583 78.6114 36.0941 77.6101 35.2997L74.4209 32.7693C74.1872 32.5839 73.9023 32.4747 73.6045 32.4566C72.7671 32.4055 72.06 33.0709 72.06 33.9098V34.6623C72.06 34.855 72.0108 35.0445 71.9171 35.2129L70.7862 37.2458C70.6596 37.4734 70.8854 37.7352 71.1291 37.6435C71.4237 37.5325 71.6485 37.9174 71.4072 38.1195L69.4379 39.7694C69.3708 39.8257 69.3145 39.8938 69.2719 39.9704L68.4371 41.4708C68.2586 41.7915 68.2248 42.173 68.344 42.5201L68.3863 42.6432C68.4776 42.9091 68.6768 43.1242 68.9348 43.2357C69.3006 43.3938 69.5375 43.7542 69.5375 44.1528V47.5832C69.5375 47.6651 69.5582 47.7457 69.5976 47.8175L69.9966 48.544C70.1533 48.8293 69.8124 49.1279 69.5502 48.935C69.3715 48.8036 69.1168 48.9017 69.0725 49.1191L68.8735 50.095C68.7354 50.7727 67.8697 50.9819 67.4372 50.4422C66.9953 49.8907 66.1089 50.1235 65.9952 50.821L65.8283 51.8441C65.7841 52.1153 65.8285 52.3936 65.955 52.6376L66.5331 53.7523C66.8219 54.3092 67.4615 54.5875 68.0659 54.4191L69.6626 53.9741C69.8302 53.9274 69.8948 53.724 69.7849 53.5891C69.7125 53.5003 69.7125 53.3729 69.7849 53.2841L80.2915 40.4036C80.5255 40.1168 80.8598 39.9297 81.2268 39.8804L81.7373 39.8118C81.7895 39.8048 81.8369 39.7775 81.8691 39.7359C81.9129 39.6794 81.9834 39.6504 82.0543 39.6599L82.3673 39.7017C82.4329 39.7105 82.4995 39.7105 82.5652 39.7017L82.8795 39.6598C82.9501 39.6504 83.0203 39.6794 83.0637 39.7358C83.0957 39.7775 83.1429 39.8048 83.195 39.8118L83.7078 39.8806C84.074 39.9298 84.4077 40.1164 84.6412 40.4027L95.1483 53.284C95.2208 53.3728 95.2207 53.5004 95.1482 53.5891C95.038 53.7239 95.1025 53.9275 95.2702 53.9742L96.8685 54.4194C97.4723 54.5877 98.1114 54.3097 98.4002 53.7534L98.979 52.638C99.1058 52.3937 99.1503 52.1151 99.1059 51.8436L98.9387 50.8206C98.8247 50.1231 97.9383 49.8904 97.4964 50.4419C97.0639 50.9818 96.198 50.7725 96.0598 50.0947L95.8609 49.1188C95.8166 48.9016 95.562 48.8036 95.3835 48.9349C95.1216 49.1277 94.781 48.8294 94.9376 48.5444L95.3368 47.8175C95.3762 47.7457 95.3969 47.6652 95.3969 47.5833V44.1525C95.3969 43.7541 95.6336 43.3939 95.9993 43.2358C96.2575 43.1242 96.4567 42.9089 96.5478 42.6429L96.5901 42.5194C96.7089 42.1727 96.6751 41.7918 96.497 41.4715L95.6625 39.9706C95.6199 39.8939 95.5636 39.8257 95.4963 39.7694L93.5265 38.1195C93.2853 37.9174 93.51 37.5326 93.8045 37.6435C94.0482 37.7353 94.2739 37.4735 94.1473 37.246L93.0163 35.2129C92.9226 35.0445 92.8734 34.855 92.8734 34.6623V33.9092C92.8734 33.0706 92.1666 32.4055 91.3295 32.4566C91.032 32.4747 90.7472 32.5838 90.5137 32.7691L87.3237 35.2997C86.3223 36.0941 84.8429 35.7581 84.2829 34.609L84.1871 34.4125C83.7713 33.5594 84.0123 32.5317 84.7639 31.9523L86.2645 30.7955C86.7571 30.4158 86.7556 29.6722 86.2615 29.2944L85.9731 29.0739C85.8392 28.9716 85.6565 28.9612 85.512 29.0478C85.1497 29.2649 84.7348 28.8601 84.9428 28.4925L85.3626 27.751C85.5576 27.4064 86.0168 27.3219 86.3217 27.5744L87.5695 28.6078C87.9888 28.955 88.5319 29.1156 89.0726 29.0522L92.1768 28.688C92.4377 28.6574 92.6259 28.4234 92.5997 28.162C92.5789 27.9543 92.4266 27.7836 92.2226 27.7395L86.9294 26.5938C86.3725 26.4733 85.8935 26.121 85.6125 25.6253L84.2635 23.2452C84.0617 22.8892 83.974 22.4799 84.0122 22.0725L84.0167 22.0239C84.0382 21.7943 84.0199 21.5626 83.9624 21.3393L83.5765 19.8385C83.523 19.6301 83.4117 19.441 83.2557 19.2928C82.8135 18.8728 82.1194 18.8727 81.6774 19.2929ZM13.0006 47.1192C11.9258 47.7309 11.6582 49.1616 12.4392 50.1205L13.633 51.5861C14.4063 52.5355 15.8436 52.5733 16.6658 51.6659L21.0689 46.8063C22.0404 45.7341 21.5108 44.0129 20.1046 43.6723C19.6324 43.5579 19.1345 43.628 18.7123 43.8683L13.0006 47.1192ZM144.829 43.6723C143.423 44.0129 142.893 45.7341 143.865 46.8063L148.268 51.6659C149.09 52.5733 150.527 52.5355 151.3 51.5861L152.494 50.1205C153.275 49.1616 153.008 47.7309 151.933 47.1192L146.221 43.8683C145.799 43.628 145.301 43.5579 144.829 43.6723ZM43.5306 44.8882C43.0868 44.9305 42.7115 45.2347 42.5782 45.6601L42.4228 46.1558C42.3445 46.4054 42.2153 46.6361 42.0434 46.8332L40.7908 48.2692C40.4901 48.6139 40.4823 49.1253 40.7724 49.479C41.1477 49.9366 41.8482 49.9358 42.2224 49.4772L44.4948 46.6926C45.1173 45.9298 44.5107 44.7946 43.5306 44.8882ZM122.711 49.4773C123.085 49.9359 123.786 49.9369 124.161 49.4793C124.452 49.1255 124.444 48.6137 124.143 48.2688L122.89 46.8333C122.718 46.6361 122.589 46.4053 122.511 46.1556L122.355 45.6601C122.222 45.2347 121.847 44.9305 121.403 44.8882C120.423 44.7946 119.816 45.9298 120.439 46.6926L122.711 49.4773ZM40.8404 45.146C40.7135 45.1582 40.6067 45.2463 40.5709 45.3686C40.4772 45.6878 40.8817 45.9122 41.1029 45.6637L41.1727 45.5853C41.1975 45.5574 41.2163 45.5247 41.2279 45.4893C41.2883 45.304 41.1389 45.1175 40.9449 45.136L40.8404 45.146ZM123.706 45.4893C123.717 45.5247 123.736 45.5574 123.761 45.5853L123.831 45.6642C124.052 45.9128 124.457 45.6885 124.364 45.369C124.328 45.2465 124.221 45.1581 124.094 45.146L123.989 45.136C123.794 45.1175 123.645 45.304 123.706 45.4893ZM44.9274 19.5322C44.4089 19.6615 44.1982 20.284 44.5315 20.7017C44.6353 20.8316 44.6918 20.993 44.6918 21.1593V29.795C44.6918 30.2383 45.0512 30.5977 45.4945 30.5977H45.565C45.9694 30.5977 46.2973 30.2699 46.2973 29.8655C46.2973 29.6487 46.3933 29.4431 46.5594 29.304L51.9866 24.7595C52.2337 24.5526 52.5837 24.5215 52.8634 24.6817C53.5543 25.0772 54.3179 24.2922 53.9033 23.6125L51.3233 19.3828C50.868 18.6362 49.9804 18.2721 49.132 18.4837L44.9274 19.5322ZM111.03 23.613C110.616 24.2925 111.379 25.0772 112.07 24.6817C112.35 24.5215 112.7 24.5525 112.947 24.7595L118.374 29.304C118.54 29.4431 118.636 29.6487 118.636 29.8655C118.636 30.2699 118.964 30.5977 119.368 30.5977H119.439C119.883 30.5977 120.243 30.2381 120.243 29.7945V21.1591C120.243 20.9929 120.299 20.8317 120.403 20.7017C120.736 20.2839 120.525 19.6616 120.006 19.5323L115.802 18.4837C114.953 18.2721 114.065 18.6363 113.61 19.3829L111.03 23.613ZM61.2011 27.7936C61.1792 27.8138 61.2058 27.8482 61.2309 27.8321C61.2328 27.8308 61.2346 27.8293 61.2361 27.8275L61.517 27.503L61.2011 27.7936ZM103.697 27.8275C103.699 27.8293 103.701 27.8308 103.703 27.8321C103.728 27.8483 103.755 27.8136 103.733 27.7933L103.416 27.503L103.697 27.8275ZM72.2983 19.5131C72.0335 19.8362 71.9896 20.2871 72.1872 20.6551L72.5761 21.3795C72.6749 21.5636 72.9155 21.6146 73.0804 21.4863L73.0914 21.4778C73.314 21.3048 73.6372 21.4715 73.6252 21.7532C73.6156 21.9772 73.8269 22.1457 74.0431 22.0866L74.7026 21.9062C74.8762 21.8588 75.0297 21.7561 75.1399 21.6138L75.2188 21.512C75.4432 21.2224 75.4771 20.8282 75.3055 20.5045L75.0967 20.1104C75.0242 19.9736 74.8694 19.9019 74.7182 19.935C74.4056 20.0034 74.1765 19.6461 74.369 19.3905L75.6283 17.719C76.0066 17.2169 76.7238 17.1242 77.2173 17.5136L78.3573 18.4133C79.0882 18.99 80.1204 18.9862 80.847 18.4039L82.3904 17.167C82.4033 17.1567 82.4056 17.1381 82.3957 17.125C82.3741 17.0965 82.4109 17.0606 82.4388 17.0829L82.4476 17.0899C82.4591 17.0991 82.4753 17.0991 82.4868 17.0899L82.495 17.0834C82.5227 17.0612 82.5592 17.0969 82.5377 17.1252C82.5278 17.1382 82.5301 17.1567 82.5429 17.1669L84.0875 18.4043C84.814 18.9863 85.8461 18.9901 86.5769 18.4134L87.7171 17.5136C88.2106 17.1242 88.9278 17.217 89.3059 17.7191L90.565 19.391C90.7573 19.6464 90.5284 20.0034 90.216 19.935C90.0649 19.9019 89.9102 19.9735 89.8378 20.1102L89.6288 20.5046C89.4573 20.8282 89.4912 21.2223 89.7155 21.5119L89.7944 21.6138C89.9047 21.7561 90.0582 21.8588 90.2318 21.9062L90.8914 22.0866C91.1076 22.1457 91.3188 21.9773 91.3092 21.7534C91.2972 21.4718 91.6204 21.3051 91.8429 21.4782L91.8533 21.4864C92.018 21.6145 92.2585 21.5637 92.3572 21.3798L92.7463 20.6549C92.9438 20.287 92.9 19.8363 92.6353 19.5133L84.0131 8.99304C83.213 8.01669 81.7195 8.01673 80.9194 8.99311L72.2983 19.5131ZM81.6931 18.2411C81.5179 18.4725 81.7658 18.7853 82.0312 18.6676L82.3952 18.506C82.4058 18.5013 82.4081 18.4875 82.3998 18.4796C82.3866 18.4671 82.4008 18.4458 82.4173 18.4531L82.4568 18.4705C82.4628 18.4732 82.4697 18.4732 82.4757 18.4705L82.5154 18.4531C82.532 18.4458 82.5461 18.4672 82.5328 18.4796C82.5244 18.4874 82.5268 18.5014 82.5373 18.506L82.904 18.6685C83.1693 18.7862 83.4171 18.4733 83.2419 18.2419L82.831 17.6993C82.6484 17.4581 82.286 17.4581 82.1034 17.6993L81.6931 18.2411ZM39.9199 8.21688C38.9031 8.21688 38.0481 8.97986 37.9328 9.99014L37.738 11.6979C37.7303 11.7651 37.6965 11.8267 37.6439 11.8692C37.5318 11.9599 37.5158 12.1249 37.6084 12.2354L40.1374 15.2535C40.6963 15.9204 41.6222 16.1495 42.4276 15.8201L45.0953 14.7287C45.5144 14.5573 45.8629 14.2488 46.0838 13.8536L46.442 13.2128C46.9066 12.3818 46.721 11.3386 45.9984 10.7188L43.6433 8.6988C43.2808 8.38783 42.8189 8.21688 42.3412 8.21688H39.9199ZM118.935 10.7188C118.213 11.3386 118.027 12.3819 118.491 13.213L118.85 13.8536C119.071 14.2488 119.419 14.5573 119.838 14.7287L122.506 15.8201C123.311 16.1496 124.237 15.9206 124.796 15.2538L127.326 12.2354C127.419 12.1249 127.403 11.9599 127.29 11.8692C127.238 11.8267 127.204 11.7652 127.196 11.698L127.001 9.98961C126.885 8.97956 126.031 8.21688 125.014 8.21688H122.593C122.115 8.21688 121.654 8.38777 121.291 8.69865L118.935 10.7188Z" fill="var(--fill-0, black)"/>
</svg>
