<svg preserveAspectRatio="none" width="100%" height="100%" overflow="visible" style="display: block;" viewBox="0 0 157.089 108.617" fill="none" xmlns="http://www.w3.org/2000/svg">
<g id="Group 67">
<path id="Union" d="M122.381 0.696133C122.332 0.881225 122.382 1.07838 122.514 1.21724L124.347 3.14895C124.839 3.66805 125.572 3.88446 126.267 3.71647L129.934 2.83082C130.095 2.792 130.241 2.70407 130.352 2.58099C130.894 1.97646 131.902 2.44201 131.767 3.24289C131.724 3.50039 131.557 3.72282 131.322 3.83797C130.55 4.2177 130.726 5.38089 131.581 5.48153L132.406 5.57865C132.526 5.59277 132.648 5.57041 132.755 5.5145C133.33 5.21391 133.907 5.91327 133.503 6.42139L133.105 6.92219C132.917 7.15826 132.604 7.2559 132.315 7.16858L131.343 6.87482C130.483 6.61449 129.753 7.55093 130.215 8.32224C130.401 8.63194 130.742 8.8149 131.103 8.79881L131.223 8.79343C132.26 8.74719 132.836 9.98062 132.161 10.7694C131.639 11.3797 130.667 11.3292 130.228 10.657L128.968 8.72848C128.557 8.10064 127.595 8.26618 127.419 8.99507L127.399 9.07771C127.334 9.34547 127.427 9.62682 127.639 9.80249C128.192 10.2602 127.809 11.1568 127.096 11.0728L126.55 11.0086C126.04 10.9485 125.688 10.4666 125.787 9.96216L125.843 9.67673C126.05 8.6246 124.833 7.88574 123.995 8.55421L123.427 9.00712C122.808 9.50043 122.713 10.4045 123.215 11.0162L128.455 17.403C129.043 18.1202 130.197 17.8677 130.432 16.9703L130.469 16.8268C130.5 16.7083 130.497 16.5833 130.458 16.467C130.243 15.8162 131.07 15.334 131.53 15.8416L131.877 16.2241C131.943 16.2958 131.993 16.3796 132.026 16.4707L133.476 20.4765C133.55 20.6814 133.658 20.8727 133.793 21.043L135.668 23.3928C136.338 24.2318 137.615 24.225 138.276 23.3788L138.781 22.732C139.189 22.2084 139.981 22.2085 140.39 22.7322L141.083 23.6212C141.569 24.2435 140.888 25.0972 140.173 24.7624C139.836 24.6043 139.433 24.7178 139.228 25.0289L138.174 26.6272C137.723 27.3114 137.735 28.2015 138.204 28.8733L140.561 32.2474C140.683 32.422 140.903 32.499 141.107 32.4385L141.473 32.33C141.818 32.2278 142.092 32.6271 141.873 32.9121C141.747 33.0751 141.778 33.3091 141.942 33.4337L142.348 33.7428C142.571 33.9129 142.863 33.9659 143.132 33.8855L145.367 33.2172C145.838 33.0765 146.24 32.7675 146.498 32.349L147.001 31.5304C147.325 31.004 147.983 30.7892 148.555 31.0228C149.255 31.3088 149.549 32.1424 149.183 32.8044L148.686 33.7015C148.433 34.1582 148.012 34.4979 147.512 34.6481L144.525 35.5455C143.887 35.7373 143.386 36.2341 143.19 36.8707L141.947 40.8948C141.713 41.6503 141.947 42.4725 142.543 42.9923L143.175 43.5432C143.539 43.8608 144.006 44.0359 144.489 44.0359H144.907C145.327 44.0359 145.718 44.247 145.949 44.5977C146.481 45.408 145.924 46.489 144.956 46.5265L144.253 46.5537C143.778 46.5722 143.317 46.3832 142.992 46.0359L142.079 45.0624C141.46 44.4027 140.369 44.5897 140.005 45.4176C139.846 45.7799 139.866 46.1958 140.06 46.541L141.712 49.4891C142.1 50.1815 142.861 50.5788 143.651 50.5017L145.98 50.2744C146.25 50.248 146.516 50.3582 146.688 50.5683C146.892 50.8174 147.224 50.9226 147.535 50.8363L151.031 49.8645C151.651 49.6921 152.31 49.9533 152.644 50.5038L152.685 50.5718C153.264 51.5273 152.54 52.7418 151.424 52.6866L148.529 52.5436C148.438 52.5391 148.385 52.6443 148.442 52.7147C148.504 52.7896 148.439 52.9004 148.344 52.8844L146.382 52.556C145.861 52.4688 145.387 52.8703 145.387 53.3983V54.1733C145.387 54.3488 145.271 54.5032 145.103 54.5523C144.859 54.6233 144.745 54.9026 144.869 55.1241L145.001 55.361C145.116 55.5648 145.336 55.6856 145.569 55.6723L154.593 55.1573C155.315 55.1161 155.941 55.6489 156.017 56.3676L156.067 56.8446C156.118 57.3376 155.754 57.7766 155.26 57.8176L154.571 57.8748C153.965 57.9251 153.762 58.7116 154.267 59.0495C154.646 59.3026 154.649 59.8587 154.272 60.115L153.495 60.6436C153.042 60.952 152.443 60.9364 152.006 60.6048L148.805 58.1741C148.438 57.8952 147.986 57.7518 147.525 57.768L146.312 57.8108C145.903 57.8252 145.58 58.1605 145.58 58.5692C145.58 58.8033 145.688 59.0242 145.872 59.168L147.978 60.8074C148.251 61.0199 148.575 61.1579 148.917 61.208L149.95 61.3592C150.276 61.4069 150.573 61.5735 150.783 61.827L150.883 61.9471C151.595 62.8044 150.933 64.0968 149.821 64.0203L149.279 63.983C149.124 63.9724 148.976 64.0518 148.899 64.1873C148.814 64.3384 148.834 64.5272 148.95 64.6565L152.729 68.8724C152.833 68.9885 153 69.0245 153.143 68.9616C153.54 68.7864 153.851 69.334 153.497 69.5853L151.433 71.0503C151.228 71.1956 151.132 71.4507 151.19 71.6951L151.275 72.0558C151.442 72.7631 152.208 73.1475 152.875 72.8587L155.139 71.8779C156.057 71.4805 157.063 72.2166 156.962 73.2114L156.918 73.6481C156.888 73.9416 156.676 74.1841 156.389 74.2523L154.391 74.727C153.869 74.851 153.959 75.6189 154.495 75.6189C154.656 75.6189 154.804 75.704 154.885 75.8426L156.815 79.1386C157.33 80.0197 157.1 81.1478 156.279 81.7557L153.921 83.5038C153.497 83.8178 153.273 84.3345 153.335 84.8584L153.376 85.2151C153.439 85.7543 153.896 86.1609 154.439 86.1609H154.638C155.611 86.1609 156.016 87.4049 155.23 87.9781C154.936 88.1923 154.781 88.5485 154.824 88.9095L154.946 89.9263C154.991 90.3076 154.819 90.6822 154.5 90.8959C154.144 91.1348 153.676 91.1254 153.33 90.8725L153.029 90.6536C152.764 90.4597 152.443 90.3552 152.114 90.3552H150.183C149.952 90.3552 149.726 90.4206 149.531 90.5439C148.77 91.0249 147.769 90.5439 147.668 89.6494L147.632 89.3269C147.552 88.6073 146.943 88.0632 146.219 88.0632H144.097C142.892 88.0632 141.96 89.1208 142.113 90.3161L142.193 90.9454C142.266 91.517 142.024 92.0833 141.562 92.4265L139.799 93.7333C139.593 93.8864 139.298 93.7578 139.27 93.5022C139.225 93.0999 138.637 93.1099 138.606 93.5135L138.259 98.0933C138.226 98.5248 138.559 98.8966 138.992 98.9112L140.41 98.9589C140.583 98.9647 140.736 99.0754 140.797 99.2366C140.965 99.6756 140.407 100.038 140.092 99.69C140.001 99.5894 139.867 99.5385 139.732 99.5528L138.853 99.6461C138.423 99.6917 138.104 100.064 138.124 100.495C138.14 100.836 137.942 101.152 137.627 101.284L137.042 101.531C136.376 101.813 136.268 102.711 136.847 103.143L141.022 106.26C141.252 106.431 141.052 106.789 140.785 106.684C140.548 106.59 140.343 106.876 140.509 107.07L141.139 107.809C141.512 108.246 140.952 108.855 140.486 108.52L137.419 106.317C137.231 106.182 136.999 106.121 136.768 106.145L136.163 106.21C135.513 106.279 134.871 106.027 134.442 105.534L132.683 103.512C132.308 103.081 131.766 102.831 131.195 102.825L128.551 102.798C127.903 102.791 127.292 103.099 126.911 103.623L126.246 104.54C126.04 104.824 126.056 105.212 126.284 105.479L126.429 105.648C126.578 105.822 126.828 105.868 127.028 105.758L127.14 105.697C127.376 105.568 127.415 105.246 127.218 105.064C127.038 104.899 127.051 104.612 127.245 104.464L127.504 104.265C127.783 104.05 128.181 104.09 128.412 104.355L128.673 104.654C129.117 105.161 128.998 105.946 128.424 106.299L127.7 106.745C126.933 107.218 125.935 107.054 125.359 106.36L124.833 105.726C124.592 105.436 124.578 105.021 124.798 104.716L125.34 103.965C125.636 103.556 125.236 103.007 124.756 103.163C124.555 103.228 124.334 103.165 124.197 103.004L122.828 101.392C122.595 101.118 122.161 101.162 121.987 101.477C121.816 101.788 121.389 101.836 121.153 101.57L120.202 100.494C119.899 100.151 119.859 99.6487 120.104 99.2618C120.343 98.8834 120.31 98.3938 120.023 98.0506L119.313 97.2035C119.163 97.0234 118.908 96.9707 118.698 97.0761C118.41 97.2207 118.062 97.0629 117.981 96.7509L117.642 95.447C117.582 95.2181 117.472 95.0053 117.321 94.824L113.365 90.1C112.69 89.2937 111.505 89.1481 110.655 89.7668L109.884 90.3274C109.367 90.7038 109.061 91.305 109.061 91.9447V94.9498C109.061 95.9806 108.225 96.8161 107.195 96.8161H106.988C106.599 96.8161 106.228 96.9785 105.964 97.2639C105.103 98.1955 103.546 97.5862 103.546 96.3175V88.3208C103.546 87.0559 104.706 86.1087 105.945 86.3609L107.808 86.74C108.004 86.7799 108.206 86.7126 108.34 86.5634C108.668 86.1952 108.397 85.6125 107.903 85.627L85.1733 86.2954C84.7203 86.3087 84.5119 86.8651 84.8447 87.1727C84.9483 87.2685 85.0072 87.4032 85.0072 87.5443V94.3427C85.0072 94.7556 85.1351 95.1584 85.3731 95.4958L88.0083 99.2301C88.2079 99.5131 88.3307 99.843 88.3646 100.188L88.7101 103.706C88.8089 104.712 89.6431 105.486 90.6539 105.51L94.9472 105.61C95.1695 105.615 95.3843 105.691 95.5601 105.828C96.3111 106.409 95.9535 107.611 95.0065 107.687L88.078 108.245C87.0343 108.329 86.1023 107.594 85.9412 106.559L85.0826 101.046C85.0331 100.728 84.9075 100.427 84.7166 100.168L82.195 96.7457C81.9417 96.402 81.8051 95.9862 81.8051 95.5593V90.7193C81.8051 90.1656 81.5755 89.6366 81.171 89.2584L79.9103 88.0796C79.1415 87.3608 77.9472 87.3608 77.1784 88.0796L75.9177 89.2584C75.5132 89.6366 75.2836 90.1656 75.2836 90.7193V95.5593C75.2836 95.9862 75.147 96.402 74.8937 96.7457L72.3721 100.168C72.1812 100.427 72.0556 100.728 72.0061 101.046L71.1475 106.559C70.9864 107.594 70.0545 108.329 69.0107 108.245L62.0822 107.687C61.1352 107.611 60.7776 106.409 61.5286 105.828C61.7044 105.691 61.9192 105.615 62.1415 105.61L66.4348 105.51C67.4456 105.486 68.2798 104.712 68.3786 103.706L68.7242 100.188C68.758 99.843 68.8808 99.5131 69.0805 99.2301L71.7156 95.4958C71.9537 95.1584 72.0815 94.7556 72.0815 94.3427V87.5442C72.0815 87.4032 72.1403 87.2685 72.2439 87.1727C72.5765 86.8649 72.368 86.3087 71.915 86.2954L49.1852 85.627C48.6919 85.6125 48.4206 86.1952 48.7492 86.5634C48.8824 86.7126 49.0848 86.7799 49.2808 86.74L51.1436 86.3609C52.383 86.1087 53.5424 87.0559 53.5424 88.3208V96.3175C53.5424 97.5862 51.9856 98.1955 51.1243 97.2639C50.8604 96.9785 50.4893 96.8161 50.1005 96.8161H49.8941C48.8633 96.8161 48.0278 95.9806 48.0278 94.9498V91.9447C48.0278 91.305 47.7217 90.7038 47.2044 90.3274L46.4339 89.7668C45.5835 89.1481 44.3991 89.2937 43.7239 90.1L39.7681 94.824C39.6163 95.0053 39.5067 95.2181 39.4472 95.447L39.1082 96.7509C39.0271 97.0629 38.6789 97.2207 38.3908 97.0761C38.1809 96.9707 37.9261 97.0234 37.7753 97.2035L37.0659 98.0506C36.7784 98.3938 36.7457 98.8834 36.985 99.2618C37.2296 99.6487 37.1894 100.151 36.8863 100.494L35.9353 101.57C35.7002 101.836 35.2724 101.788 35.1013 101.477C34.9281 101.162 34.4933 101.118 34.2607 101.392L32.8918 103.004C32.7548 103.165 32.5341 103.228 32.3328 103.163C31.8525 103.007 31.4529 103.556 31.7484 103.965L32.2903 104.716C32.5106 105.021 32.4965 105.436 32.2562 105.726L31.7296 106.36C31.1539 107.054 30.1556 107.218 29.3882 106.745L28.6644 106.299C28.0905 105.946 27.9718 105.161 28.4152 104.654L28.6763 104.355C28.908 104.09 29.3057 104.05 29.585 104.265L29.8442 104.464C30.0374 104.612 30.0502 104.899 29.871 105.064C29.6733 105.246 29.7127 105.568 29.9485 105.697L30.0604 105.758C30.2611 105.868 30.5111 105.822 30.6599 105.648L30.8048 105.479C31.0329 105.212 31.0485 104.824 30.8425 104.54L30.1774 103.623C29.7968 103.099 29.1857 102.791 28.5376 102.798L25.8937 102.825C25.3224 102.831 24.7809 103.081 24.4059 103.512L22.6464 105.534C22.2177 106.027 21.5755 106.279 20.9261 106.21L20.3207 106.145C20.0899 106.121 19.8581 106.182 19.6696 106.317L16.6029 108.52C16.1364 108.855 15.5765 108.246 15.9494 107.809L16.5799 107.07C16.7457 106.876 16.5407 106.59 16.3032 106.684C16.0372 106.789 15.837 106.431 16.0664 106.26L20.2418 103.143C20.8212 102.711 20.7122 101.813 20.0463 101.531L19.4617 101.284C19.147 101.152 18.9485 100.836 18.9645 100.495C18.9847 100.064 18.6653 99.6917 18.236 99.6461L17.3567 99.5528C17.2218 99.5385 17.0881 99.5894 16.997 99.69C16.6815 100.038 16.1242 99.6756 16.2917 99.2366C16.3532 99.0754 16.5061 98.9647 16.6785 98.9589L18.097 98.9112C18.5295 98.8966 18.8627 98.5248 18.83 98.0933L18.4823 93.5135C18.4516 93.1099 17.8633 93.0999 17.8189 93.5022C17.7907 93.7578 17.4959 93.8864 17.2893 93.7333L15.5271 92.4265C15.0643 92.0833 14.8229 91.517 14.8957 90.9454L14.9759 90.3161C15.1283 89.1208 14.1969 88.0632 12.992 88.0632H10.8697C10.1456 88.0632 9.53711 88.6073 9.45649 89.3269L9.42036 89.6494C9.32015 90.5439 8.31833 91.0249 7.5576 90.5439C7.36267 90.4206 7.13678 90.3552 6.90615 90.3552H4.97436C4.64543 90.3552 4.325 90.4597 4.05929 90.6536L3.75919 90.8725C3.41262 91.1254 2.94495 91.1348 2.58855 90.8959C2.26958 90.6822 2.09746 90.3076 2.14302 89.9263L2.26454 88.9095C2.30768 88.5485 2.1525 88.1923 1.85873 87.9781C1.07273 87.4049 1.47814 86.1609 2.45091 86.1609H2.64974C3.19262 86.1609 3.64945 85.7543 3.71241 85.2151L3.75406 84.8584C3.81523 84.3345 3.59168 83.8178 3.16791 83.5038L0.809305 81.7557C-0.0109465 81.1478 -0.241639 80.0197 0.274125 79.1386L2.20346 75.8426C2.28456 75.704 2.43305 75.6189 2.59358 75.6189C3.12983 75.6189 3.21979 74.8509 2.69806 74.727L0.699607 74.2523C0.412577 74.1841 0.200232 73.9416 0.170543 73.6481L0.126375 73.2114C0.0257477 72.2166 1.03219 71.4805 1.94975 71.8779L4.21408 72.8587C4.88103 73.1475 5.64695 72.7631 5.81394 72.0558L5.89909 71.6951C5.9568 71.4507 5.86056 71.1956 5.65574 71.0503L3.59174 69.5853C3.23758 69.334 3.54834 68.7864 3.94573 68.9616C4.08843 69.0245 4.25541 68.9885 4.3595 68.8724L8.13855 64.6565C8.25442 64.5272 8.27488 64.3384 8.18939 64.1873C8.1127 64.0518 7.96501 63.9724 7.80965 63.983L7.26744 64.0203C6.15582 64.0968 5.49396 62.8044 6.20572 61.9471L6.30543 61.827C6.51584 61.5735 6.81256 61.4069 7.13847 61.3592L8.17151 61.208C8.51382 61.1579 8.83729 61.0199 9.11029 60.8074L11.2165 59.168C11.4012 59.0242 11.5092 58.8033 11.5092 58.5692C11.5092 58.1605 11.1855 57.8252 10.7771 57.8108L9.56344 57.768C9.10267 57.7518 8.65045 57.8952 8.28329 58.1741L5.08282 60.6048C4.6462 60.9364 4.04653 60.952 3.59326 60.6436L2.81663 60.115C2.43994 59.8587 2.44235 59.3026 2.82125 59.0495C3.32715 58.7116 3.1238 57.9251 2.51751 57.8748L1.82822 57.8176C1.33428 57.7766 0.970567 57.3376 1.02216 56.8446L1.07209 56.3676C1.14731 55.6489 1.77384 55.1161 2.49527 55.1573L11.5197 55.6723C11.7529 55.6856 11.9732 55.5648 12.0873 55.361L12.2199 55.1241C12.3439 54.9026 12.2296 54.6233 11.9859 54.5523C11.8174 54.5032 11.7016 54.3488 11.7016 54.1733V53.3983C11.7016 52.8703 11.2273 52.4688 10.7066 52.556L8.74478 52.8844C8.64935 52.9004 8.58503 52.7896 8.64622 52.7147C8.70366 52.6443 8.65053 52.5391 8.55979 52.5436L5.66464 52.6866C4.54867 52.7418 3.8246 51.5273 4.40377 50.5718L4.44501 50.5038C4.77865 49.9533 5.43773 49.6921 6.05786 49.8645L9.55419 50.8363C9.86457 50.9226 10.1966 50.8174 10.4008 50.5683C10.5729 50.3582 10.8384 50.248 11.1087 50.2744L13.4376 50.5017C14.2275 50.5788 14.9884 50.1815 15.3765 49.4891L17.0291 46.541C17.2226 46.1958 17.2428 45.7799 17.0837 45.4176C16.72 44.5897 15.6285 44.4027 15.01 45.0624L14.0972 46.0359C13.7715 46.3832 13.3111 46.5722 12.8353 46.5537L12.1331 46.5265C11.1644 46.489 10.6078 45.408 11.1401 44.5977C11.3705 44.247 11.7618 44.0359 12.1814 44.0359H12.5994C13.0828 44.0359 13.5497 43.8608 13.914 43.5432L14.5456 42.9923C15.1416 42.4725 15.3753 41.6503 15.142 40.8948L13.899 36.8707C13.7023 36.2341 13.2017 35.7373 12.5636 35.5455L9.577 34.6481C9.07711 34.4979 8.65575 34.1582 8.40289 33.7015L7.90611 32.8044C7.53954 32.1424 7.83325 31.3088 8.53385 31.0228C9.1061 30.7892 9.76335 31.004 10.0872 31.5304L10.5909 32.349C10.8484 32.7675 11.2508 33.0765 11.7215 33.2172L13.9571 33.8855C14.2261 33.9659 14.5173 33.9129 14.7407 33.7428L15.1468 33.4337C15.3105 33.3091 15.3416 33.0751 15.216 32.9121C14.9965 32.6271 15.2704 32.2278 15.6153 32.33L15.9817 32.4385C16.1859 32.499 16.4059 32.422 16.5279 32.2474L18.8843 28.8733C19.3535 28.2015 19.3655 27.3114 18.9144 26.6272L17.8606 25.0289C17.6555 24.7178 17.2531 24.6043 16.9156 24.7624C16.2009 25.0972 15.52 24.2435 16.0055 23.6212L16.6989 22.7322C17.1074 22.2085 17.8994 22.2084 18.3081 22.732L18.813 23.3788C19.4734 24.225 20.7509 24.2318 21.4204 23.3928L23.2952 21.043C23.4311 20.8727 23.5382 20.6814 23.6124 20.4765L25.0628 16.4707C25.0957 16.3796 25.1462 16.2958 25.2113 16.2241L25.5583 15.8416C26.0189 15.334 26.8456 15.8162 26.6306 16.467C26.5922 16.5833 26.5882 16.7083 26.6193 16.8268L26.6568 16.9703C26.8919 17.8677 28.0453 18.1202 28.6338 17.403L33.874 11.0162C34.3759 10.4045 34.2804 9.50043 33.6618 9.00712L33.0938 8.55421C32.2555 7.88574 31.0387 8.6246 31.2452 9.67673L31.3013 9.96216C31.4003 10.4666 31.0489 10.9485 30.5384 11.0086L29.9929 11.0728C29.2799 11.1568 28.8963 10.2602 29.4494 9.80249C29.6616 9.62682 29.7551 9.34547 29.6901 9.07771L29.6701 8.99507C29.4933 8.26618 28.5313 8.10064 28.121 8.72848L26.8607 10.657C26.4214 11.3292 25.4498 11.3797 24.9278 10.7694C24.253 9.98062 24.8283 8.74719 25.8653 8.79343L25.9861 8.79881C26.3469 8.8149 26.6875 8.63194 26.8733 8.32224C27.336 7.55093 26.6062 6.61449 25.7452 6.87482L24.7737 7.16858C24.4849 7.2559 24.172 7.15826 23.9842 6.92219L23.5857 6.42139C23.1814 5.91327 23.7585 5.21391 24.3341 5.5145C24.4412 5.57041 24.5626 5.59277 24.6826 5.57865L25.5076 5.48153C26.3627 5.38089 26.539 4.21769 25.7663 3.83797C25.532 3.72282 25.3644 3.50039 25.3212 3.24289C25.1868 2.44201 26.1948 1.97646 26.737 2.58099C26.8474 2.70407 26.9937 2.792 27.1544 2.83082L30.8214 3.71647C31.517 3.88446 32.2493 3.66805 32.7418 3.14895L34.5746 1.21724C34.7064 1.07838 34.7569 0.881225 34.7081 0.696133C34.5585 0.128895 35.2794 -0.249677 35.6615 0.195415L36.762 1.47722C37.1632 1.94458 37.0144 2.66504 36.4609 2.93525L35.6382 3.33687C34.3027 3.98881 34.4445 5.93625 35.8604 6.38777L39.222 7.45978C39.4342 7.52745 39.6239 7.65168 39.7708 7.8191L41.5709 9.87104C42.0826 10.4543 41.412 11.315 40.7213 10.9615C40.2201 10.7049 39.6355 11.1117 39.7019 11.6708L39.7875 12.3921C39.8345 12.7879 40.0935 13.1265 40.4632 13.2754L48.6199 16.561C48.9335 16.6874 49.2101 16.8912 49.4236 17.1534L55.1395 24.1739C55.5599 24.6901 56.2095 24.9634 56.8725 24.9028L61.0742 24.5188C61.301 24.4981 61.5162 24.4095 61.6919 24.2646L62.4883 23.6076C62.998 23.1871 62.7279 22.3596 62.0682 22.3209L62.0047 22.3172C61.7103 22.2999 61.4651 22.0852 61.4091 21.7957L61.309 21.2781C61.2046 20.7387 61.8985 20.4264 62.2331 20.8621C62.3507 21.0152 62.5433 21.0907 62.7336 21.0583L65.0225 20.6676C65.6578 20.5592 66.2019 20.1512 66.4841 19.5717L68.0189 16.4198C68.0847 16.2846 68.0599 16.1227 67.9565 16.0135C67.6699 15.7108 68.0393 15.2438 68.3999 15.453L69.8577 16.2988C69.9951 16.3786 70.0459 16.552 69.9732 16.6932C69.8248 16.9813 70.1778 17.2659 70.4279 17.0598L71.3281 16.3178C71.4243 16.2384 71.4901 16.1281 71.514 16.0056L72.4243 11.3451C72.5976 10.4576 71.834 9.66876 70.9413 9.81325L69.4146 10.0604C68.7678 10.1651 68.3347 9.41448 68.749 8.90686L69.4285 8.07433C69.6244 7.83436 70.0131 7.97286 70.0131 8.2826C70.0131 8.47198 70.1724 8.62236 70.3615 8.61144L72.4929 8.48827C73.0356 8.45691 73.5421 8.20598 73.8959 7.79327L75.5691 5.84141C75.6939 5.69581 75.7175 5.48887 75.6286 5.31896C75.4154 4.91165 75.8549 4.47282 76.2619 4.68661L77.1539 5.15519C77.2789 5.22084 77.4322 5.1508 77.4644 5.01335C77.5179 4.78478 77.8464 4.79395 77.8871 5.02515L77.9859 5.58686C77.9864 5.58982 77.9883 5.59238 77.9909 5.59385L77.992 5.59449C77.9972 5.59742 77.9982 5.6045 77.994 5.60872C77.9919 5.6108 77.9909 5.61376 77.9915 5.61666L78.1248 6.37342C78.1496 6.51392 78.2431 6.63273 78.3738 6.68986C78.4825 6.73736 78.6061 6.73738 78.7148 6.68988C78.8456 6.63273 78.9391 6.51385 78.9637 6.37327L79.0963 5.61653C79.0968 5.6137 79.096 5.61079 79.094 5.60868C79.0901 5.60436 79.091 5.5975 79.0961 5.59448L79.097 5.59391C79.0995 5.5924 79.1013 5.58986 79.1018 5.58697L79.2011 5.02481C79.2419 4.79374 79.5702 4.78479 79.6235 5.01329C79.6556 5.15074 79.8089 5.22085 79.9339 5.15523L80.8268 4.68636C81.2338 4.4726 81.6734 4.91153 81.4602 5.31889C81.3712 5.48885 81.3948 5.69584 81.5196 5.84147L83.1928 7.79327C83.5466 8.20598 84.0532 8.45691 84.5959 8.48827L86.7272 8.61144C86.9163 8.62236 87.0756 8.47198 87.0756 8.2826C87.0756 7.97286 87.4643 7.83436 87.6602 8.07433L88.3397 8.90686C88.754 9.41448 88.3209 10.1651 87.6741 10.0604L86.1475 9.81325C85.2548 9.66876 84.4911 10.4576 84.6644 11.3451L85.5747 16.0056C85.5987 16.1281 85.6644 16.2384 85.7606 16.3178L86.6604 17.0598C86.9105 17.266 87.2637 16.9815 87.1154 16.6933C87.0428 16.552 87.0936 16.3786 87.231 16.2989L88.6888 15.453C89.0494 15.2438 89.4188 15.7108 89.1322 16.0135C89.0288 16.1227 89.004 16.2846 89.0698 16.4198L90.6046 19.5717C90.8868 20.1512 91.4309 20.5592 92.0663 20.6676L94.3551 21.0583C94.5454 21.0907 94.738 21.0152 94.8556 20.8621C95.1902 20.4264 95.8841 20.7387 95.7798 21.2781L95.6796 21.7957C95.6236 22.0852 95.3784 22.2999 95.084 22.3172L95.0204 22.3209C94.3605 22.3596 94.0904 23.1873 94.6003 23.6079L95.3969 24.2648C95.5725 24.4096 95.7877 24.4981 96.0143 24.5188L100.215 24.9028C100.878 24.9634 101.528 24.6902 101.948 24.174L107.665 17.1533C107.879 16.8912 108.155 16.6874 108.469 16.561L116.626 13.2754C116.995 13.1265 117.254 12.7879 117.301 12.3921L117.387 11.6708C117.453 11.1117 116.869 10.7049 116.367 10.9615C115.677 11.315 115.006 10.4543 115.518 9.87104L117.318 7.8191C117.465 7.65168 117.655 7.52745 117.867 7.45978L121.228 6.38777C122.644 5.93625 122.786 3.98881 121.451 3.33688L120.628 2.93525C120.074 2.66504 119.926 1.94458 120.327 1.47722L121.427 0.195415C121.809 -0.249676 122.53 0.128895 122.381 0.696133ZM10.6339 95.3822C10.9216 95.7055 11.0114 96.1593 10.8686 96.5678L9.78609 99.6636C9.67162 99.9909 9.24898 100.077 9.01538 99.8209C8.90053 99.6949 8.86518 99.5156 8.92364 99.3554L9.83834 96.8497C9.88348 96.726 9.85763 96.5876 9.7709 96.4886C9.59471 96.2874 9.2685 96.3414 9.16651 96.5886L8.22348 98.8742C7.94264 99.5548 8.08164 100.337 8.57989 100.879L8.88704 101.213C9.40655 101.778 9.55664 102.591 9.27326 103.304L7.71004 107.241C7.52007 107.719 6.89081 107.826 6.55346 107.437C6.39202 107.251 6.34259 106.993 6.42392 106.761L7.09456 104.844C7.31807 104.205 7.16661 103.494 6.7019 103.002C6.20612 102.477 6.06967 101.708 6.35465 101.044L8.64848 95.7041C8.99288 94.9023 10.0538 94.7303 10.6339 95.3822ZM150.734 101.044C151.019 101.708 150.883 102.477 150.387 103.002C149.922 103.494 149.771 104.205 149.994 104.844L150.665 106.761C150.746 106.993 150.697 107.251 150.535 107.437C150.198 107.826 149.569 107.719 149.379 107.241L147.815 103.304C147.532 102.591 147.682 101.778 148.202 101.213L148.509 100.879C149.007 100.337 149.146 99.5548 148.865 98.8742L147.922 96.5886C147.82 96.3414 147.494 96.2874 147.318 96.4886C147.231 96.5876 147.205 96.726 147.25 96.8497L148.165 99.3554C148.224 99.5156 148.188 99.6949 148.073 99.8209C147.84 100.077 147.417 99.9909 147.303 99.6636L146.22 96.5678C146.077 96.1593 146.167 95.7055 146.455 95.3822C147.035 94.7303 148.096 94.9023 148.44 95.7041L150.734 101.044ZM22.6889 94.2674C22.6081 95.1083 21.5071 95.3681 21.0589 94.6521C20.6204 93.9515 19.5461 94.1818 19.4332 95.0005L19.1549 97.0192C19.0195 98.0014 19.7882 98.8747 20.7797 98.8649L22.6095 98.8467C23.1935 98.841 23.7459 98.5801 24.1214 98.1328L28.8115 92.5462C29.5499 91.6667 29.3976 90.3473 28.4783 89.6591L26.3395 88.0581C25.0905 87.1231 23.2994 87.9148 23.1502 89.4679L22.6889 94.2674ZM128.61 89.6591C127.691 90.3473 127.539 91.6667 128.277 92.5462L132.967 98.1328C133.343 98.5801 133.895 98.841 134.479 98.8467L136.309 98.8649C137.3 98.8747 138.069 98.0014 137.934 97.0192L137.655 95.0005C137.543 94.1818 136.468 93.9515 136.03 94.6521C135.582 95.3681 134.481 95.1083 134.4 94.2674L133.939 89.4679C133.789 87.9148 131.998 87.1231 130.749 88.0581L128.61 89.6591ZM29.3446 97.8397C29.0053 98.2296 29.2822 98.8376 29.799 98.8376C30.0402 98.8376 30.2582 98.6937 30.3529 98.4719C30.6226 97.8405 29.7954 97.3219 29.3446 97.8397ZM126.736 98.4719C126.831 98.6937 127.049 98.8376 127.29 98.8376C127.807 98.8376 128.083 98.2296 127.744 97.8397C127.293 97.3219 126.466 97.8405 126.736 98.4719ZM34.0771 85.3463C33.1184 85.3605 32.5432 86.4169 33.0516 87.2299L33.5679 88.0555C33.8773 88.5503 34.6154 88.493 34.8447 87.9564L35.2966 86.8988C35.3584 86.7542 35.561 86.7475 35.6323 86.8877C35.7206 87.0615 35.9828 86.9987 35.9828 86.8038V85.7598C35.9828 85.5169 35.784 85.321 35.5411 85.3246L34.0771 85.3463ZM121.106 86.8038C121.106 86.9987 121.368 87.0615 121.456 86.8877C121.528 86.7475 121.73 86.7542 121.792 86.8988L122.244 87.9564C122.473 88.493 123.211 88.5503 123.521 88.0555L124.037 87.2299C124.546 86.4169 123.97 85.3605 123.012 85.3463L121.548 85.3246C121.305 85.321 121.106 85.5169 121.106 85.7598V86.8038ZM49.6443 73.2043C49.5818 73.3537 49.6927 73.5181 49.8546 73.5162C50.0839 73.5136 50.1627 73.2097 49.9636 73.0958C49.8462 73.0287 49.6965 73.0796 49.6443 73.2043ZM107.125 73.0958C106.926 73.2097 107.005 73.5136 107.234 73.5162C107.396 73.5181 107.507 73.3537 107.444 73.2043C107.392 73.0796 107.243 73.0287 107.125 73.0958ZM56.0933 58.43C55.5467 59.3918 55.8847 60.6146 56.8477 61.1592L64.8504 65.6845C65.2459 65.9082 65.5534 66.2598 65.7224 66.6815L68.0457 72.4787C68.2444 72.9746 68.7275 73.2975 69.2618 73.2914C70.4281 73.2781 70.983 71.8499 70.1317 71.0526L69.9004 70.836C69.6134 70.5673 69.4506 70.1917 69.4506 69.7985V69.7121C69.4506 69.3475 69.3277 68.9935 69.1017 68.7074L67.4735 66.6462C67.1606 66.2501 67.0091 65.7504 67.0492 65.2473L67.1073 64.5207C67.1472 64.0205 66.9977 63.5236 66.6883 63.1285L62.6605 57.9845C62.2815 57.5004 61.7007 57.2175 61.0858 57.2175H60.408C60.0714 57.2175 59.7403 57.1326 59.4452 56.9705L59.2505 56.8636C58.2923 56.3373 57.0891 56.678 56.549 57.6284L56.0933 58.43ZM97.6436 56.9704C97.3485 57.1325 97.0172 57.2175 96.6805 57.2175H96.0028C95.3879 57.2175 94.8073 57.5003 94.4282 57.9844L90.3999 63.1281C90.0903 63.5234 89.9407 64.0208 89.9809 64.5213L90.0391 65.2468C90.0795 65.7502 89.928 66.2503 89.6149 66.6466L87.9871 68.7074C87.761 68.9935 87.6381 69.3475 87.6381 69.7121V69.7985C87.6381 70.1917 87.4753 70.5673 87.1883 70.836L86.957 71.0526C86.1057 71.8499 86.6606 73.2781 87.8269 73.2914C88.3612 73.2975 88.8443 72.9746 89.043 72.4787L91.3663 66.6815C91.5353 66.2598 91.8428 65.9082 92.2383 65.6845L100.241 61.1594C101.204 60.6148 101.542 59.3917 100.995 58.4299L100.539 57.6282C99.9988 56.6779 98.7955 56.3375 97.8374 56.8639L97.6436 56.9704ZM75.7678 31.5261C75.6882 31.6223 75.7494 31.7682 75.8738 31.7789C76.041 31.7933 76.069 32.0262 75.91 32.0798L75.1645 32.3311C75.1083 32.35 75.0585 32.3843 75.0207 32.43L73.8439 33.8528C73.7459 33.9713 73.6049 34.0462 73.4519 34.0612L70.3981 34.3604C70.1602 34.3837 70.0849 34.0481 70.31 33.9675L65.2705 35.6682C65.0645 35.7377 64.8485 35.7732 64.631 35.7732H60.6573C60.378 35.7732 60.2215 36.0949 60.3938 36.3147C60.6346 36.6217 60.2449 37.0225 59.9312 36.7905L56.3336 34.1297C56.3296 34.1268 56.3245 34.1318 56.3275 34.1358C56.3305 34.14 56.3249 34.1451 56.321 34.1416L56.1957 34.0281L52.6194 31.3834C52.1942 31.0689 51.5922 31.3725 51.5922 31.9013V36.1468C51.5922 36.5519 51.0012 36.596 50.9411 36.1954C50.8869 35.8343 50.3716 35.8196 50.2969 36.177L50.0594 37.3126C50.0444 37.3844 50.1195 37.4414 50.1846 37.4077C50.267 37.3651 50.35 37.4636 50.2941 37.5376L49.9348 38.0126C49.915 38.0389 49.9012 38.0692 49.8945 38.1013L49.7881 38.6126C49.6665 39.1967 49.2905 39.696 48.7628 39.9742L48.3927 40.1693C48.2983 40.2191 48.2162 40.289 48.152 40.3742C47.8078 40.831 48.1039 41.4877 48.6741 41.5322L50.7534 41.6945C50.9629 41.7109 51.1428 41.8494 51.2122 42.0477C51.2926 42.2776 51.5194 42.4231 51.7619 42.4002L55.9224 42.0071C56.449 41.9573 56.9343 41.7011 57.2724 41.2944L58.7691 39.4936C59.2496 38.9155 60.0139 38.6556 60.7472 38.8211L64.2213 39.6047C64.4707 39.6609 64.6479 39.8825 64.6479 40.1382C64.6479 40.6411 65.2695 40.8775 65.6036 40.5016L66.6306 39.3461C67.2472 38.6524 68.3905 38.9521 68.5874 39.8591L68.6872 40.3188C68.7282 40.5076 68.7289 40.7029 68.6893 40.8921L67.6771 45.7215C67.6024 46.078 67.4318 46.4072 67.1837 46.6738L61.8319 52.4241C61.7188 52.5457 61.5909 52.6527 61.4513 52.7426L58.1576 54.8653C58.1191 54.8901 58.0872 54.9238 58.0646 54.9636C57.9571 55.1527 58.0937 55.3874 58.3112 55.3874H72.1873C73.0753 55.3874 73.4428 56.5251 72.7226 57.0446C72.5667 57.157 72.3794 57.2175 72.1872 57.2175H71.9975C70.7292 57.2175 70.0316 58.6922 70.8361 59.6727L74.8425 64.556C75.1359 64.9136 75.2963 65.3619 75.2963 65.8246V66.6039C75.2963 67.0544 75.4484 67.4917 75.728 67.845L76.976 69.4221C77.7768 70.434 79.312 70.434 80.1127 69.4221L81.3607 67.845C81.6403 67.4917 81.7924 67.0544 81.7924 66.6039V65.8246C81.7924 65.3619 81.9528 64.9136 82.2462 64.556L86.2526 59.6727C87.0571 58.6922 86.3595 57.2175 85.0912 57.2175H84.9015C84.7093 57.2175 84.522 57.157 84.3662 57.0446C83.646 56.5251 84.0134 55.3874 84.9015 55.3874H98.7775C98.995 55.3874 99.1316 55.1527 99.0241 54.9636C99.0015 54.9238 98.9696 54.8901 98.9311 54.8653L95.6374 52.7426C95.4978 52.6527 95.3699 52.5457 95.2568 52.4241L89.905 46.6738C89.6569 46.4072 89.4863 46.078 89.4116 45.7215L88.3994 40.8921C88.3598 40.703 88.3605 40.5076 88.4015 40.3188L88.5013 39.8591C88.6982 38.9521 89.8416 38.6524 90.4581 39.3461L91.4851 40.5016C91.8192 40.8775 92.4408 40.6411 92.4408 40.1382C92.4408 39.8825 92.618 39.6609 92.8674 39.6047L96.3415 38.8211C97.0749 38.6556 97.8391 38.9155 98.3196 39.4936L99.8163 41.2944C100.154 41.7011 100.64 41.9573 101.166 42.0071L105.327 42.4002C105.569 42.4231 105.796 42.2776 105.877 42.0477C105.946 41.8494 106.126 41.7109 106.335 41.6945L108.414 41.5323C108.984 41.4878 109.28 40.8306 108.936 40.3739C108.872 40.2889 108.789 40.2191 108.695 40.1694L108.325 39.9739C107.798 39.6959 107.422 39.1972 107.3 38.6139L107.193 38.1012C107.186 38.0691 107.173 38.0389 107.153 38.0128L106.794 37.5372C106.738 37.4633 106.821 37.3651 106.903 37.4077C106.968 37.4414 107.043 37.3845 107.028 37.3127L106.792 36.1782C106.717 35.8208 106.202 35.8354 106.147 36.1965C106.087 36.5971 105.497 36.553 105.497 36.1479V31.9012C105.497 31.3724 104.895 31.0688 104.469 31.3832L100.892 34.0281L100.767 34.1418C100.763 34.1454 100.758 34.1402 100.761 34.1358C100.764 34.1317 100.758 34.1266 100.754 34.1296L97.1575 36.7903C96.8439 37.0223 96.4543 36.6215 96.695 36.3145C96.8673 36.0948 96.7108 35.7732 96.4316 35.7732H92.4576C92.2402 35.7732 92.0242 35.7377 91.8182 35.6682L86.7778 33.9675C87.0028 34.048 86.9276 34.3836 86.6897 34.3603L83.6365 34.0612C83.4837 34.0462 83.3429 33.9714 83.245 33.8531L82.067 32.4299C82.0292 32.3843 81.9795 32.3501 81.9233 32.3311L81.1779 32.0796C81.0191 32.026 81.0471 31.7933 81.2141 31.7789C81.3385 31.7682 81.3996 31.6223 81.3201 31.5262L79.6937 29.5601C79.0971 28.8389 77.9915 28.8388 77.3948 29.5599L75.7678 31.5261ZM68.1784 65.0841C68.1606 65.0954 68.1564 65.1196 68.1696 65.1362L69.4002 66.6843C69.4168 66.7053 69.4506 66.6935 69.4506 66.6667C69.4506 66.6604 69.4485 66.6543 69.4446 66.6493L68.2252 65.0923C68.214 65.078 68.1938 65.0745 68.1784 65.0841ZM87.6441 66.6493C87.6402 66.6543 87.6381 66.6604 87.6381 66.6667C87.6381 66.6935 87.6719 66.7053 87.6885 66.6843L88.9187 65.1367C88.932 65.1199 88.9278 65.0953 88.9095 65.084C88.894 65.0744 88.8737 65.078 88.8625 65.0924L87.6441 66.6493ZM22.4064 63.6748C21.9627 63.8035 21.6242 64.1637 21.5233 64.6145L21.413 65.1075C21.3624 65.3339 21.1748 65.5041 20.9445 65.5327L20.8413 65.5455C20.4162 65.5981 20.2486 66.125 20.565 66.4136C20.6941 66.5314 20.8752 66.5734 21.0431 66.5246L24.7275 65.4522C24.9373 65.3911 25.128 65.2778 25.2819 65.1228L25.4226 64.981C25.9064 64.4935 25.8402 63.689 25.2831 63.2872C25.0042 63.086 24.6482 63.0245 24.318 63.1203L22.4064 63.6748ZM131.806 63.2872C131.249 63.689 131.182 64.4935 131.666 64.981L131.807 65.1228C131.961 65.2778 132.151 65.3911 132.361 65.4522L136.046 66.5246C136.213 66.5734 136.395 66.5314 136.524 66.4136C136.84 66.125 136.672 65.5981 136.247 65.5455L136.144 65.5327C135.914 65.5041 135.726 65.3339 135.676 65.1075L135.565 64.6145C135.464 64.1637 135.126 63.8035 134.682 63.6748L132.771 63.1203C132.44 63.0245 132.084 63.086 131.806 63.2872ZM9.90255 62.5476C9.5256 62.8384 9.54283 63.4126 9.93655 63.6804C10.0526 63.7593 10.1897 63.8015 10.3301 63.8015H12.3765C13.067 63.8015 13.7087 63.4453 14.0739 62.8592L14.2971 62.501C14.4405 62.271 14.5122 62.0035 14.5032 61.7327C14.4661 60.6193 13.1842 60.0155 12.3022 60.696L9.90255 62.5476ZM142.586 61.7327C142.577 62.0035 142.648 62.271 142.792 62.501L143.015 62.8592C143.38 63.4453 144.022 63.8015 144.712 63.8015H146.759C146.899 63.8015 147.036 63.7593 147.152 63.6804C147.546 63.4126 147.563 62.8384 147.186 62.5476L144.787 60.696C143.905 60.0155 142.623 60.6193 142.586 61.7327ZM25.9569 43.1824C25.916 43.341 25.906 43.5061 25.9275 43.6685L26.3646 46.9756C26.389 47.1604 26.6062 47.2471 26.7512 47.1301L27.3303 46.6626C27.3835 46.6197 27.4582 46.6779 27.4296 46.74C27.3984 46.8077 27.4876 46.8657 27.5368 46.8097L29.3556 44.7409C29.5062 44.5697 29.5106 44.3147 29.3661 44.1384L28.1805 42.6919C27.518 41.8836 26.2179 42.1703 25.9569 43.1824ZM127.723 44.1384C127.578 44.3147 127.583 44.5697 127.733 44.7409L129.552 46.8097C129.601 46.8657 129.69 46.8077 129.659 46.74C129.631 46.6779 129.705 46.6197 129.758 46.6626L130.338 47.1301C130.482 47.2471 130.7 47.1604 130.724 46.9756L131.161 43.6685C131.183 43.5061 131.173 43.341 131.132 43.1824C130.871 42.1703 129.571 41.8836 128.908 42.6919L127.723 44.1384ZM42.2411 38.7007C42.1503 38.8609 42.3735 39.0113 42.4879 38.8669C42.5624 38.7729 42.501 38.6338 42.3814 38.6255C42.324 38.6214 42.2695 38.6507 42.2411 38.7007ZM45.281 38.2656C45.1053 38.3629 44.9759 38.5267 44.9221 38.7203C44.7465 39.3511 45.4079 39.8878 45.9891 39.586L48.2519 38.4114C48.5114 38.2767 48.6742 38.0086 48.6742 37.7162C48.6742 37.1195 48.0337 36.742 47.5117 37.0309L45.281 38.2656ZM108.414 37.7163C108.414 38.0086 108.577 38.2767 108.837 38.4114L111.099 39.5858C111.68 39.8875 112.342 39.3507 112.166 38.7199C112.112 38.5266 111.983 38.363 111.807 38.2657L109.577 37.0311C109.055 36.7421 108.414 37.1196 108.414 37.7163ZM114.706 38.6254C114.587 38.6338 114.525 38.7729 114.6 38.8669C114.714 39.0112 114.937 38.8608 114.847 38.7006C114.818 38.6507 114.764 38.6214 114.706 38.6254ZM25.3968 36.8488C25.4271 37.171 25.8709 37.2331 25.9885 36.9316C26.0516 36.7697 25.968 36.5878 25.804 36.5303C25.5928 36.4562 25.3759 36.6259 25.3968 36.8488ZM131.285 36.5303C131.121 36.5878 131.037 36.7697 131.1 36.9316C131.218 37.2331 131.662 37.171 131.692 36.8488C131.713 36.6259 131.496 36.4562 131.285 36.5303ZM42.9396 37.4703C42.8352 37.6542 42.9843 37.8788 43.1944 37.854C43.2622 37.846 43.324 37.8115 43.3664 37.758L44.6993 36.0762C44.9194 35.7985 44.7216 35.3894 44.3672 35.3894C44.2147 35.3894 44.074 35.4713 43.9988 35.6039L42.9396 37.4703ZM112.721 35.3894C112.367 35.3894 112.169 35.7985 112.389 36.0762L113.721 37.7579C113.764 37.8115 113.826 37.846 113.893 37.854C114.104 37.8788 114.253 37.6543 114.148 37.4702L113.09 35.6041C113.015 35.4714 112.874 35.3894 112.721 35.3894ZM24.5693 32.2223C24.9636 32.5185 25.0353 33.082 24.7277 33.4675L24.041 34.3281C23.662 34.8032 22.8992 34.463 22.9993 33.8636C23.025 33.7094 22.9884 33.5513 22.8976 33.4241L22.8145 33.3078C22.2864 32.5685 21.1205 32.9421 21.1205 33.8507V34.8901C21.1205 34.9844 21.0624 35.0689 20.9744 35.1026C20.809 35.166 20.7762 35.3857 20.9159 35.4946L21.9522 36.3025C22.4167 36.6647 23.0942 36.5324 23.3884 36.0222L23.5704 35.7066C23.7016 35.4791 23.8992 35.2972 24.1368 35.1853L24.8953 34.8281C25.6864 34.4555 26.1438 33.6121 26.0244 32.7458L25.9818 32.4364C25.9339 32.0883 25.7951 31.759 25.5794 31.4816L24.6991 30.3495C24.5705 30.1841 24.3822 30.0757 24.1747 30.0473C23.3559 29.9356 22.9241 30.9859 23.5847 31.4824L24.5693 32.2223ZM132.914 30.0473C132.706 30.0757 132.518 30.1841 132.39 30.3495L131.509 31.4816C131.294 31.759 131.155 32.0883 131.107 32.4364L131.064 32.7458C130.945 33.6121 131.402 34.4555 132.193 34.8281L132.952 35.1853C133.189 35.2972 133.387 35.4791 133.518 35.7066L133.7 36.0222C133.995 36.5324 134.672 36.6647 135.136 36.3025L136.173 35.4946C136.313 35.3857 136.28 35.166 136.114 35.1026C136.026 35.0689 135.968 34.9844 135.968 34.8901V33.8507C135.968 32.9421 134.802 32.5685 134.274 33.3078L134.191 33.4241C134.1 33.5513 134.064 33.7094 134.089 33.8636C134.19 34.463 133.427 34.8032 133.048 34.3281L132.361 33.4675C132.053 33.082 132.125 32.5185 132.519 32.2223L133.504 31.4824C134.165 30.9859 133.733 29.9356 132.914 30.0473ZM45.7592 35.7153C45.6502 36.1063 46.0781 36.4275 46.4231 36.2137C46.8044 35.9774 46.637 35.3894 46.1884 35.3894C45.9884 35.3894 45.8129 35.5227 45.7592 35.7153ZM110.9 35.3894C110.451 35.3894 110.284 35.9775 110.665 36.2138C111.01 36.4277 111.438 36.1067 111.329 35.7156C111.276 35.5228 111.1 35.3894 110.9 35.3894ZM18.3715 33.9187L18.0378 34.2036C17.6511 34.5337 17.8846 35.1667 18.393 35.1667C18.6286 35.1667 18.8377 35.0159 18.9121 34.7924L19.0463 34.3893C19.1813 33.9839 18.7053 33.6519 18.3715 33.9187ZM138.177 34.7924C138.251 35.0159 138.46 35.1667 138.696 35.1667C139.204 35.1667 139.438 34.5337 139.051 34.2035L138.717 33.9187C138.383 33.6519 137.907 33.9839 138.042 34.3893L138.177 34.7924ZM44.2762 33.9712C44.3127 34.5085 44.7913 34.906 45.3262 34.843L45.6551 34.8043C45.6918 34.8 45.7252 34.7814 45.7481 34.7525L45.9599 34.4857C46.0079 34.4251 46.1044 34.4744 46.0836 34.5488C46.0669 34.6086 46.1297 34.6595 46.1847 34.6307L47.2487 34.0735C47.7787 33.796 47.6065 32.9968 47.0093 32.9621L45.3188 32.8638C44.7233 32.8292 44.2324 33.3248 44.2727 33.92L44.2762 33.9712ZM110.081 32.962C109.483 32.9967 109.311 33.7965 109.841 34.0743L110.903 34.6307C110.958 34.6596 111.021 34.6087 111.004 34.5489C110.984 34.4743 111.08 34.4251 111.128 34.4858L111.34 34.7523C111.363 34.7813 111.396 34.8 111.433 34.8043L111.762 34.8431C112.297 34.906 112.775 34.5087 112.811 33.9716L112.815 33.92C112.855 33.3248 112.364 32.8292 111.769 32.8638L110.081 32.962ZM33.2289 31.1872C33.2289 31.6079 33.8312 31.6788 33.9289 31.2696C33.9617 31.1324 33.91 30.9888 33.7974 30.9039C33.5636 30.7276 33.2289 30.8944 33.2289 31.1872ZM123.291 30.9039C123.179 30.9888 123.127 31.1324 123.16 31.2696C123.257 31.6788 123.86 31.6079 123.86 31.1872C123.86 30.8944 123.525 30.7276 123.291 30.9039ZM31.6622 33.4236C31.5619 33.6543 31.8161 33.8782 32.0323 33.7497C32.1026 33.7079 32.149 33.6355 32.1576 33.5542C32.1888 33.2592 31.7804 33.1516 31.6622 33.4236ZM124.931 33.5542C124.94 33.6355 124.986 33.7079 125.056 33.7497C125.273 33.8782 125.527 33.6543 125.426 33.4236C125.308 33.1516 124.9 33.2592 124.931 33.5542ZM30.1631 32.8644C30.1507 33.0259 30.2783 33.1638 30.4403 33.1638C30.5789 33.1638 30.6964 33.0617 30.7156 32.9244L31.3912 28.1075C31.4079 27.9884 31.374 27.8677 31.2976 27.7748C31.0517 27.4753 30.5662 27.6284 30.5364 28.0148L30.1631 32.8644ZM125.791 27.7748C125.715 27.8677 125.681 27.9884 125.698 28.1075L126.373 32.9244C126.392 33.0617 126.51 33.1638 126.648 33.1638C126.81 33.1638 126.938 33.0259 126.926 32.8644L126.552 28.0148C126.523 27.6284 126.037 27.4753 125.791 27.7748ZM31.6279 31.6244C31.5771 31.9916 32.0406 32.1942 32.2757 31.9076C32.3179 31.856 32.3454 31.794 32.3551 31.7281L32.6636 29.6316C32.6791 29.5265 32.6494 29.4197 32.582 29.3376C32.3735 29.0839 31.9627 29.1999 31.9178 29.5252L31.6279 31.6244ZM124.507 29.3376C124.439 29.4197 124.41 29.5265 124.425 29.6316L124.734 31.7281C124.743 31.794 124.771 31.856 124.813 31.9076C125.048 32.1942 125.512 31.9916 125.461 31.6244L125.171 29.5252C125.126 29.1999 124.715 29.0839 124.507 29.3376ZM18.907 32.0421C18.7221 32.3131 18.9684 32.6694 19.2872 32.5923C19.4382 32.5557 19.5484 32.4261 19.5602 32.2712C19.5879 31.9056 19.1137 31.7393 18.907 32.0421ZM137.529 32.2712C137.54 32.4261 137.651 32.5557 137.802 32.5923C138.12 32.6694 138.367 32.3131 138.182 32.0421C137.975 31.7393 137.501 31.9056 137.529 32.2712ZM25.2601 26.9275C24.8697 27.3545 24.9762 28.0333 25.4786 28.3202L26.0204 28.6297C26.1578 28.7082 26.3329 28.6595 26.4101 28.5213C26.5768 28.2226 27.032 28.418 26.9304 28.7446L26.4489 30.2925C26.4125 30.4094 26.425 30.536 26.4834 30.6436L26.4977 30.6699C26.7521 31.1384 27.4622 30.9725 27.4825 30.4397L27.539 28.9615C27.5431 28.8519 27.5735 28.7448 27.6275 28.6493C27.9972 27.9951 28.9982 28.3229 28.9093 29.0691L28.5518 32.0708C28.5214 32.3258 28.7519 32.5345 29.0027 32.479C29.1823 32.4392 29.3061 32.2744 29.2942 32.0908L29.1584 29.9944C29.1368 29.6602 29.1994 29.3259 29.3405 29.0222L29.8884 27.8433C30.2123 27.1462 30.1081 26.3251 29.6202 25.731L29.5391 25.6324C28.7663 24.6915 27.3392 24.6536 26.5176 25.5522L25.2601 26.9275ZM127.469 25.731C126.981 26.3251 126.876 27.1462 127.2 27.8433L127.748 29.0222C127.889 29.3259 127.952 29.6602 127.93 29.9944L127.795 32.0908C127.783 32.2744 127.906 32.4392 128.086 32.479C128.337 32.5345 128.567 32.3258 128.537 32.0708L128.179 29.0691C128.091 28.3229 129.091 27.9951 129.461 28.6493C129.515 28.7448 129.546 28.8519 129.55 28.9615L129.606 30.4397C129.627 30.9725 130.337 31.1384 130.591 30.6699L130.605 30.6436C130.664 30.536 130.676 30.4094 130.64 30.2925L130.158 28.7446C130.057 28.418 130.512 28.2226 130.679 28.5213C130.756 28.6595 130.931 28.7082 131.068 28.6297L131.61 28.3202C132.113 28.0333 132.219 27.3545 131.829 26.9275L130.571 25.5522C129.749 24.6536 128.322 24.6915 127.55 25.6324L127.469 25.731ZM40.0692 20.6236C39.6375 20.6493 39.417 21.1537 39.6914 21.488L41.2837 23.4283C41.4933 23.6838 41.1557 24.0235 40.8989 23.8155C40.6372 23.6034 40.2975 23.9587 40.5211 24.2106L41.7082 25.5482C42.0547 25.9387 41.5216 26.4862 41.122 26.1502L40.7229 25.8147C40.3292 25.4836 39.7935 26.0017 40.1112 26.4063L40.5271 26.9359C40.6414 27.0816 40.8754 27.0007 40.8754 26.8155C40.8754 26.6167 41.1382 26.5454 41.2387 26.717L43.2249 30.1104C43.3083 30.2528 43.51 30.2639 43.6085 30.1315C43.7362 29.9597 44.0087 30.0398 44.0231 30.2533L44.1238 31.7365C44.1536 32.1747 44.5394 32.5016 44.9765 32.4591L46.7152 32.2897C47.0398 32.258 47.3454 32.1221 47.5863 31.9021L48.647 30.9337C48.887 30.7146 48.8414 30.3247 48.5574 30.1668L47.4331 29.5416C47.1049 29.3591 47.3082 28.8584 47.6708 28.9563C47.7714 28.9835 47.879 28.9597 47.9588 28.8925L48.1391 28.7405C48.3553 28.5584 48.3446 28.2222 48.1173 28.0542C48.0851 28.0304 48.0563 28.0022 48.0318 27.9706L47.6396 27.4654C47.6077 27.4243 47.5676 27.3902 47.5219 27.3653L46.7891 26.9667C46.6825 26.9088 46.7155 26.7478 46.8363 26.7365C46.9328 26.7274 46.9813 26.6154 46.9219 26.5388L42.6503 21.0317C42.3896 20.6957 41.98 20.5099 41.5555 20.5352L40.0692 20.6236ZM110.166 26.5386C110.107 26.6153 110.155 26.7274 110.252 26.7365C110.373 26.7478 110.406 26.909 110.299 26.967L109.566 27.3653C109.52 27.3902 109.48 27.4244 109.448 27.4656L109.057 27.9703C109.032 28.0021 109.003 28.0304 108.971 28.0543C108.744 28.2222 108.733 28.5585 108.949 28.7405L109.13 28.8926C109.21 28.9597 109.317 28.9835 109.418 28.9563C109.78 28.8584 109.984 29.3592 109.655 29.5417L108.531 30.1668C108.247 30.3247 108.202 30.7146 108.442 30.9337L109.502 31.9022C109.743 32.1221 110.049 32.258 110.374 32.2897L112.111 32.459C112.548 32.5016 112.934 32.1747 112.964 31.7364L113.065 30.2531C113.08 30.0396 113.352 29.9596 113.48 30.1314C113.579 30.2639 113.78 30.2528 113.864 30.1103L115.85 26.717C115.95 26.5454 116.213 26.6167 116.213 26.8155C116.213 27.0007 116.447 27.0816 116.562 26.9359L116.978 26.4063C117.295 26.0017 116.76 25.4836 116.366 25.8147L115.967 26.1502C115.567 26.4862 115.034 25.9387 115.381 25.5482L116.568 24.2106C116.791 23.9587 116.452 23.6034 116.19 23.8155C115.933 24.0235 115.595 23.6838 115.805 23.4283L117.397 21.488C117.672 21.1537 117.451 20.6493 117.02 20.6236L115.533 20.5352C115.109 20.5099 114.699 20.6957 114.438 21.0317L110.166 26.5386ZM74.174 31.5508C74.1434 31.5802 74.1619 31.632 74.2042 31.6354C74.2203 31.6367 74.236 31.63 74.2462 31.6175L74.7778 30.9695L74.174 31.5508ZM82.8414 31.6174C82.8517 31.63 82.8675 31.6367 82.8836 31.6354C82.9263 31.632 82.9449 31.5799 82.9141 31.5503L82.31 30.9695L82.8414 31.6174ZM59.2686 27.8748C58.8474 28.027 58.7026 28.5496 58.9854 28.8968C59.1245 29.0676 59.3405 29.1563 59.5595 29.1326L62.6503 28.7981C62.8456 28.777 63.0036 28.6295 63.0381 28.4361C63.0842 28.1774 62.896 27.9358 62.6338 27.9173L59.902 27.7245C59.7821 27.716 59.6617 27.7328 59.5487 27.7736L59.2686 27.8748ZM94.4543 27.9173C94.1924 27.9358 94.0042 28.177 94.0499 28.4356C94.0842 28.6292 94.2423 28.777 94.4378 28.7981L97.529 29.1326C97.7481 29.1563 97.9642 29.0675 98.1033 28.8965C98.3858 28.5493 98.241 28.0271 97.82 27.8749L97.5402 27.7737C97.427 27.7328 97.3066 27.716 97.1866 27.7245L94.4543 27.9173ZM69.9766 23.8071C69.9305 23.8104 69.8865 23.828 69.8507 23.8573C69.7515 23.9385 69.7404 24.0862 69.8264 24.1813L69.9101 24.2738C70.0217 24.3972 70.0287 24.5828 69.9267 24.7142L69.4665 25.3075C69.2917 25.5328 68.9534 25.539 68.7703 25.3203C68.6128 25.132 68.3329 25.106 68.1434 25.262L67.4661 25.8194C66.4453 26.6595 67.1407 28.313 68.4551 28.171L69.1302 28.0981C69.5446 28.0533 69.923 27.8419 70.1783 27.5124L72.5932 24.3957C72.732 24.2166 72.7215 23.9636 72.5685 23.7965C72.4724 23.6917 72.3337 23.6366 72.192 23.6468L69.9766 23.8071ZM84.5194 23.7968C84.3668 23.9637 84.3565 24.2163 84.495 24.395L86.9105 27.5125C87.1658 27.8419 87.5441 28.0533 87.9584 28.0981L88.6334 28.171C89.9475 28.313 90.6428 26.6598 89.6222 25.8198L88.9442 25.2618C88.7548 25.106 88.4751 25.1321 88.3178 25.3203C88.1351 25.539 87.7971 25.5329 87.6224 25.3077L87.162 24.7142C87.06 24.5828 87.0669 24.3971 87.1784 24.2736L87.2621 24.1808C87.3478 24.0859 87.3368 23.9387 87.2381 23.8575C87.2023 23.8281 87.1582 23.8104 87.1119 23.8071L84.8959 23.6468C84.7541 23.6366 84.6153 23.6918 84.5194 23.7968ZM80.5469 13.0238C80.2943 13.442 79.712 13.5029 79.3783 13.1461L79.2147 12.9713C78.852 12.5835 78.2368 12.5835 77.874 12.9713L77.7105 13.1461C77.3767 13.5029 76.7944 13.442 76.5418 13.0238C76.1399 12.3588 75.1156 12.6882 75.1766 13.4628L75.3742 15.9691C75.3852 16.109 75.4699 16.2324 75.5963 16.2931C75.6388 16.3135 75.6846 16.3261 75.7315 16.3303L76.687 16.4161C76.8083 16.427 76.8701 16.5672 76.7963 16.6641C76.7368 16.7421 76.7639 16.855 76.8523 16.8975L78.0199 17.4586C78.3514 17.6179 78.7373 17.6179 79.0687 17.4585L80.2357 16.8974C80.324 16.8549 80.3512 16.7421 80.2919 16.6641C80.2182 16.5671 80.2801 16.427 80.4014 16.4161L81.3563 16.3303C81.4032 16.3261 81.4489 16.3136 81.4913 16.2933C81.6184 16.2325 81.7035 16.1086 81.7146 15.9681L81.9121 13.4628C81.9731 12.6882 80.9488 12.3588 80.5469 13.0238ZM77.803 10.0542C77.1438 10.1555 76.8305 10.923 77.2306 11.4567L77.5161 11.8376C77.5771 11.919 77.6838 11.9515 77.7799 11.9178L77.9612 11.8543C78.0348 11.8285 78.0577 11.7355 78.0043 11.6785C77.9272 11.5961 78.0122 11.4655 78.1188 11.5027L78.4781 11.628C78.521 11.6429 78.5677 11.6429 78.6106 11.628L78.9694 11.5028C79.0759 11.4657 79.1608 11.5963 79.0836 11.6786C79.0302 11.7355 79.053 11.8285 79.1267 11.8543L79.3088 11.9179C79.4048 11.9515 79.5116 11.919 79.5726 11.8375L79.8579 11.4566C80.2577 10.9228 79.9444 10.1556 79.2853 10.0542L78.7299 9.9687C78.6069 9.94979 78.4818 9.94978 78.3588 9.96869L77.803 10.0542ZM76.1349 9.99468C76.2045 10.0875 76.3296 10.1187 76.4346 10.0694C76.6532 9.9668 76.6066 9.64299 76.3678 9.6063C76.1513 9.57304 76.0036 9.81936 76.1349 9.99468ZM80.7201 9.60636C80.4813 9.64302 80.4346 9.96687 80.6533 10.0695C80.7582 10.1187 80.8833 10.0876 80.9528 9.99495C81.0844 9.81966 80.9368 9.5731 80.7201 9.60636ZM78.2981 8.49403C78.1507 8.65896 78.2039 8.91935 78.4042 9.0132C78.493 9.05479 78.5957 9.05479 78.6845 9.0132C78.8848 8.91935 78.938 8.65896 78.7906 8.49403C78.6593 8.34711 78.4294 8.34711 78.2981 8.49403ZM76.5289 7.17505C76.3608 7.35476 76.5599 7.63576 76.7852 7.53679L77.2055 7.35214C77.405 7.26452 77.4608 7.00769 77.3156 6.8452L77.0983 6.60193C77.0963 6.59969 77.0955 6.59663 77.0962 6.59371C77.0983 6.58452 77.0869 6.57845 77.0805 6.58534L76.5289 7.17505ZM79.9924 6.59378C79.9931 6.59665 79.9924 6.59969 79.9904 6.60189L79.7727 6.84513C79.6274 7.00757 79.6831 7.26461 79.8827 7.35225L80.3242 7.5461C80.5448 7.64296 80.7396 7.36776 80.575 7.19187L80.0074 6.58553C80.0012 6.57884 79.9901 6.5849 79.9924 6.59378Z" fill="var(--fill-0, black)"/>
</g>
</svg>
