<svg preserveAspectRatio="none" width="100%" height="100%" overflow="visible" style="display: block;" viewBox="0 0 46.7648 55.4089" fill="none" xmlns="http://www.w3.org/2000/svg">
<g id="Group 37">
<path id="Union" d="M37.425 50.2631L39.3682 50.4847C39.686 50.5209 39.9112 50.8127 39.8653 51.1292L39.6172 52.8333C39.5952 52.9842 39.513 53.1195 39.3897 53.2093L37.9141 54.2845C37.4708 54.6075 37.6995 55.3089 38.2481 55.3089H39.9043C40.1055 55.3089 40.2919 55.2022 40.3936 55.0286L41.502 53.137L43.9834 48.3402C44.1665 47.9863 43.9372 47.5596 43.541 47.5169L37.3441 46.8485C37.2852 46.8422 37.2367 46.7705 37.1778 46.764L36.6893 46.7093C36.6663 46.7067 36.6441 46.6989 36.6259 46.6847C36.4732 46.5666 36.3837 46.3751 36.4092 46.1693L37.4571 37.6966C37.4656 37.6273 37.4875 37.5599 37.5205 37.4984L41.3145 30.4173C41.4001 30.2575 41.4041 30.0659 41.3252 29.9027L39.9795 27.1165C39.8757 26.9016 39.6486 26.7746 39.4112 26.7991L34.2285 27.3362C34.0432 27.3554 33.8603 27.2817 33.7393 27.14L31.4815 24.4954C31.327 24.3145 31.3021 24.0562 31.419 23.8489L34.1348 19.0345C34.1826 18.9496 34.208 18.8536 34.208 18.7562V13.9427C34.2082 13.6299 34.4616 13.3763 34.7744 13.3763H35.8907C35.9761 13.3763 36.0608 13.3957 36.1377 13.4329L41.2285 15.8987C41.3705 15.9675 41.4774 16.0926 41.5235 16.2435L43.8438 23.8362C43.8879 23.9809 43.8726 24.1377 43.8008 24.2708L42.2715 27.1058C42.1762 27.2825 42.1812 27.4965 42.2852 27.6683L42.3428 27.764C42.5602 28.1224 43.0785 28.1285 43.3047 27.7757L43.7491 27.0814C43.9674 26.7402 44.4634 26.7313 44.6934 27.0648L45.6748 28.4896C45.8466 28.7386 46.1887 28.7992 46.4356 28.6243C46.6576 28.4671 46.729 28.1699 46.6026 27.929L45.4688 25.7679C45.3887 25.6152 45.3827 25.4345 45.4522 25.2767L45.9024 24.2532C45.9566 24.1301 45.9652 23.9915 45.9268 23.8626L43.209 14.7552C43.168 14.6181 43.0765 14.5016 42.9532 14.429L25.9336 4.42023L20.6963 2.00324C20.5356 1.92909 20.4182 1.7844 20.3799 1.61164L20.2198 0.887026C20.1844 0.727627 20.0817 0.591436 19.9385 0.513003L19.3125 0.170229C18.9467 -0.0298026 18.4972 0.220705 18.4746 0.637026L18.3819 2.3421C18.3658 2.63451 18.1296 2.86648 17.8369 2.87726L15.003 2.98078C14.8731 2.98552 14.7455 2.94562 14.6416 2.86749L13.0166 1.64289C12.9867 1.62034 12.9585 1.59471 12.9336 1.56671L12.043 0.564761C11.8858 0.387976 11.6059 0.582376 11.7168 0.791323L13.1582 3.50519C13.193 3.57063 13.2398 3.62883 13.2969 3.67609L16.5918 6.40558C16.6485 6.45251 16.6958 6.50963 16.7305 6.57453L19.083 10.9847C19.1998 11.2037 19.16 11.4733 18.9854 11.6497L18.5703 12.0696C18.4364 12.205 18.3837 12.401 18.4317 12.5853C18.4871 12.7975 18.4081 13.0222 18.2325 13.1536L16.8828 14.1624C16.8446 14.191 16.8102 14.2248 16.7803 14.262L12.2422 19.9222C12.1992 19.9759 12.1473 20.022 12.0879 20.0569L4.61234 24.4495C4.53333 24.4958 4.44405 24.5223 4.35257 24.5267L0.964875 24.6878C0.924075 24.6898 0.883913 24.6987 0.845734 24.7132C0.473686 24.8551 0.531302 25.3986 0.924836 25.4593L1.12112 25.4896C1.4216 25.5359 1.58604 25.8652 1.44241 26.1331L1.03519 26.8948C0.952547 27.049 0.800311 27.1536 0.626984 27.1771L0.535187 27.1898C0.114161 27.2467 -0.0500056 27.7685 0.262726 28.056C0.366277 28.1511 0.505437 28.1989 0.645539 28.1868L2.00394 28.0696C2.15561 28.0565 2.29579 27.983 2.39261 27.8655L3.16019 26.9329C3.24909 26.8249 3.3754 26.7536 3.5137 26.7327L4.6973 26.554C4.76677 26.5435 4.83362 26.5196 4.89456 26.4847L20.0088 17.8021C20.2559 17.6602 20.5699 17.7236 20.7422 17.9505L23.0176 20.9505C23.0608 21.0074 23.0931 21.0722 23.1123 21.1409L24.4082 25.7855C24.4982 26.1085 24.2894 26.4381 23.959 26.4954L17.1182 27.679C17.0493 27.691 16.9828 27.7162 16.9229 27.7523L11.085 31.2611C10.9146 31.3635 10.8106 31.5475 10.8106 31.7464V49.6878C10.8106 49.9515 10.628 50.18 10.3711 50.2396L7.25491 50.9632C7.04483 51.0119 6.8252 50.9366 6.68851 50.7698L5.89554 49.8021C5.46082 49.2712 4.63299 49.8249 4.95804 50.429L5.93655 52.2474C6.02842 52.4178 6.20148 52.5291 6.39456 52.5433L12.9805 53.0247C13.3089 53.0487 13.5889 52.7885 13.5889 52.4593V42.7747C13.589 42.6792 13.6132 42.5849 13.6592 42.5013L14.9034 40.2415C14.9495 40.1578 14.9737 40.0637 14.9737 39.9681V36.7962C14.9737 36.462 15.2621 36.2001 15.5948 36.2318L21.2022 36.7659C21.5107 36.7953 21.738 37.0674 21.7129 37.3763L20.835 48.179C20.8097 48.49 21.0407 48.7628 21.3516 48.7894L34.1775 49.8856C34.2371 49.8907 34.2874 49.9636 34.3467 49.971L34.6782 50.0097C34.7022 50.0125 34.7254 50.0212 34.7441 50.0366C34.8466 50.1212 34.9194 50.2408 34.9424 50.3792L35.4131 53.2171C35.45 53.4399 35.7701 53.4406 35.8076 53.2181L36.2354 50.6683C36.2673 50.4782 36.3918 50.327 36.5552 50.2507C36.5764 50.2408 36.6001 50.2381 36.6233 50.2408L37.3457 50.3265C37.3845 50.3311 37.4201 50.3029 37.4248 50.2642C37.4248 50.2641 37.4251 50.2632 37.425 50.2631ZM37.425 50.2631C37.4246 50.2631 37.4248 50.2629 37.425 50.2631ZM36.1573 29.2747C35.9859 29.2874 35.8298 29.3773 35.7325 29.5189L32.166 34.7044C32.1348 34.7498 32.0967 34.79 32.0537 34.8245L29.6289 36.7728C29.4953 36.8803 29.4181 37.0427 29.418 37.2142V40.9202C29.4179 41.0219 29.3898 41.1219 29.3379 41.2093L27.0811 45.0091C26.8689 45.3665 27.101 45.8232 27.5147 45.8626L33.3028 46.4102C33.3043 46.4103 33.3057 46.4091 33.3057 46.4075C33.31 46.3687 33.345 46.3407 33.3838 46.345L34.3074 46.4468C34.3294 46.4492 34.3518 46.4467 34.3721 46.4378C34.5697 46.3504 34.71 46.1543 34.71 45.9212V37.7405C34.71 37.6431 34.7354 37.5471 34.7832 37.4622L38.7227 30.4681C38.8281 30.2808 38.8188 30.0503 38.6983 29.8724L38.376 29.3958C38.2623 29.2281 38.0674 29.134 37.8653 29.1487L36.1573 29.2747Z" stroke="var(--stroke-0, #BABABA)" stroke-width="0.2" stroke-linecap="round"/>
<path id="Vector 186" d="M18.4078 12.4129L20.1793 12.2518C20.387 12.2329 20.5676 12.1015 20.6493 11.9097L21.0189 11.0427C21.0528 10.9631 21.1045 10.8923 21.1701 10.8357L21.6385 10.4317" stroke="var(--stroke-0, #BABABA)" stroke-width="0.2" stroke-linecap="round"/>
<path id="Vector 185" d="M18.983 12.8673L22.0426 12.6125C22.4508 12.5785 22.6892 12.1359 22.4929 11.7763L22.403 11.6116C22.2729 11.3733 22.3301 11.0762 22.5393 10.9033L23.2867 10.2855C23.4865 10.1203 23.5452 9.83868 23.4279 9.60748C23.2784 9.31287 23.4182 8.95373 23.7275 8.83773L23.9656 8.74843C24.092 8.70104 24.1974 8.61008 24.2626 8.49194L24.6773 7.74161C24.7705 7.57296 24.7716 7.36851 24.6803 7.19886L23.1582 4.37215C23.0903 4.24609 23.0727 4.099 23.1088 3.96047L23.1476 3.81162" stroke="var(--stroke-0, #BABABA)" stroke-width="0.2" stroke-linecap="round"/>
<path id="Vector 184" d="M18.023 16.6894L19.1216 16.1632C19.2909 16.0821 19.4894 16.0901 19.6517 16.1846L23.0164 18.1449C23.1948 18.2489 23.4157 18.2475 23.5929 18.1413L26.8675 16.179C26.994 16.1032 27.145 16.0797 27.2885 16.1134L30.0779 16.769C30.2495 16.8094 30.4302 16.7675 30.5666 16.6558L34.4161 13.504" stroke="var(--stroke-0, #BABABA)" stroke-width="0.2" stroke-linecap="round"/>
<path id="Vector 183" d="M21.6177 37.0154L25.7351 29.227C25.7535 29.1923 25.7754 29.1595 25.8006 29.1293L29.7848 24.3429" stroke="var(--stroke-0, #BABABA)" stroke-width="0.2" stroke-linecap="round"/>
</g>
</svg>
