<svg width="138" height="84" viewBox="0 0 138 84" fill="none" xmlns="http://www.w3.org/2000/svg">
<rect width="138" height="84" fill="#1B1B1B"/>
<g id="Desktop - 46">
<rect width="1440" height="1024" transform="translate(-651.187 -854.807)" fill="#242424"/>
<g id="Frame 62">
<g id="Frame 72">
<g id="Frame 71">
<g id="Group">
<path id="Vector" d="M17.5753 41.7944V50.5213C17.5753 50.6166 17.5088 50.6834 17.4137 50.6834H15.3479C15.2592 50.6834 15.2006 50.6166 15.2006 50.5213V43.9984H9.03475C8.93177 43.9984 8.86523 43.9396 8.86523 43.8442V41.7944C8.86523 41.6991 8.93177 41.6323 9.03475 41.6323H17.4121C17.5072 41.6323 17.5737 41.6991 17.5737 41.7944H17.5753ZM8.94128 50.5213V46.4518C8.94128 46.4216 8.95554 46.393 8.97138 46.3787L9.89023 45.4507C9.92667 45.4205 9.98528 45.3999 10.0439 45.3999H11.2131C11.3018 45.3999 11.3525 45.4587 11.3525 45.562V50.5229C11.3525 50.6182 11.3018 50.6849 11.2131 50.6849H9.10445C9.0094 50.6849 8.94286 50.6182 8.94286 50.5229L8.94128 50.5213Z" fill="white"/>
<path id="Vector_2" d="M19.5393 50.5214V48.4795C19.5393 48.3842 19.6059 48.3174 19.693 48.3174H23.5506C24.9764 48.3174 25.9396 47.4181 25.9396 46.069V43.9985H22.3751C22.28 43.9985 22.2214 44.0652 22.2214 44.1526V45.2586H22.9423C23.0595 45.2586 23.1339 45.3317 23.1339 45.4509V46.9318C23.1339 47.0574 23.0611 47.1304 22.9423 47.1304H19.9734C19.8784 47.1304 19.8118 47.0637 19.8118 46.9604V44.8232C19.8118 44.7866 19.8261 44.7501 19.8419 44.7342L20.5691 43.9969H19.4966C19.4015 43.9969 19.335 43.9381 19.335 43.8428V41.7929C19.335 41.6976 19.4015 41.6309 19.4966 41.6309H28.1021C28.2193 41.6309 28.3001 41.704 28.3001 41.8295V45.9355C28.3001 48.7735 26.3452 50.6819 23.4207 50.6819H19.6946C19.6059 50.6819 19.5409 50.6152 19.5409 50.5198L19.5393 50.5214Z" fill="white"/>
<path id="Vector_3" d="M31.7305 47.4036H30.1352C30.0402 47.4036 29.9736 47.3369 29.9736 47.2415V41.7944C29.9736 41.6911 30.0402 41.6323 30.1352 41.6323H32.4133C32.5021 41.6323 32.5607 41.6911 32.5607 41.7944V46.6298C32.5607 46.6743 32.5385 46.7251 32.51 46.7553L31.8557 47.3448C31.8256 47.3814 31.7749 47.4036 31.7305 47.4036Z" fill="white"/>
<path id="Vector_4" d="M42.7237 43.3721V50.5227C42.7237 50.618 42.6651 50.6848 42.5764 50.6848H40.5185C40.4298 50.6848 40.3712 50.618 40.3712 50.5227V44.1762L40.1874 43.9998H36.6387V50.5227C36.6387 50.618 36.5801 50.6848 36.4914 50.6848H34.4335C34.3448 50.6848 34.2861 50.618 34.2861 50.5227V41.7958C34.2861 41.7005 34.3527 41.6337 34.4477 41.6337H41.0841C41.1569 41.6258 41.2377 41.6703 41.29 41.7227L42.635 43.1163C42.6857 43.1671 42.7237 43.2704 42.7237 43.3737V43.3721Z" fill="white"/>
<path id="Vector_5" d="M56.6787 41.7945V50.5214C56.6787 50.6167 56.6201 50.6835 56.525 50.6835H54.4528C54.372 50.6835 54.3134 50.6167 54.3134 50.5214V43.9985H51.1529C51.0578 43.9985 50.9992 44.0652 50.9992 44.1526V50.5214C50.9992 50.6167 50.9406 50.6835 50.8456 50.6835H47.2446C47.1495 50.6835 47.083 50.6167 47.083 50.5214V48.4795C47.083 48.3842 47.1495 48.3174 47.2446 48.3174H48.5817V44.8232C48.5817 44.793 48.5959 44.7565 48.626 44.7342L49.339 43.9969H47.7658C47.6771 43.9969 47.6185 43.9381 47.6185 43.8428V41.7929C47.6185 41.6976 47.6771 41.6309 47.7658 41.6309H56.525C56.6201 41.6309 56.6787 41.6976 56.6787 41.7929V41.7945Z" fill="white"/>
<path id="Vector_6" d="M68.2171 41.7801V46.1737C68.2171 48.9974 66.2558 50.9503 63.3741 50.9503C60.4924 50.9503 58.5391 48.9974 58.5391 46.1737V41.7801C58.5391 41.6911 58.5977 41.6323 58.7007 41.6323H60.8093C60.8901 41.6323 60.9487 41.6911 60.9487 41.7801V46.018C60.9487 47.6102 61.9404 48.7162 63.3741 48.7162C64.8079 48.7162 65.8439 47.6102 65.8439 46.018V43.9618H65.1675C65.1089 43.9618 65.036 43.9984 64.998 44.0572L63.7195 46.0689C63.6609 46.1419 63.6023 46.1944 63.5436 46.1944H61.3241C61.1911 46.1944 61.1324 46.0625 61.2069 45.937L63.794 41.7436C63.8383 41.6768 63.9112 41.6323 63.992 41.6323H68.0555C68.1506 41.6323 68.2171 41.6911 68.2171 41.7801Z" fill="white"/>
<path id="Vector_7" d="M71.6427 47.4036H70.0473C69.9523 47.4036 69.8857 47.3369 69.8857 47.2415V41.7944C69.8857 41.6911 69.9523 41.6323 70.0473 41.6323H72.3255C72.4142 41.6323 72.4728 41.6911 72.4728 41.7944V46.6298C72.4728 46.6743 72.4506 46.7251 72.4221 46.7553L71.7678 47.3448C71.7377 47.3814 71.687 47.4036 71.6427 47.4036Z" fill="white"/>
<path id="Vector_8" d="M74.1629 46.3788C74.1629 45.694 74.4196 44.963 74.8394 44.41C74.9566 44.24 75.1404 44.078 75.2957 43.9826L75.2814 43.9524C75.0469 43.9826 74.7602 43.9969 74.5384 43.9969H73.9507C73.8556 43.9969 73.7891 43.9381 73.7891 43.8491V41.7707C73.7891 41.6897 73.8556 41.6309 73.9507 41.6309H78.9331C81.7482 41.6309 83.6873 43.4884 83.6873 46.2152C83.6873 48.9419 81.7466 50.9981 78.9331 50.9981C76.1195 50.9981 74.1629 49.1183 74.1629 46.3772V46.3788ZM81.3205 46.2899C81.3205 44.9487 80.24 43.8571 78.9109 43.8571C77.5817 43.8571 76.4791 44.9551 76.4791 46.2899C76.4791 47.6246 77.5595 48.7369 78.9109 48.7369C80.2622 48.7369 81.3205 47.6532 81.3205 46.2899Z" fill="white"/>
<path id="Vector_9" d="M90.3234 50.5213V44.1747L90.1396 43.9984H84.6059C84.5109 43.9984 84.4443 43.9396 84.4443 43.8442V41.7944C84.4443 41.6991 84.5109 41.6323 84.6059 41.6323H91.0363C91.1092 41.6323 91.19 41.6689 91.2423 41.7213L92.5873 43.1149C92.6395 43.1657 92.676 43.269 92.676 43.3723V50.5229C92.676 50.6182 92.6174 50.6849 92.5287 50.6849H90.4707C90.382 50.6849 90.3234 50.6182 90.3234 50.5229V50.5213Z" fill="white"/>
<path id="Vector_10" d="M103.19 48.4794V50.5213C103.19 50.6166 103.132 50.6834 103.043 50.6834H94.187C94.084 50.6834 94.0254 50.6166 94.0254 50.5213V48.4794C94.0254 48.3841 94.084 48.3173 94.187 48.3173H99.6542V43.9984H94.5022C94.4072 43.9984 94.3407 43.9396 94.3407 43.8442V41.7944C94.3407 41.6991 94.4072 41.6323 94.5022 41.6323H101.88C101.961 41.6323 102.019 41.6991 102.019 41.7944V48.133C102.019 48.2442 102.1 48.3173 102.211 48.3173H103.041C103.13 48.3173 103.189 48.3761 103.189 48.4794H103.19Z" fill="white"/>
<path id="Vector_11" d="M105.844 47.4036H104.249C104.153 47.4036 104.087 47.3369 104.087 47.2415V41.7944C104.087 41.6911 104.153 41.6323 104.249 41.6323H106.527C106.615 41.6323 106.674 41.6911 106.674 41.7944V46.6298C106.674 46.6743 106.652 46.7251 106.623 46.7553L105.969 47.3448C105.939 47.3814 105.888 47.4036 105.844 47.4036Z" fill="white"/>
<path id="Vector_12" d="M112.339 41.7944V50.5213C112.339 50.6166 112.281 50.6834 112.192 50.6834H108.187C108.092 50.6834 108.025 50.6166 108.025 50.5213V48.4794C108.025 48.3841 108.092 48.3173 108.187 48.3173H109.789C109.869 48.3173 109.928 48.2585 109.928 48.1695V43.9984H108.429C108.334 43.9984 108.276 43.9396 108.276 43.8442V41.7944C108.276 41.6991 108.334 41.6323 108.429 41.6323H112.192C112.281 41.6323 112.339 41.6991 112.339 41.7944Z" fill="white"/>
<path id="Vector_13" d="M117.285 41.7944V50.5213C117.285 50.6166 117.219 50.6834 117.124 50.6834H115.059C114.964 50.6834 114.906 50.6166 114.906 50.5213V43.9984H113.987C113.884 43.9984 113.825 43.9396 113.825 43.8442V41.7944C113.825 41.6991 113.884 41.6323 113.987 41.6323H117.125C117.22 41.6323 117.287 41.6991 117.287 41.7944H117.285Z" fill="white"/>
<path id="Vector_14" d="M119.212 50.5292V45.0964C119.212 45.0074 119.242 44.9264 119.307 44.8612L120.24 43.9253C120.306 43.8585 120.321 43.7553 120.254 43.6742L118.865 41.9501C118.776 41.8389 118.865 41.6339 119.049 41.6339H121.304C121.43 41.6339 121.555 41.6927 121.62 41.788L125.257 46.2691L125.485 45.9958V41.7944C125.485 41.6911 125.544 41.6323 125.633 41.6323H127.705C127.8 41.6323 127.858 41.6911 127.858 41.7944V46.4089C127.858 46.5042 127.822 46.5932 127.77 46.6441L126.536 47.8899L128.535 50.3512C128.616 50.4625 128.571 50.6834 128.343 50.6834H126.079C125.991 50.6834 125.903 50.6325 125.851 50.5721L121.729 45.5079L121.582 45.67V50.5276C121.582 50.623 121.523 50.6897 121.434 50.6897H119.362C119.273 50.6897 119.209 50.623 119.209 50.5276L119.212 50.5292Z" fill="white"/>
<path id="Vector_15" d="M0.00158457 61.6584V56.2541C0.00158457 56.162 0.074458 56.0825 0.166343 56.0825H1.99771C2.09593 56.0825 2.16881 56.162 2.16881 56.2541V61.6473C2.16881 62.9868 2.69477 63.6431 3.7974 63.6431C4.90002 63.6431 5.41331 62.9852 5.41331 61.6473V56.2541C5.41331 56.162 5.48618 56.0825 5.58441 56.0825H7.373C7.46489 56.0825 7.53776 56.162 7.53776 56.2541V61.6584C7.53776 64.0228 6.34959 65.4164 3.77839 65.4164C1.20718 65.4164 0 64.0292 0 61.6584H0.00158457Z" fill="white"/>
<path id="Vector_16" d="M9.24902 65.105V56.2541C9.24902 56.162 9.33457 56.0825 9.42646 56.0825H11.3735C11.4289 56.0825 11.4844 56.1191 11.5145 56.162L15.0663 61.536C15.1392 61.652 15.3119 61.6043 15.3119 61.4629V56.2541C15.3119 56.162 15.3911 56.0825 15.4893 56.0825H17.2034C17.3017 56.0825 17.3809 56.162 17.3809 56.2541V65.105C17.3809 65.2035 17.3017 65.2766 17.2034 65.2766H15.3847C15.3293 65.2766 15.2802 65.2464 15.2437 65.2035L11.5572 59.8056C11.4844 59.6943 11.318 59.7436 11.318 59.8787V65.105C11.318 65.2035 11.2388 65.2766 11.1469 65.2766H9.42646C9.33457 65.2766 9.24902 65.2035 9.24902 65.105Z" fill="white"/>
<path id="Vector_17" d="M19.3105 65.105V56.2541C19.3105 56.162 19.3834 56.0825 19.4753 56.0825H21.3114C21.4033 56.0825 21.4825 56.162 21.4825 56.2541V65.105C21.4825 65.2035 21.4033 65.2766 21.3114 65.2766H19.4753C19.3834 65.2766 19.3105 65.2035 19.3105 65.105Z" fill="white"/>
<path id="Vector_18" d="M25.6067 65.2082L22.4905 56.3463C22.4414 56.2112 22.527 56.0825 22.668 56.0825H24.493C24.5595 56.0825 24.615 56.1318 24.6403 56.1985L26.741 62.4751L28.9019 56.1985C28.9257 56.1302 28.9811 56.0825 29.0492 56.0825H30.7032C30.8378 56.0825 30.936 56.2112 30.8869 56.3463L27.7708 65.2082C27.747 65.2638 27.6915 65.3067 27.6234 65.3067H25.7493C25.6827 65.3067 25.6273 65.2638 25.6083 65.2082H25.6067Z" fill="white"/>
<path id="Vector_19" d="M31.834 65.105V56.2541C31.834 56.162 31.9132 56.0825 32.0051 56.0825H38.098C38.1899 56.0825 38.2691 56.162 38.2691 56.2541V57.7399C38.2691 57.832 38.1899 57.9051 38.098 57.9051H34.1739C34.082 57.9051 34.0091 57.9846 34.0091 58.0704V59.6244C34.0091 59.7166 34.082 59.7897 34.1739 59.7897H37.26C37.3582 59.7897 37.4311 59.8691 37.4311 59.9613V61.3374C37.4311 61.4296 37.3582 61.509 37.26 61.509H34.1739C34.082 61.509 34.0091 61.5821 34.0091 61.6695V63.3459C34.0091 63.4317 34.082 63.5048 34.1739 63.5048H38.277C38.3689 63.5048 38.4481 63.5843 38.4481 63.6764V65.1018C38.4481 65.2003 38.3689 65.2734 38.277 65.2734H32.0067C31.9148 65.2734 31.8356 65.2003 31.8356 65.1018L31.834 65.105Z" fill="white"/>
<path id="Vector_20" d="M39.8818 65.105V56.2541C39.8818 56.162 39.961 56.0825 40.0529 56.0825H43.3228C45.6247 56.0825 47.0521 56.9295 47.0521 59.073C47.0521 60.4174 46.4881 61.2595 45.4045 61.6949C45.2936 61.7378 45.2508 61.8491 45.2999 61.946L46.9839 64.9619C47.0631 65.1097 46.9649 65.275 46.7938 65.275H44.926C44.8642 65.275 44.8104 65.2384 44.785 65.1955L43.0883 62.143C43.0645 62.1001 43.0091 62.0699 42.9537 62.0699C42.8618 62.0763 42.7635 62.0763 42.659 62.0763H42.1758C42.0903 62.0763 42.0174 62.1557 42.0174 62.2352V65.1034C42.0174 65.2019 41.9382 65.275 41.8463 65.275H40.0529C39.961 65.275 39.8818 65.2019 39.8818 65.1034V65.105ZM43.2499 60.3999C44.3763 60.3999 44.9339 60.0074 44.9339 59.1287C44.9339 58.2499 44.3763 57.8638 43.2499 57.8638H42.179C42.0934 57.8638 42.0205 57.9433 42.0205 58.0291V60.2394C42.0205 60.3188 42.0934 60.3983 42.179 60.3983H43.2499V60.3999Z" fill="white"/>
<path id="Vector_21" d="M48.6029 62.704C49.479 63.2507 50.8937 63.7178 51.708 63.7178C53.0435 63.7178 53.625 63.435 53.6313 62.7597C53.6376 62.213 53.1228 61.8635 51.8316 61.5504C50.2648 61.1643 48.397 60.7527 48.4033 58.7442C48.4097 56.9391 50.1602 55.9189 52.2055 55.9189C53.0879 55.9189 54.1715 56.1271 54.9304 56.4465C54.9605 56.4528 54.9795 56.483 54.9795 56.5085V58.2643C54.9795 58.3374 54.9129 58.3867 54.8385 58.3565C54.0543 57.9576 53.0071 57.6986 52.1865 57.6986C51.3658 57.6986 50.5452 58.0053 50.5389 58.5519C50.5325 59.2638 51.285 59.5038 52.3085 59.7501C53.937 60.1362 55.7684 60.7702 55.7621 62.7406C55.7557 64.2152 54.3109 65.4483 51.6098 65.4483C50.6244 65.4483 49.338 65.1527 48.4873 64.7046C48.4635 64.6919 48.4509 64.6681 48.4509 64.6426V62.7883C48.4509 62.7024 48.5301 62.6532 48.6045 62.7025L48.6029 62.704Z" fill="white"/>
<path id="Vector_22" d="M57.1387 65.105V56.2541C57.1387 56.162 57.2115 56.0825 57.3034 56.0825H59.1396C59.2314 56.0825 59.3107 56.162 59.3107 56.2541V65.105C59.3107 65.2035 59.2314 65.2766 59.1396 65.2766H57.3034C57.2115 65.2766 57.1387 65.2035 57.1387 65.105Z" fill="white"/>
<path id="Vector_23" d="M63.2742 65.1052V58.0738C63.2742 57.988 63.2014 57.9085 63.1158 57.9085H60.7395C60.6412 57.9085 60.5684 57.8354 60.5684 57.7433V56.2576C60.5684 56.1654 60.6412 56.0859 60.7395 56.0859H67.9952C68.0871 56.0859 68.1663 56.1654 68.1663 56.2576V57.7433C68.1663 57.8354 68.0871 57.9085 67.9952 57.9085H65.6125C65.527 57.9085 65.4541 57.988 65.4541 58.0738V65.1052C65.4541 65.2037 65.3749 65.2768 65.283 65.2768H63.4469C63.355 65.2768 63.2758 65.2037 63.2758 65.1052H63.2742Z" fill="white"/>
<path id="Vector_24" d="M71.7192 65.105V61.482C71.7192 61.4089 71.7065 61.3533 71.6638 61.2786L68.6759 56.4146C68.5904 56.2668 68.6759 56.0825 68.8597 56.0825H70.6483C70.7037 56.0825 70.7702 56.1254 70.7956 56.1747L72.7125 59.3193C72.7743 59.4417 72.8662 59.4417 72.9264 59.3193L74.8496 56.1747C74.8797 56.1254 74.9479 56.0825 74.997 56.0825H76.7729C76.9567 56.0825 77.0422 56.2668 76.9503 56.4146L73.9498 61.285C73.907 61.358 73.8943 61.4137 73.8943 61.4931V65.105C73.8943 65.2035 73.8215 65.2766 73.7233 65.2766H71.8919C71.8 65.2766 71.7208 65.2035 71.7208 65.105H71.7192Z" fill="white"/>
<path id="Vector_25" d="M79.7617 60.6527C79.7617 58.0181 81.8862 55.8872 84.5192 55.8872C87.1521 55.8872 89.2766 58.0117 89.2766 60.6527C89.2766 63.2936 87.1521 65.4308 84.5192 65.4308C81.8862 65.4308 79.7617 63.2936 79.7617 60.6527ZM87.1458 60.6956C87.1458 59.2273 85.9703 58.0483 84.5001 58.0483C83.03 58.0483 81.8481 59.2337 81.8481 60.6956C81.8481 62.1575 83.03 63.3492 84.5001 63.3492C85.9703 63.3492 87.1458 62.1702 87.1458 60.6956Z" fill="white"/>
<path id="Vector_26" d="M90.5586 65.105V56.2541C90.5586 56.162 90.6378 56.0825 90.7297 56.0825H96.5961C96.688 56.0825 96.7672 56.162 96.7672 56.2541V57.7399C96.7672 57.832 96.688 57.9051 96.5961 57.9051H92.9033C92.8114 57.9051 92.7385 57.9846 92.7385 58.0704V59.8691C92.7385 59.955 92.8114 60.0344 92.9033 60.0344H95.5061C95.598 60.0344 95.6709 60.1075 95.6709 60.1997V61.5821C95.6709 61.6743 95.598 61.7474 95.5061 61.7474H92.9033C92.8114 61.7474 92.7385 61.8205 92.7385 61.9126V65.1002C92.7385 65.1987 92.6593 65.2718 92.5674 65.2718H90.7297C90.6378 65.2718 90.5586 65.1987 90.5586 65.1002V65.105Z" fill="white"/>
<path id="Vector_27" d="M100.339 65.105V56.2541C100.339 56.162 100.418 56.0825 100.51 56.0825H102.348C102.44 56.0825 102.519 56.162 102.519 56.2541V59.4608C102.519 59.5466 102.592 59.626 102.684 59.626H105.806C105.892 59.626 105.971 59.5466 105.971 59.4608V56.2541C105.971 56.162 106.044 56.0825 106.136 56.0825H107.978C108.064 56.0825 108.143 56.162 108.143 56.2541V65.105C108.143 65.2035 108.064 65.2766 107.978 65.2766H106.136C106.044 65.2766 105.971 65.2035 105.971 65.105V61.6107C105.971 61.5249 105.892 61.4518 105.806 61.4518H102.684C102.592 61.4518 102.519 61.5249 102.519 61.6107V65.105C102.519 65.2035 102.44 65.2766 102.348 65.2766H100.51C100.418 65.2766 100.339 65.2035 100.339 65.105Z" fill="white"/>
<path id="Vector_28" d="M109.262 65.0191L112.482 56.1254C112.501 56.0698 112.555 56.0205 112.63 56.0205H114.461C114.523 56.0205 114.577 56.0698 114.602 56.1254L117.823 65.0191C117.866 65.1542 117.78 65.2765 117.639 65.2765H115.827C115.76 65.2765 115.698 65.2273 115.673 65.1605L115.122 63.6367C115.103 63.5683 115.049 63.5254 114.981 63.5254H111.918C111.846 63.5254 111.79 63.5683 111.771 63.624L111.202 65.1716C111.177 65.2336 111.117 65.2765 111.049 65.2765H109.437C109.296 65.2765 109.211 65.1542 109.26 65.0191H109.262ZM114.258 61.7584C114.393 61.7584 114.479 61.6361 114.429 61.501L113.468 58.8299L112.489 61.501C112.446 61.6361 112.531 61.7584 112.666 61.7584H114.258Z" fill="white"/>
<path id="Vector_29" d="M119.004 65.105V56.2541C119.004 56.162 119.077 56.0825 119.169 56.0825H121.005C121.097 56.0825 121.176 56.162 121.176 56.2541V65.105C121.176 65.2035 121.097 65.2766 121.005 65.2766H119.169C119.077 65.2766 119.004 65.2035 119.004 65.105Z" fill="white"/>
<path id="Vector_30" d="M123.107 65.105V56.2541C123.107 56.162 123.187 56.0825 123.279 56.0825H129.145C129.237 56.0825 129.316 56.162 129.316 56.2541V57.7399C129.316 57.832 129.237 57.9051 129.145 57.9051H125.452C125.36 57.9051 125.287 57.9846 125.287 58.0704V59.8691C125.287 59.955 125.36 60.0344 125.452 60.0344H128.055C128.147 60.0344 128.22 60.1075 128.22 60.1997V61.5821C128.22 61.6743 128.147 61.7474 128.055 61.7474H125.452C125.36 61.7474 125.287 61.8205 125.287 61.9126V65.1002C125.287 65.1987 125.208 65.2718 125.116 65.2718H123.28C123.188 65.2718 123.109 65.1987 123.109 65.1002L123.107 65.105Z" fill="white"/>
<path id="Vector_31" d="M129.055 65.0191L132.275 56.1254C132.294 56.0698 132.348 56.0205 132.423 56.0205H134.254C134.316 56.0205 134.37 56.0698 134.395 56.1254L137.616 65.0191C137.659 65.1542 137.573 65.2765 137.432 65.2765H135.62C135.553 65.2765 135.491 65.2273 135.466 65.1605L134.915 63.6367C134.896 63.5683 134.842 63.5254 134.774 63.5254H131.711C131.638 63.5254 131.583 63.5683 131.564 63.624L130.995 65.1716C130.97 65.2336 130.91 65.2765 130.842 65.2765H129.23C129.089 65.2765 129.004 65.1542 129.053 65.0191H129.055ZM134.051 61.7584C134.186 61.7584 134.271 61.6361 134.222 61.501L133.261 58.8299L132.282 61.501C132.239 61.6361 132.324 61.7584 132.459 61.7584H134.051Z" fill="white"/>
<path id="Vector_32" d="M32.6768 70.3584H34.4685V77.8458H36.0638V79.8686H32.6768V70.3584Z" fill="white"/>
<path id="Vector_33" d="M45.997 77.8316V79.8703H35.4619V77.8475H37.7495C37.6687 77.525 37.6117 77.204 37.5769 76.8814C37.542 76.5588 37.5246 76.1473 37.5246 75.6436C37.5246 74.8888 37.6355 74.2929 37.8557 73.8543C38.0759 73.4158 38.4434 73.098 38.9551 72.8962C39.4668 72.6944 40.1639 72.5943 41.0479 72.5943C41.7006 72.5943 42.282 72.634 42.7937 72.715C43.3054 72.796 43.8472 72.9311 44.4191 73.1218V77.8316H46.0002H45.997ZM42.6258 74.6314H40.0673C39.817 74.6314 39.6459 74.679 39.5556 74.7744C39.4653 74.8697 39.4209 75.054 39.4209 75.3258V77.8475H41.9794C42.2202 77.8475 42.3882 77.7999 42.4832 77.7045C42.5783 77.6092 42.6258 77.436 42.6258 77.1833V74.6314ZM40.6012 70.8273C40.4364 70.7065 40.2922 70.5635 40.1718 70.3966C40.0514 70.2298 39.9912 70.082 39.9912 69.9517C39.9912 69.7499 40.1164 69.5274 40.3683 69.2796C40.6186 69.0333 40.8451 68.9046 41.0463 68.895C41.2475 68.9046 41.4693 69.0333 41.7164 69.2796C41.962 69.5259 42.0856 69.7499 42.0856 69.9517C42.0856 70.0725 42.0254 70.2187 41.905 70.3903C41.7846 70.5619 41.642 70.7081 41.4756 70.8288C41.3093 70.9496 41.1667 71.01 41.0463 71.01C40.9164 71.01 40.7675 70.9496 40.6027 70.8288L40.6012 70.8273Z" fill="white"/>
<path id="Vector_34" d="M51.1282 77.8456V79.8684H45.4092V77.8456H47.7427V72.7734H49.5345V77.8456H51.1298H51.1282ZM46.9221 83.0083C46.7574 82.8875 46.6132 82.7445 46.4928 82.5777C46.3724 82.4108 46.3122 82.263 46.3122 82.1327C46.3122 81.9309 46.4373 81.7069 46.6892 81.4606C46.9395 81.2143 47.1661 81.0856 47.3673 81.076C47.5685 81.0856 47.7903 81.2143 48.0374 81.4606C48.283 81.7069 48.4065 81.9309 48.4065 82.1327C48.4065 82.2535 48.3463 82.3997 48.2259 82.5713C48.1055 82.7429 47.963 82.8891 47.7966 83.0099C47.6303 83.1306 47.4877 83.191 47.3673 83.191C47.2374 83.191 47.0885 83.1306 46.9237 83.0099L46.9221 83.0083ZM49.4363 83.0083C49.2715 82.8875 49.1274 82.7445 49.007 82.5777C48.8866 82.4108 48.8264 82.263 48.8264 82.1327C48.8264 81.9309 48.9515 81.7069 49.2034 81.4606C49.4537 81.2143 49.6803 81.0856 49.8815 81.076C50.0827 81.0856 50.3044 81.2143 50.5516 81.4606C50.7971 81.7069 50.9207 81.9309 50.9207 82.1327C50.9207 82.2535 50.8605 82.3997 50.7401 82.5713C50.6197 82.7429 50.4771 82.8891 50.3108 83.0099C50.146 83.1306 50.0019 83.191 49.8815 83.191C49.7515 83.191 49.6026 83.1306 49.4379 83.0099L49.4363 83.0083Z" fill="white"/>
<path id="Vector_35" d="M59.4509 75.3561V77.3789H57.8556C57.7352 77.3789 57.6449 77.3741 57.5847 77.3646C57.1031 78.2004 56.471 78.8265 55.6884 79.2444C54.9058 79.6623 54.0028 79.8705 52.9794 79.8705H50.5254V77.8476H53.2344C54.017 77.8476 54.6618 77.6633 55.1688 77.2963C55.6757 76.9292 56.0639 76.4493 56.3348 75.855C56.0734 75.4117 55.7248 75.0955 55.2892 74.9032C54.8535 74.7125 54.2626 74.6156 53.5212 74.6156C52.9287 74.6156 52.3916 74.6458 51.91 74.7062L51.6391 72.7135C52.3916 72.6325 53.0332 72.5928 53.5655 72.5928C54.7996 72.5928 55.7597 72.8073 56.4472 73.2347C57.1348 73.6622 57.6734 74.3693 58.0647 75.3561H59.4493H59.4509Z" fill="white"/>
<path id="Vector_36" d="M72.6654 77.8456V79.8684H67.3075C66.3538 79.8684 65.6441 79.7762 65.1783 79.5887C64.711 79.4028 64.391 79.0659 64.2151 78.5765C64.0393 78.0887 63.9521 77.3371 63.9521 76.3201C63.9521 75.3032 64.0393 74.5643 64.2151 74.0701C64.391 73.5775 64.711 73.2374 65.1783 73.0515C65.6457 72.8656 66.3538 72.7719 67.3075 72.7719H71.1604V77.844H72.6654V77.8456ZM66.0655 70.8253C65.9007 70.7045 65.7566 70.5615 65.6362 70.3947C65.5158 70.2278 65.4556 70.0801 65.4556 69.9498C65.4556 69.748 65.5807 69.5255 65.8326 69.2776C66.0829 69.0313 66.3095 68.9026 66.5107 68.8931C66.7119 68.9026 66.9337 69.0313 67.1808 69.2776C67.4264 69.5239 67.5499 69.748 67.5499 69.9498C67.5499 70.0705 67.4897 70.2167 67.3693 70.3883C67.2489 70.5599 67.1064 70.7061 66.94 70.8269C66.7752 70.9477 66.6311 71.008 66.5107 71.008C66.3808 71.008 66.2319 70.9477 66.0671 70.8269L66.0655 70.8253ZM69.3544 74.7963H66.6295C66.3586 74.7963 66.1606 74.8487 66.0354 74.9552C65.9103 75.06 65.8469 75.2301 65.8469 75.4605V77.1814C65.8469 77.4134 65.9087 77.5818 66.0354 77.6867C66.1606 77.7931 66.3586 77.8456 66.6295 77.8456H69.3544V74.7963ZM68.5797 70.8253C68.4149 70.7045 68.2708 70.5615 68.1504 70.3947C68.0299 70.2278 67.9698 70.0801 67.9698 69.9498C67.9698 69.748 68.0949 69.5255 68.3468 69.2776C68.5971 69.0313 68.8237 68.9026 69.0248 68.8931C69.226 68.9026 69.4478 69.0313 69.695 69.2776C69.9405 69.5239 70.0641 69.748 70.0641 69.9498C70.0641 70.0705 70.0039 70.2167 69.8835 70.3883C69.7631 70.5599 69.6205 70.7061 69.4542 70.8269C69.2894 70.9477 69.1452 71.008 69.0248 71.008C68.8949 71.008 68.746 70.9477 68.5813 70.8269L68.5797 70.8253Z" fill="white"/>
<path id="Vector_37" d="M82.8255 77.8462V79.869H80.343C79.3497 79.869 78.3865 79.7037 77.4534 79.37C76.5409 79.7021 75.5713 79.869 74.5495 79.869H72.0654V77.8462H74.9852C74.4735 77.3536 74.079 76.7974 73.8033 76.1777C73.5277 75.558 73.3898 74.9129 73.3898 74.2375C73.3898 73.8355 73.5229 73.5129 73.7891 73.2714C74.0552 73.0299 74.4814 72.8567 75.0691 72.7502C75.6569 72.6437 76.4506 72.5913 77.455 72.5913C78.4594 72.5913 79.2658 72.6437 79.8487 72.7502C80.4302 72.8567 80.8516 73.0267 81.113 73.2635C81.3744 73.5002 81.5043 73.8244 81.5043 74.2375C81.5043 74.9224 81.3696 75.5691 81.0987 76.1777C80.8278 76.7863 80.4412 77.3425 79.939 77.8462H82.8287H82.8255ZM75.7361 76.4192C76.1068 76.8975 76.6787 77.2567 77.4518 77.4982C78.2138 77.2567 78.781 76.8975 79.1533 76.4192C79.524 75.9409 79.7109 75.3403 79.7109 74.6157H75.18C75.18 75.3403 75.3654 75.9425 75.7361 76.4192Z" fill="white"/>
<path id="Vector_38" d="M90.7337 73.1218C91.19 73.4745 91.4181 74.0625 91.4181 74.8888V79.8703H82.2217V77.8475H84.2986C84.2178 77.4153 84.1782 76.8814 84.1782 76.2474C84.1782 75.7341 84.2241 75.2431 84.3144 74.776C84.4048 74.3072 84.5457 73.8019 84.7359 73.2584L84.7216 73.2425C85.2539 73.0312 85.8448 72.8707 86.4975 72.7595C87.1502 72.6483 87.8061 72.5942 88.4683 72.5942C89.5218 72.5942 90.2775 72.7706 90.7337 73.1218ZM89.6279 74.7219C89.2763 74.652 88.82 74.6155 88.2592 74.6155C87.5368 74.6155 86.8445 74.6854 86.1823 74.8268C86.0413 75.3305 85.9716 75.8025 85.9716 76.2458C85.9716 76.9005 86.0222 77.4328 86.1221 77.8459H89.6295V74.7203L89.6279 74.7219Z" fill="white"/>
<path id="Vector_39" d="M93.916 70.3584H95.7078V77.8458H97.3031V79.8686H93.916V70.3584Z" fill="white"/>
<path id="Vector_40" d="M105.626 75.3561V77.3789H104.03C103.91 77.3789 103.82 77.3741 103.76 77.3646C103.278 78.2004 102.646 78.8265 101.863 79.2444C101.081 79.6623 100.178 79.8705 99.1542 79.8705H96.7002V77.8476H99.4092C100.192 77.8476 100.837 77.6633 101.344 77.2963C101.851 76.9292 102.239 76.4493 102.51 75.855C102.248 75.4117 101.9 75.0955 101.464 74.9032C101.028 74.7125 100.437 74.6156 99.696 74.6156C99.1035 74.6156 98.5664 74.6458 98.0848 74.7062L97.8139 72.7135C98.5664 72.6325 99.208 72.5928 99.7403 72.5928C100.974 72.5928 101.934 72.8073 102.622 73.2347C103.31 73.6622 103.848 74.3693 104.24 75.3561H105.624H105.626ZM100.727 83.0104C100.563 82.8896 100.418 82.7466 100.298 82.5797C100.178 82.4129 100.117 82.2651 100.117 82.1348C100.117 81.933 100.243 81.709 100.494 81.4627C100.745 81.2164 100.971 81.0876 101.172 81.0781C101.374 81.0876 101.595 81.2164 101.843 81.4627C102.088 81.709 102.212 81.933 102.212 82.1348C102.212 82.2556 102.152 82.4018 102.031 82.5734C101.911 82.745 101.768 82.8912 101.602 83.0119C101.437 83.1327 101.293 83.1931 101.172 83.1931C101.043 83.1931 100.894 83.1327 100.729 83.0119L100.727 83.0104Z" fill="white"/>
</g>
<g id="Group_2">
<path id="Vector_41" d="M61.9388 5.2627L40.3711 19.8514V29.0947L61.9388 14.506L83.5049 29.0947V19.8514L61.9388 5.2627Z" fill="white"/>
<g id="Group_3">
<path id="Vector_42" d="M96.6524 29.4638V20.2157L75.0752 5.62061L53.498 20.2157V29.4638L75.0752 14.8687L96.6524 29.4638Z" fill="#08BBE7"/>
<path id="Vector_43" d="M96.6522 7.05523L86.1963 0V9.22106L96.6522 16.2938V7.05523Z" fill="#08BBE7"/>
</g>
</g>
</g>
</g>
</g>
</g>
</svg>
